<svg id="svg" version="1.1" xmlns="http://www.w3.org/2000/svg" xmlns:xlink="http://www.w3.org/1999/xlink" width="400" height="445" viewBox="0, 0, 400,445"><g id="svgg"><path id="path0" d="M189.230 40.410 C 174.871 43.428,165.330 54.334,164.011 69.237 C 163.751 72.172,163.606 113.280,163.603 184.416 C 163.600 304.594,163.727 297.552,161.493 301.177 C 161.011 301.960,158.890 304.400,156.779 306.600 C 134.877 329.431,134.694 362.737,156.352 384.211 C 190.340 417.909,247.949 395.356,249.871 347.600 C 250.506 331.823,245.490 319.256,233.488 306.553 C 230.545 303.438,228.781 301.200,228.064 299.669 L 227.000 297.400 226.752 275.800 C 226.616 263.920,226.564 215.320,226.637 167.800 C 226.770 80.908,226.611 67.495,225.398 63.000 C 221.232 47.563,204.606 37.179,189.230 40.410 M200.523 49.397 C 208.469 51.466,214.576 57.660,217.089 66.200 C 217.755 68.463,217.807 75.295,217.998 185.800 C 218.181 292.259,218.259 303.129,218.842 304.410 C 219.571 306.011,220.625 307.128,226.193 312.194 C 264.707 347.240,222.422 409.539,175.400 387.027 C 145.200 372.569,140.029 334.936,165.002 311.360 C 168.009 308.522,170.858 305.480,171.334 304.600 L 172.200 303.000 172.402 185.600 C 172.625 55.727,172.392 66.717,175.034 61.458 C 179.824 51.921,190.613 46.815,200.523 49.397 M251.600 90.822 C 246.742 91.786,246.097 97.901,250.718 99.184 C 252.757 99.750,280.776 99.741,282.274 99.173 C 286.136 97.710,286.604 93.225,283.093 91.307 C 281.632 90.508,255.229 90.102,251.600 90.822 M250.151 150.575 C 246.849 152.012,246.589 156.589,249.712 158.296 C 251.680 159.372,281.124 159.369,283.093 158.293 C 286.604 156.375,286.136 151.890,282.274 150.427 C 280.482 149.748,251.747 149.880,250.151 150.575 M251.600 209.633 C 247.808 210.362,246.326 214.161,248.767 216.894 L 249.934 218.200 265.888 218.313 L 281.843 218.426 283.222 217.498 C 286.970 214.974,285.829 210.630,281.153 209.627 C 278.771 209.116,254.265 209.121,251.600 209.633 M250.525 269.232 C 246.970 270.286,246.450 275.313,249.712 277.096 C 251.709 278.187,281.126 278.168,283.132 277.073 C 285.945 275.538,286.120 271.822,283.471 269.843 C 282.221 268.909,253.417 268.375,250.525 269.232 M193.799 316.876 C 191.978 320.503,190.749 321.655,185.562 324.602 C 176.059 329.999,171.474 337.112,171.641 346.200 C 171.944 362.770,190.720 374.424,204.800 366.783 C 206.010 366.126,207.540 365.338,208.200 365.030 C 209.875 364.251,214.497 359.363,215.596 357.208 C 222.222 344.219,218.236 332.292,204.644 324.438 C 199.908 321.702,198.108 320.039,196.719 317.113 C 195.484 314.510,195.007 314.472,193.799 316.876 " stroke="none" fill="#6e1e22" fill-rule="evenodd"></path><path id="path1" d="M192.687 183.237 C 189.729 183.933,187.763 185.438,186.727 187.800 C 186.302 188.768,186.161 200.700,186.000 249.600 C 185.820 304.001,185.735 310.343,185.161 311.600 C 184.091 313.942,182.455 315.545,178.236 318.384 C 165.606 326.884,160.264 339.721,163.735 353.231 C 169.710 376.488,197.832 385.697,215.859 370.300 C 232.882 355.760,231.258 331.215,212.439 318.606 C 207.977 315.617,206.329 314.041,205.320 311.800 C 204.640 310.288,204.589 306.858,204.400 249.600 L 204.200 189.000 203.292 187.300 C 201.478 183.905,197.052 182.209,192.687 183.237 M196.719 317.113 C 198.108 320.039,199.908 321.702,204.644 324.438 C 218.236 332.292,222.222 344.219,215.596 357.208 C 214.497 359.363,209.875 364.251,208.200 365.030 C 207.540 365.338,206.010 366.126,204.800 366.783 C 190.720 374.424,171.944 362.770,171.641 346.200 C 171.474 337.112,176.059 329.999,185.562 324.602 C 190.749 321.655,191.978 320.503,193.799 316.876 C 195.007 314.472,195.484 314.510,196.719 317.113 " stroke="none" fill="#ef6c74" fill-rule="evenodd"></path><path id="path2" d="M0.000 222.400 L 0.000 444.800 200.000 444.800 L 400.000 444.800 400.000 222.400 L 400.000 0.000 200.000 0.000 L 0.000 0.000 0.000 222.400 M198.877 31.606 C 216.241 33.253,231.480 47.294,234.034 64.000 C 234.458 66.769,235.032 198.657,234.710 219.200 C 234.402 238.848,234.767 294.088,235.214 295.442 C 235.496 296.296,237.204 298.476,239.464 300.867 C 254.965 317.269,262.026 338.655,257.800 356.400 C 245.624 407.522,188.329 426.057,151.464 390.800 C 141.629 381.395,135.688 370.516,132.349 355.800 C 131.614 352.561,131.607 338.688,132.339 335.400 C 135.475 321.300,140.667 311.556,150.493 301.324 C 152.527 299.206,154.401 296.831,154.912 295.724 L 155.800 293.800 156.013 178.000 C 156.205 73.241,156.287 62.003,156.867 60.135 C 161.555 45.050,175.749 33.119,190.800 31.612 C 192.450 31.447,193.980 31.287,194.200 31.256 C 194.420 31.226,196.525 31.383,198.877 31.606 M192.818 57.648 C 186.597 58.829,181.844 64.275,180.819 71.400 C 180.328 74.808,180.285 174.690,180.772 179.336 C 181.237 183.769,181.601 183.995,184.750 181.804 C 191.243 177.285,198.954 177.315,205.558 181.885 C 208.978 184.250,209.206 184.017,209.630 177.730 C 210.106 170.670,210.073 76.514,209.593 72.200 C 208.514 62.489,201.118 56.073,192.818 57.648 M285.587 82.435 C 296.281 84.728,297.310 103.452,286.961 107.443 C 285.138 108.147,283.682 108.200,266.200 108.200 L 247.400 108.200 245.118 107.080 C 235.196 102.207,236.448 85.897,247.000 82.560 C 249.103 81.894,282.563 81.786,285.587 82.435 M286.617 142.118 C 293.148 144.268,296.263 154.384,292.656 161.729 C 289.901 167.340,288.374 167.690,266.421 167.751 C 244.563 167.812,242.493 167.270,239.566 160.712 C 235.773 152.210,240.572 142.652,249.164 141.598 C 254.386 140.957,284.355 141.373,286.617 142.118 M287.400 202.016 C 295.831 205.062,296.559 221.438,288.447 225.576 C 285.468 227.096,282.914 227.265,264.991 227.130 L 247.781 227.000 245.051 225.655 C 235.168 220.788,236.338 204.605,246.780 201.735 C 249.563 200.971,285.187 201.216,287.400 202.016 M287.485 261.688 C 294.706 264.543,296.701 277.154,290.830 282.838 C 287.500 286.061,286.484 286.200,266.200 286.200 C 244.534 286.200,242.865 285.796,239.804 279.811 C 235.755 271.893,239.833 262.626,248.000 261.189 C 251.769 260.525,285.627 260.953,287.485 261.688 " stroke="none" fill="#fbfbfb" fill-rule="evenodd"></path><path id="path3" d="M190.493 37.632 C 176.923 39.721,166.173 49.433,162.281 63.121 L 161.406 66.200 161.203 181.200 C 160.985 304.647,161.120 297.179,159.059 300.200 C 158.609 300.860,156.660 303.082,154.727 305.138 C 113.366 349.140,154.835 417.461,212.400 400.156 C 252.471 388.110,265.683 337.338,236.754 306.570 C 234.531 304.207,232.191 301.552,231.553 300.671 C 229.005 297.155,229.183 305.667,229.163 186.266 C 229.142 67.285,229.130 66.505,227.222 60.786 C 222.019 45.190,206.195 35.215,190.493 37.632 M204.600 41.348 C 214.774 44.679,222.673 52.903,225.398 63.000 C 226.611 67.495,226.770 80.908,226.637 167.800 C 226.564 215.320,226.616 263.920,226.752 275.800 L 227.000 297.400 228.064 299.669 C 228.781 301.200,230.545 303.438,233.488 306.553 C 245.490 319.256,250.506 331.823,249.871 347.600 C 247.949 395.356,190.340 417.909,156.352 384.211 C 134.694 362.737,134.877 329.431,156.779 306.600 C 158.890 304.400,161.011 301.960,161.493 301.177 C 163.727 297.552,163.600 304.594,163.603 184.416 C 163.607 65.995,163.588 67.141,165.632 61.042 C 170.966 45.120,188.719 36.148,204.600 41.348 M189.710 49.416 C 181.782 51.551,175.805 57.537,173.314 65.834 C 172.643 68.070,172.593 74.639,172.402 185.600 L 172.200 303.000 171.334 304.600 C 170.858 305.480,168.009 308.522,165.002 311.360 C 140.029 334.936,145.200 372.569,175.400 387.027 C 222.422 409.539,264.707 347.240,226.193 312.194 C 220.625 307.128,219.571 306.011,218.842 304.410 C 218.259 303.129,218.181 292.259,217.998 185.800 C 217.773 55.564,218.033 67.166,215.206 61.400 C 210.591 51.990,199.503 46.778,189.710 49.416 M199.783 51.812 C 206.859 53.655,212.464 59.230,214.685 66.633 C 215.357 68.870,215.407 75.439,215.598 186.400 C 215.792 299.084,215.829 303.867,216.533 305.473 C 217.038 306.628,219.067 308.853,223.080 312.655 C 241.537 330.142,244.099 352.784,229.774 371.818 C 204.891 404.878,151.920 387.063,151.816 345.600 C 151.782 331.580,156.290 322.321,168.439 311.460 C 171.386 308.827,172.972 307.080,173.639 305.735 L 174.600 303.800 174.814 186.200 C 174.974 98.310,175.145 68.195,175.494 66.995 C 178.750 55.803,189.443 49.119,199.783 51.812 M250.049 88.390 C 243.873 89.897,242.916 98.358,248.600 101.200 L 250.600 102.200 266.400 102.200 C 283.691 102.200,284.135 102.149,286.295 99.892 C 289.423 96.625,288.601 91.195,284.660 89.088 C 282.894 88.143,253.490 87.551,250.049 88.390 M283.093 91.307 C 286.604 93.225,286.136 97.710,282.274 99.173 C 280.776 99.741,252.757 99.750,250.718 99.184 C 246.097 97.901,246.742 91.786,251.600 90.822 C 255.229 90.102,281.632 90.508,283.093 91.307 M251.533 147.581 C 243.266 148.698,242.247 159.365,250.231 161.217 C 252.397 161.719,280.556 161.683,282.760 161.175 C 289.477 159.626,290.181 150.660,283.800 147.942 C 282.420 147.355,255.444 147.053,251.533 147.581 M282.274 150.427 C 286.136 151.890,286.604 156.375,283.093 158.293 C 281.124 159.369,251.680 159.372,249.712 158.296 C 246.589 156.589,246.849 152.012,250.151 150.575 C 251.747 149.880,280.482 149.748,282.274 150.427 M250.049 207.190 C 243.924 208.684,242.873 217.107,248.461 219.914 C 250.592 220.984,279.926 221.437,283.456 220.454 C 289.112 218.879,289.883 210.683,284.639 207.877 C 282.893 206.942,253.460 206.358,250.049 207.190 M281.153 209.627 C 285.829 210.630,286.970 214.974,283.222 217.498 L 281.843 218.426 265.888 218.313 L 249.934 218.200 248.767 216.894 C 246.326 214.161,247.808 210.362,251.600 209.633 C 254.265 209.121,278.771 209.116,281.153 209.627 M249.074 266.980 C 244.104 268.752,243.264 275.641,247.625 278.874 C 249.436 280.217,252.693 280.449,267.912 280.323 L 282.600 280.200 284.593 279.200 C 289.810 276.583,289.269 268.956,283.726 266.980 C 281.510 266.189,251.290 266.189,249.074 266.980 M283.471 269.843 C 286.120 271.822,285.945 275.538,283.132 277.073 C 281.126 278.168,251.709 278.187,249.712 277.096 C 246.450 275.313,246.970 270.286,250.525 269.232 C 253.417 268.375,282.221 268.909,283.471 269.843 " stroke="none" fill="#847c7c" fill-rule="evenodd"></path><path id="path4" d="M189.200 35.801 C 175.581 38.554,165.639 47.295,160.905 60.677 L 159.800 63.800 159.592 179.200 C 159.397 287.273,159.340 294.730,158.691 296.651 C 158.146 298.263,156.918 299.892,152.959 304.251 C 133.430 325.755,130.173 352.121,144.136 375.682 C 167.867 415.728,226.668 413.891,247.961 372.439 C 259.879 349.237,255.844 323.835,237.102 304.070 C 232.674 299.400,231.807 297.967,231.220 294.348 C 230.942 292.639,230.800 254.850,230.789 179.600 C 230.771 57.459,230.904 64.501,228.494 58.306 C 222.420 42.694,204.858 32.635,189.200 35.801 M203.388 37.614 C 216.485 41.079,226.283 51.247,229.005 64.200 C 229.626 67.153,229.678 75.969,229.681 178.600 C 229.683 239.760,229.836 291.388,230.021 293.330 C 230.471 298.051,231.314 299.633,236.002 304.563 C 248.767 317.986,254.711 333.680,253.202 349.980 C 248.610 399.607,189.134 421.442,154.014 386.394 C 131.112 363.539,131.171 329.143,154.154 304.800 C 156.670 302.134,158.499 299.796,159.159 298.400 L 160.200 296.200 160.426 181.400 C 160.597 94.459,160.768 66.115,161.130 64.600 C 165.878 44.727,184.741 32.680,203.388 37.614 M189.490 52.973 C 183.152 55.210,178.881 59.555,176.686 66.000 L 175.800 68.600 175.600 186.200 L 175.400 303.800 174.278 306.085 C 173.383 307.907,172.158 309.258,168.225 312.762 C 157.066 322.703,152.585 332.132,152.620 345.600 C 152.729 387.457,206.720 404.124,230.366 369.600 C 243.184 350.886,239.967 328.796,222.093 312.800 C 218.348 309.448,217.158 308.115,216.200 306.200 L 215.000 303.800 214.800 186.200 L 214.600 68.600 213.667 66.015 C 209.764 55.198,199.252 49.528,189.490 52.973 M198.755 53.624 C 204.929 55.047,210.348 60.109,212.542 66.501 L 213.400 69.000 213.600 186.608 L 213.800 304.217 215.106 306.871 C 216.159 309.010,217.052 310.067,219.706 312.323 C 238.287 328.113,242.143 350.281,229.515 368.713 C 208.148 399.901,160.340 389.059,154.175 351.627 C 151.781 337.095,156.560 325.144,169.533 313.226 C 174.391 308.763,175.680 306.961,176.360 303.680 C 176.674 302.169,176.802 268.497,176.807 186.280 C 176.815 59.481,176.642 68.065,179.281 63.103 C 183.091 55.939,191.352 51.918,198.755 53.624 M248.446 86.600 C 242.069 88.589,240.678 98.594,246.236 102.499 C 248.754 104.269,251.044 104.462,267.927 104.325 L 283.400 104.200 285.600 103.111 C 292.482 99.704,291.692 88.803,284.406 86.639 C 281.463 85.765,251.229 85.733,248.446 86.600 M285.066 88.291 C 289.950 90.902,290.393 98.762,285.815 101.591 C 282.829 103.436,252.511 103.989,248.615 102.269 C 242.298 99.481,242.635 89.201,249.090 87.775 C 249.700 87.640,250.380 87.465,250.600 87.386 C 252.611 86.661,283.537 87.473,285.066 88.291 M249.961 145.593 C 241.059 147.158,239.990 160.465,248.562 163.011 C 251.495 163.882,281.333 163.874,284.272 163.001 C 291.941 160.724,292.579 149.645,285.237 146.250 C 283.267 145.338,254.459 144.802,249.961 145.593 M282.227 146.835 C 290.082 148.273,291.749 157.746,284.800 161.453 C 283.496 162.149,282.230 162.200,266.400 162.200 L 249.400 162.200 247.538 161.106 C 242.680 158.249,242.826 150.269,247.784 147.705 C 250.206 146.452,276.510 145.788,282.227 146.835 M249.600 205.162 C 240.867 206.999,240.142 219.546,248.600 222.450 C 249.856 222.882,253.766 223.000,266.800 223.000 L 283.400 223.000 285.679 221.881 C 291.865 218.843,291.939 209.071,285.799 206.000 L 283.800 205.000 267.400 204.934 C 258.380 204.898,250.370 205.001,249.600 205.162 M285.066 207.091 C 290.858 210.187,290.156 219.308,283.984 221.158 C 281.138 222.010,250.648 221.882,248.558 221.008 C 241.767 218.171,242.761 207.830,249.967 206.360 C 253.926 205.552,283.334 206.165,285.066 207.091 M249.036 264.837 C 240.980 266.779,240.426 278.887,248.266 281.658 C 250.524 282.456,282.296 282.444,284.600 281.644 C 291.753 279.161,292.434 268.593,285.643 265.452 C 283.603 264.509,252.561 263.987,249.036 264.837 M283.844 266.191 C 290.481 268.162,290.968 277.422,284.585 280.279 C 282.677 281.133,255.708 281.591,250.947 280.849 C 242.497 279.534,241.189 268.372,249.215 266.070 C 251.614 265.381,281.469 265.486,283.844 266.191 " stroke="none" fill="#a49f9c" fill-rule="evenodd"></path><path id="path5" d="M189.534 36.999 C 175.155 39.730,164.628 49.959,161.130 64.600 C 160.768 66.115,160.597 94.459,160.426 181.400 L 160.200 296.200 159.159 298.400 C 158.499 299.796,156.670 302.134,154.154 304.800 C 131.171 329.143,131.112 363.539,154.014 386.394 C 189.134 421.442,248.610 399.607,253.202 349.980 C 254.711 333.680,248.767 317.986,236.002 304.563 C 231.314 299.633,230.471 298.051,230.021 293.330 C 229.836 291.388,229.683 239.760,229.681 178.600 C 229.677 55.364,229.876 64.718,227.122 58.084 C 221.013 43.366,204.572 34.144,189.534 36.999 M202.535 38.221 C 214.767 41.323,223.345 49.164,227.222 60.786 C 229.130 66.505,229.142 67.285,229.163 186.266 C 229.183 305.667,229.005 297.155,231.553 300.671 C 232.191 301.552,234.531 304.207,236.754 306.570 C 276.715 349.070,234.663 416.906,178.629 400.335 C 137.052 388.040,124.351 337.453,154.727 305.138 C 156.660 303.082,158.609 300.860,159.059 300.200 C 161.120 297.179,160.985 304.647,161.203 181.200 L 161.406 66.200 162.281 63.121 C 167.445 44.958,185.373 33.869,202.535 38.221 M190.000 51.953 C 182.697 54.310,177.667 59.526,175.494 66.995 C 175.145 68.195,174.974 98.310,174.814 186.200 L 174.600 303.800 173.639 305.735 C 172.972 307.080,171.386 308.827,168.439 311.460 C 156.290 322.321,151.782 331.580,151.816 345.600 C 151.920 387.063,204.891 404.878,229.774 371.818 C 244.099 352.784,241.537 330.142,223.080 312.655 C 219.067 308.853,217.038 306.628,216.533 305.473 C 215.829 303.867,215.792 299.084,215.598 186.400 C 215.407 75.439,215.357 68.870,214.685 66.633 C 211.354 55.528,199.946 48.743,190.000 51.953 M200.845 52.951 C 207.154 55.178,211.269 59.371,213.667 66.015 L 214.600 68.600 214.800 186.200 L 215.000 303.800 216.200 306.200 C 217.158 308.115,218.348 309.448,222.093 312.800 C 239.967 328.796,243.184 350.886,230.366 369.600 C 206.720 404.124,152.729 387.457,152.620 345.600 C 152.585 332.132,157.066 322.703,168.225 312.762 C 172.158 309.258,173.383 307.907,174.278 306.085 L 175.400 303.800 175.600 186.200 L 175.800 68.600 176.686 66.000 C 180.296 55.400,191.161 49.532,200.845 52.951 M250.600 87.386 C 250.380 87.465,249.700 87.640,249.090 87.775 C 242.635 89.201,242.298 99.481,248.615 102.269 C 252.511 103.989,282.829 103.436,285.815 101.591 C 290.393 98.762,289.950 90.902,285.066 88.291 C 283.537 87.473,252.611 86.661,250.600 87.386 M284.660 89.088 C 288.601 91.195,289.423 96.625,286.295 99.892 C 284.135 102.149,283.691 102.200,266.400 102.200 L 250.600 102.200 248.600 101.200 C 242.916 98.358,243.873 89.897,250.049 88.390 C 253.490 87.551,282.894 88.143,284.660 89.088 M250.985 146.796 C 243.455 147.902,241.176 157.365,247.538 161.106 L 249.400 162.200 266.400 162.200 C 282.230 162.200,283.496 162.149,284.800 161.453 C 291.749 157.746,290.082 148.273,282.227 146.835 C 279.563 146.347,254.255 146.315,250.985 146.796 M283.800 147.942 C 290.181 150.660,289.477 159.626,282.760 161.175 C 280.556 161.683,252.397 161.719,250.231 161.217 C 242.247 159.365,243.266 148.698,251.533 147.581 C 255.444 147.053,282.420 147.355,283.800 147.942 M249.967 206.360 C 242.761 207.830,241.767 218.171,248.558 221.008 C 250.648 221.882,281.138 222.010,283.984 221.158 C 290.156 219.308,290.858 210.187,285.066 207.091 C 283.334 206.165,253.926 205.552,249.967 206.360 M284.639 207.877 C 289.883 210.683,289.112 218.879,283.456 220.454 C 279.926 221.437,250.592 220.984,248.461 219.914 C 242.873 217.107,243.924 208.684,250.049 207.190 C 253.460 206.358,282.893 206.942,284.639 207.877 M249.215 266.070 C 241.189 268.372,242.497 279.534,250.947 280.849 C 255.708 281.591,282.677 281.133,284.585 280.279 C 290.968 277.422,290.481 268.162,283.844 266.191 C 281.469 265.486,251.614 265.381,249.215 266.070 M283.726 266.980 C 289.269 268.956,289.810 276.583,284.593 279.200 L 282.600 280.200 267.912 280.323 C 252.693 280.449,249.436 280.217,247.625 278.874 C 243.264 275.641,244.104 268.752,249.074 266.980 C 251.290 266.189,281.510 266.189,283.726 266.980 " stroke="none" fill="#8c8c88" fill-rule="evenodd"></path><path id="path6" d="M191.350 34.040 C 178.775 35.197,166.917 43.904,161.148 56.215 C 157.959 63.019,158.254 51.377,158.014 180.200 L 157.800 295.400 156.909 297.207 C 156.420 298.200,153.934 301.249,151.385 303.982 C 133.435 323.226,129.224 348.595,140.195 371.400 C 156.334 404.950,198.911 416.728,228.870 395.931 C 260.818 373.752,265.309 331.975,238.772 303.806 C 236.366 301.252,233.992 298.405,233.498 297.481 L 232.600 295.800 232.381 180.600 C 232.140 54.002,232.343 63.654,229.793 57.575 C 223.192 41.840,207.955 32.512,191.350 34.040 M200.800 35.774 C 215.655 38.477,227.688 50.179,230.235 64.400 C 230.676 66.863,230.775 87.497,230.789 179.600 C 230.800 254.850,230.942 292.639,231.220 294.348 C 231.807 297.967,232.674 299.400,237.102 304.070 C 255.844 323.835,259.879 349.237,247.961 372.439 C 226.668 413.891,167.867 415.728,144.136 375.682 C 130.173 352.121,133.430 325.755,152.959 304.251 C 156.918 299.892,158.146 298.263,158.691 296.651 C 159.340 294.730,159.397 287.273,159.592 179.200 L 159.800 63.800 160.905 60.677 C 167.095 43.182,183.891 32.697,200.800 35.774 M190.842 53.833 C 184.135 55.637,178.871 61.294,177.388 68.292 C 176.897 70.608,176.813 87.690,176.807 186.280 C 176.802 268.497,176.674 302.169,176.360 303.680 C 175.680 306.961,174.391 308.763,169.533 313.226 C 156.560 325.144,151.781 337.095,154.175 351.627 C 160.340 389.059,208.148 399.901,229.515 368.713 C 242.143 350.281,238.287 328.113,219.706 312.323 C 217.052 310.067,216.159 309.010,215.106 306.871 L 213.800 304.217 213.600 186.608 L 213.400 69.000 212.542 66.501 C 209.267 56.960,199.789 51.427,190.842 53.833 M202.139 56.531 C 206.896 58.882,210.232 63.115,211.686 68.646 C 212.100 70.222,212.172 92.912,212.056 185.800 C 211.952 269.551,212.035 301.655,212.360 303.400 C 213.186 307.832,214.366 309.563,219.990 314.591 C 231.103 324.527,234.568 331.905,234.550 345.600 C 234.519 369.182,217.072 386.004,193.600 385.083 C 157.547 383.667,141.943 340.394,168.723 316.094 C 176.535 309.006,177.283 307.914,178.044 302.494 C 178.352 300.306,178.438 265.784,178.340 184.600 L 178.200 69.800 179.086 67.200 C 182.643 56.756,192.946 51.988,202.139 56.531 M248.931 84.818 C 239.002 86.781,238.417 102.365,248.162 105.295 C 250.612 106.032,282.308 106.001,284.857 105.260 C 294.655 102.411,293.725 86.710,283.645 84.807 C 281.082 84.323,251.386 84.332,248.931 84.818 M284.406 86.639 C 291.692 88.803,292.482 99.704,285.600 103.111 L 283.400 104.200 267.927 104.325 C 251.044 104.462,248.754 104.269,246.236 102.499 C 240.678 98.594,242.069 88.589,248.446 86.600 C 251.229 85.733,281.463 85.765,284.406 86.639 M247.483 144.637 C 240.724 146.743,238.865 157.874,244.482 162.610 C 247.371 165.046,246.953 165.000,266.400 165.000 L 284.200 165.000 286.600 163.800 C 293.462 160.369,293.500 148.746,286.661 145.088 C 284.481 143.923,251.014 143.537,247.483 144.637 M285.237 146.250 C 292.579 149.645,291.941 160.724,284.272 163.001 C 281.333 163.874,251.495 163.882,248.562 163.011 C 241.756 160.990,240.613 149.799,246.882 146.558 C 250.087 144.900,281.770 144.646,285.237 146.250 M247.997 203.974 C 239.030 206.702,238.777 221.143,247.651 223.778 C 250.802 224.714,282.044 224.698,285.227 223.759 C 293.747 221.246,293.972 206.723,285.530 204.216 C 283.277 203.547,250.104 203.333,247.997 203.974 M285.799 206.000 C 291.939 209.071,291.865 218.843,285.679 221.881 L 283.400 223.000 266.800 223.000 C 248.966 223.000,248.395 222.943,245.656 220.897 C 242.159 218.283,241.756 211.055,244.919 207.667 C 247.443 204.964,248.321 204.857,267.400 204.934 L 283.800 205.000 285.799 206.000 M247.243 263.801 C 238.957 266.385,239.257 280.485,247.651 282.978 C 250.811 283.917,282.051 283.898,285.224 282.956 C 293.836 280.398,294.018 266.337,285.472 263.799 C 282.645 262.959,249.937 262.961,247.243 263.801 M285.643 265.452 C 292.434 268.593,291.753 279.161,284.600 281.644 C 282.296 282.444,250.524 282.456,248.266 281.658 C 240.426 278.887,240.980 266.779,249.036 264.837 C 252.561 263.987,283.603 264.509,285.643 265.452 " stroke="none" fill="#bcbcbc" fill-rule="evenodd"></path><path id="path7" d="M190.800 31.612 C 175.749 33.119,161.555 45.050,156.867 60.135 C 156.287 62.003,156.205 73.241,156.013 178.000 L 155.800 293.800 154.912 295.724 C 154.401 296.831,152.527 299.206,150.493 301.324 C 140.667 311.556,135.475 321.300,132.339 335.400 C 131.607 338.688,131.614 352.561,132.349 355.800 C 136.422 373.750,145.197 387.302,159.218 397.295 C 193.615 421.810,241.975 405.361,255.344 364.600 C 262.983 341.308,257.719 320.183,239.464 300.867 C 237.204 298.476,235.496 296.296,235.214 295.442 C 234.767 294.088,234.402 238.848,234.710 219.200 C 235.032 198.657,234.458 66.769,234.034 64.000 C 231.480 47.294,216.241 33.253,198.877 31.606 C 196.525 31.383,194.420 31.226,194.200 31.256 C 193.980 31.287,192.450 31.447,190.800 31.612 M202.745 34.646 C 214.798 37.315,224.879 45.862,229.793 57.575 C 232.343 63.654,232.140 54.002,232.381 180.600 L 232.600 295.800 233.498 297.481 C 233.992 298.405,236.366 301.252,238.772 303.806 C 265.309 331.975,260.818 373.752,228.870 395.931 C 198.911 416.728,156.334 404.950,140.195 371.400 C 129.224 348.595,133.435 323.226,151.385 303.982 C 153.934 301.249,156.420 298.200,156.909 297.207 L 157.800 295.400 158.014 180.200 C 158.254 51.377,157.959 63.019,161.148 56.215 C 168.784 39.920,186.076 30.954,202.745 34.646 M190.267 55.606 C 184.677 57.585,181.096 61.299,179.086 67.200 L 178.200 69.800 178.340 184.600 C 178.438 265.784,178.352 300.306,178.044 302.494 C 177.283 307.914,176.535 309.006,168.723 316.094 C 141.943 340.394,157.547 383.667,193.600 385.083 C 217.072 386.004,234.519 369.182,234.550 345.600 C 234.568 331.905,231.103 324.527,219.990 314.591 C 214.366 309.563,213.186 307.832,212.360 303.400 C 212.035 301.655,211.952 269.551,212.056 185.800 C 212.211 61.934,212.323 69.125,210.158 64.547 C 206.624 57.078,197.584 53.015,190.267 55.606 M200.281 58.478 C 205.416 60.366,208.882 65.606,209.625 72.600 C 209.912 75.312,209.985 93.413,209.850 128.800 C 209.741 157.510,209.652 181.360,209.652 181.800 C 209.734 235.587,210.315 306.452,210.683 307.492 C 211.696 310.358,213.096 312.119,216.777 315.161 C 224.501 321.544,228.740 327.109,230.802 333.575 C 235.944 349.697,230.531 365.951,216.600 376.216 C 215.720 376.865,214.910 377.491,214.800 377.607 C 214.142 378.304,209.298 380.453,206.400 381.334 C 176.640 390.380,149.192 361.611,159.903 332.600 C 162.185 326.421,164.822 323.150,175.707 313.000 C 180.659 308.383,180.174 315.300,180.306 247.400 C 180.369 215.280,180.558 187.428,180.726 185.506 C 180.894 183.584,180.901 180.704,180.741 179.106 C 180.279 174.502,180.352 74.645,180.819 71.400 C 182.322 60.956,191.125 55.111,200.281 58.478 M247.000 82.560 C 236.448 85.897,235.196 102.207,245.118 107.080 L 247.400 108.200 266.200 108.200 C 287.204 108.200,287.255 108.194,290.414 105.340 C 293.014 102.991,293.800 100.584,293.800 94.972 C 293.800 87.466,291.308 83.661,285.587 82.435 C 282.563 81.786,249.103 81.894,247.000 82.560 M283.645 84.807 C 293.725 86.710,294.655 102.411,284.857 105.260 C 282.308 106.001,250.612 106.032,248.162 105.295 C 238.417 102.365,239.002 86.781,248.931 84.818 C 251.386 84.332,281.082 84.323,283.645 84.807 M249.164 141.598 C 236.148 143.195,234.214 162.950,246.673 167.037 C 249.914 168.100,282.405 168.120,286.046 167.062 C 291.699 165.419,293.800 162.042,293.800 154.600 C 293.800 147.367,291.752 143.808,286.617 142.118 C 284.355 141.373,254.386 140.957,249.164 141.598 M286.661 145.088 C 293.500 148.746,293.462 160.369,286.600 163.800 L 284.200 165.000 266.400 165.000 C 246.953 165.000,247.371 165.046,244.482 162.610 C 238.865 157.874,240.724 146.743,247.483 144.637 C 251.014 143.537,284.481 143.923,286.661 145.088 M246.780 201.735 C 236.338 204.605,235.168 220.788,245.051 225.655 L 247.781 227.000 264.991 227.130 C 282.914 227.265,285.468 227.096,288.447 225.576 C 296.559 221.438,295.831 205.062,287.400 202.016 C 285.187 201.216,249.563 200.971,246.780 201.735 M285.530 204.216 C 293.972 206.723,293.747 221.246,285.227 223.759 C 282.044 224.698,250.802 224.714,247.651 223.778 C 238.777 221.143,239.030 206.702,247.997 203.974 C 250.104 203.333,283.277 203.547,285.530 204.216 M248.000 261.189 C 235.697 263.353,234.732 281.785,246.727 285.497 C 250.297 286.601,282.116 286.554,286.166 285.438 C 296.305 282.643,297.255 265.550,287.485 261.688 C 285.627 260.953,251.769 260.525,248.000 261.189 M285.472 263.799 C 294.018 266.337,293.836 280.398,285.224 282.956 C 282.051 283.898,250.811 283.917,247.651 282.978 C 239.257 280.485,238.957 266.385,247.243 263.801 C 249.937 262.961,282.645 262.959,285.472 263.799 " stroke="none" fill="#d4d4d4" fill-rule="evenodd"></path><path id="path8" d="M192.000 178.650 C 189.471 179.140,187.093 180.173,184.759 181.798 C 182.463 183.396,182.159 183.506,181.553 182.957 C 180.478 181.985,180.377 187.236,180.280 249.000 C 180.177 315.073,180.655 308.386,175.707 313.000 C 164.822 323.150,162.185 326.421,159.903 332.600 C 150.995 356.728,169.459 383.194,195.200 383.194 C 201.226 383.194,212.581 379.958,214.800 377.607 C 214.910 377.491,215.720 376.865,216.600 376.216 C 230.531 365.951,235.944 349.697,230.802 333.575 C 228.738 327.103,224.502 321.545,216.759 315.146 C 209.415 309.078,210.000 314.909,210.000 247.789 C 210.000 187.322,209.900 182.004,208.785 183.013 C 208.150 183.588,207.886 183.495,205.547 181.883 C 201.476 179.077,196.244 177.829,192.000 178.650 M197.600 183.229 C 200.124 183.804,202.228 185.309,203.292 187.300 L 204.200 189.000 204.400 249.600 C 204.589 306.858,204.640 310.288,205.320 311.800 C 206.329 314.041,207.977 315.617,212.439 318.606 C 231.258 331.215,232.882 355.760,215.859 370.300 C 197.832 385.697,169.710 376.488,163.735 353.231 C 160.264 339.721,165.606 326.884,178.236 318.384 C 182.455 315.545,184.091 313.942,185.161 311.600 C 185.735 310.343,185.820 304.001,186.000 249.600 C 186.161 200.700,186.302 188.768,186.727 187.800 C 188.366 184.065,192.900 182.159,197.600 183.229 " stroke="none" fill="#f4ccd0" fill-rule="evenodd"></path></g></svg>