<svg id="svg" version="1.1" xmlns="http://www.w3.org/2000/svg" xmlns:xlink="http://www.w3.org/1999/xlink" width="400" height="329.67032967032964" viewBox="0, 0, 400,329.67032967032964"><g id="svgg"><path id="path0" d="M276.993 10.635 C 276.123 11.076,274.958 12.113,274.123 13.190 C 273.349 14.188,271.948 15.868,271.009 16.924 C 270.070 17.981,268.883 19.505,268.371 20.313 C 267.859 21.120,266.910 22.246,266.263 22.815 C 265.615 23.383,264.728 24.553,264.291 25.415 C 263.855 26.277,263.045 27.305,262.491 27.699 C 261.938 28.093,261.195 28.984,260.841 29.679 C 260.486 30.374,259.435 31.808,258.504 32.866 C 257.573 33.924,256.211 35.680,255.476 36.768 C 254.742 37.857,253.640 39.170,253.028 39.687 C 252.416 40.204,251.565 41.317,251.137 42.160 C 250.709 43.003,249.766 44.170,249.041 44.752 C 248.316 45.334,247.396 46.484,246.997 47.308 C 246.598 48.132,245.788 49.213,245.197 49.712 C 244.605 50.210,243.599 51.444,242.961 52.454 C 242.322 53.464,240.949 55.243,239.910 56.408 C 238.870 57.574,237.748 59.060,237.416 59.711 C 237.084 60.362,236.281 61.299,235.633 61.794 C 234.984 62.288,234.138 63.315,233.753 64.075 C 232.502 66.542,227.727 70.899,226.281 70.895 C 224.617 70.889,221.822 70.111,220.526 69.292 C 218.097 67.757,216.966 67.323,213.270 66.505 C 211.138 66.033,208.467 65.258,207.335 64.784 C 196.182 60.110,158.642 59.810,148.372 64.313 C 147.183 64.835,144.086 65.787,141.491 66.429 C 138.195 67.245,136.065 67.983,134.422 68.879 C 133.128 69.583,131.031 70.495,129.761 70.904 C 127.027 71.785,125.875 72.342,124.320 73.534 C 123.685 74.020,122.144 74.839,120.895 75.353 C 119.646 75.867,117.940 76.881,117.103 77.606 C 116.266 78.332,114.673 79.338,113.563 79.842 C 112.453 80.347,111.172 81.202,110.717 81.744 C 110.261 82.285,109.092 83.208,108.118 83.794 C 107.144 84.381,105.680 85.495,104.864 86.271 C 104.048 87.046,101.748 89.160,99.753 90.968 C 95.649 94.686,89.670 100.993,88.143 103.215 C 87.582 104.031,86.652 105.144,86.077 105.688 C 85.502 106.232,84.568 107.546,84.001 108.608 C 83.435 109.670,82.611 110.775,82.170 111.064 C 81.703 111.370,80.784 112.850,79.966 114.611 C 79.195 116.274,78.017 118.239,77.348 118.979 C 76.490 119.928,75.898 121.090,75.332 122.933 C 74.878 124.411,74.087 126.099,73.508 126.827 C 72.048 128.661,71.912 128.977,70.878 132.917 C 70.366 134.867,69.510 137.255,68.975 138.223 C 67.775 140.397,67.101 142.540,66.609 145.754 C 66.400 147.115,65.706 150.231,65.065 152.679 C 62.726 161.625,62.163 168.348,62.687 181.069 C 62.998 188.641,63.203 190.147,64.599 195.151 C 65.141 197.092,65.828 199.942,66.127 201.484 C 67.453 208.322,67.728 209.333,68.772 211.212 C 69.376 212.300,70.328 214.877,70.888 216.939 C 72.020 221.109,72.085 221.262,73.453 222.980 C 73.985 223.649,74.903 225.545,75.493 227.193 C 76.236 229.269,76.996 230.695,77.967 231.833 C 78.738 232.736,79.553 234.087,79.776 234.834 C 80.000 235.581,80.817 236.878,81.592 237.717 C 82.366 238.555,83.604 240.280,84.341 241.550 C 85.079 242.819,86.228 244.378,86.894 245.012 C 87.560 245.647,88.452 246.844,88.875 247.672 C 89.330 248.563,90.191 249.540,90.982 250.064 C 91.718 250.550,92.619 251.534,92.984 252.250 C 93.350 252.969,94.318 254.013,95.144 254.581 C 95.967 255.147,96.996 256.173,97.430 256.861 C 97.864 257.548,98.871 258.493,99.669 258.960 C 100.466 259.428,101.526 260.399,102.026 261.120 C 102.525 261.840,103.405 262.622,103.981 262.858 C 104.557 263.093,105.771 263.972,106.678 264.811 C 107.585 265.650,109.265 266.898,110.413 267.585 C 111.560 268.272,113.178 269.422,114.008 270.140 C 114.839 270.859,116.337 271.809,117.338 272.251 C 118.339 272.694,119.810 273.591,120.607 274.243 C 121.404 274.896,123.334 275.933,124.897 276.546 C 126.460 277.160,128.490 278.165,129.409 278.780 C 131.291 280.040,133.144 280.751,135.991 281.304 C 137.060 281.512,139.031 282.260,140.371 282.965 C 142.326 283.995,143.896 284.474,148.320 285.389 C 151.352 286.016,155.901 287.061,158.429 287.712 C 168.444 290.290,187.748 290.139,197.336 287.408 C 199.527 286.784,203.026 285.961,205.111 285.579 C 209.550 284.765,211.699 284.124,213.523 283.070 C 214.250 282.650,216.682 281.777,218.928 281.131 C 221.868 280.284,223.450 279.633,224.582 278.802 C 225.446 278.168,227.506 277.146,229.160 276.531 C 230.887 275.889,232.713 274.943,233.448 274.310 C 234.153 273.703,235.328 272.806,236.060 272.316 C 239.328 270.129,239.522 266.041,236.431 264.465 C 235.063 263.766,231.841 264.237,230.134 265.386 C 229.670 265.697,228.587 266.424,227.726 267.001 C 226.865 267.577,225.023 268.454,223.633 268.950 C 222.242 269.445,220.660 270.176,220.115 270.573 C 218.459 271.783,217.287 272.272,213.875 273.178 C 212.075 273.655,209.472 274.557,208.090 275.181 C 199.855 278.899,175.600 280.999,164.716 278.936 C 163.809 278.764,160.580 278.265,157.541 277.826 C 151.065 276.892,148.128 276.208,146.084 275.160 C 145.268 274.741,142.853 273.890,140.718 273.268 C 138.395 272.592,136.066 271.662,134.917 270.953 C 133.862 270.302,131.835 269.320,130.413 268.773 C 128.991 268.225,126.969 267.175,125.920 266.439 C 124.871 265.704,123.189 264.737,122.182 264.292 C 121.175 263.847,119.724 262.907,118.956 262.204 C 118.188 261.500,116.818 260.550,115.911 260.091 C 115.004 259.633,113.891 258.854,113.438 258.361 C 112.984 257.869,111.529 256.659,110.203 255.674 C 107.406 253.595,97.876 244.116,96.457 242.001 C 95.925 241.209,94.773 239.783,93.896 238.833 C 93.019 237.883,92.074 236.547,91.794 235.865 C 91.515 235.183,90.712 234.031,90.010 233.306 C 89.308 232.580,88.128 230.800,87.387 229.349 C 86.646 227.898,85.543 226.013,84.935 225.161 C 84.328 224.308,83.518 222.685,83.137 221.555 C 82.755 220.424,81.824 218.476,81.069 217.225 C 80.153 215.710,79.378 213.779,78.746 211.433 C 78.224 209.498,77.371 207.024,76.851 205.936 C 75.486 203.079,75.057 201.094,73.540 190.605 C 71.388 175.721,71.423 173.101,74.010 155.991 C 75.271 147.650,75.385 147.172,76.984 143.446 C 77.569 142.086,78.458 139.456,78.961 137.603 C 79.623 135.166,80.277 133.624,81.323 132.031 C 82.119 130.819,82.770 129.633,82.770 129.395 C 82.770 128.349,84.232 125.201,85.317 123.913 C 85.968 123.139,86.928 121.570,87.451 120.426 C 87.973 119.281,89.037 117.563,89.815 116.608 C 90.594 115.652,91.692 114.066,92.256 113.082 C 92.820 112.099,93.894 110.701,94.643 109.975 C 95.391 109.250,96.317 108.102,96.700 107.424 C 97.083 106.747,97.963 105.799,98.655 105.319 C 99.348 104.839,100.360 103.724,100.903 102.841 C 101.446 101.959,102.047 101.237,102.239 101.237 C 102.431 101.237,103.693 100.161,105.044 98.846 C 109.210 94.791,111.247 92.982,112.448 92.270 C 113.083 91.894,114.389 90.867,115.351 89.989 C 116.312 89.112,118.073 87.929,119.263 87.361 C 120.453 86.793,121.982 85.827,122.659 85.215 C 123.337 84.602,124.915 83.683,126.167 83.172 C 127.418 82.661,129.213 81.711,130.156 81.060 C 131.098 80.410,133.176 79.419,134.772 78.858 C 136.369 78.298,138.666 77.313,139.878 76.671 C 141.450 75.836,143.667 75.131,147.627 74.206 C 150.678 73.493,153.928 72.615,154.850 72.256 C 162.996 69.081,191.780 69.358,200.649 72.696 C 201.870 73.156,204.746 73.915,207.040 74.384 C 210.154 75.020,211.803 75.552,213.546 76.485 C 214.829 77.173,216.427 77.916,217.096 78.136 C 218.854 78.716,220.611 80.479,220.605 81.655 C 220.596 83.267,219.373 87.572,218.346 89.607 C 214.295 97.633,214.249 121.238,218.269 129.202 C 218.805 130.264,219.484 132.060,219.778 133.194 C 220.480 135.904,221.774 138.792,222.745 139.819 C 223.174 140.272,223.915 141.533,224.392 142.622 C 224.869 143.710,225.757 145.120,226.365 145.754 C 226.972 146.389,228.084 147.799,228.836 148.887 C 230.425 151.189,235.023 156.041,236.933 157.432 C 237.659 157.961,239.143 159.166,240.231 160.112 C 241.319 161.057,243.026 162.239,244.023 162.739 C 245.021 163.238,246.360 164.117,247.000 164.692 C 247.718 165.335,249.363 166.161,251.287 166.844 C 253.005 167.453,255.301 168.436,256.389 169.029 C 259.500 170.724,264.031 171.635,274.148 172.598 C 279.744 173.131,280.107 173.289,281.197 175.670 C 282.461 178.431,281.606 191.360,279.805 196.727 C 278.919 199.365,278.036 202.754,277.161 206.868 C 276.860 208.288,276.086 210.440,275.441 211.650 C 274.797 212.860,273.778 215.304,273.178 217.081 C 272.577 218.858,271.576 221.010,270.954 221.862 C 270.332 222.715,269.337 224.583,268.745 226.014 C 268.152 227.444,267.244 229.096,266.727 229.684 C 265.620 230.946,265.338 234.624,266.278 235.563 C 269.332 238.617,274.677 236.211,276.653 230.892 C 277.078 229.745,277.978 228.141,278.652 227.325 C 279.505 226.293,280.149 224.954,280.776 222.910 C 281.271 221.297,282.167 219.162,282.767 218.165 C 284.191 215.800,284.759 214.216,285.593 210.279 C 285.971 208.497,286.781 205.866,287.394 204.434 C 288.998 200.686,289.824 195.399,290.506 184.501 C 291.097 175.056,291.161 174.568,291.956 173.389 C 292.809 172.122,294.618 171.028,297.028 170.319 C 297.978 170.039,299.611 169.313,300.656 168.705 C 301.701 168.097,303.401 167.357,304.434 167.061 C 307.380 166.215,309.156 165.352,310.552 164.091 C 311.261 163.451,312.566 162.616,313.451 162.236 C 314.337 161.857,315.837 160.813,316.785 159.916 C 317.734 159.019,318.663 158.285,318.851 158.285 C 319.151 158.285,321.593 155.886,327.071 150.206 C 327.945 149.299,329.081 147.778,329.594 146.825 C 330.107 145.872,331.010 144.724,331.600 144.274 C 332.315 143.728,332.864 142.881,333.246 141.730 C 334.110 139.129,334.969 137.313,335.821 136.288 C 336.979 134.896,337.231 134.291,338.141 130.700 C 338.602 128.881,339.488 126.071,340.109 124.455 C 342.737 117.627,342.911 101.026,340.417 95.136 C 339.957 94.048,339.017 91.177,338.330 88.756 C 337.512 85.871,336.744 83.883,336.103 82.985 C 334.820 81.188,333.857 79.247,333.555 77.851 C 333.421 77.231,332.686 76.044,331.922 75.213 C 331.158 74.382,329.959 72.743,329.256 71.571 C 328.554 70.399,327.273 68.660,326.409 67.705 C 325.544 66.751,324.545 65.398,324.188 64.698 C 323.831 63.998,323.030 63.037,322.407 62.562 C 321.785 62.088,320.967 61.042,320.589 60.239 C 320.212 59.436,319.325 58.278,318.620 57.666 C 317.914 57.055,316.813 55.738,316.174 54.740 C 315.534 53.743,314.603 52.556,314.104 52.102 C 313.605 51.649,312.449 50.165,311.536 48.805 C 310.622 47.444,309.396 45.928,308.811 45.434 C 308.227 44.941,307.437 43.874,307.056 43.064 C 306.675 42.254,305.830 41.173,305.178 40.663 C 304.526 40.153,303.688 39.143,303.316 38.417 C 302.944 37.692,301.768 36.183,300.702 35.066 C 299.636 33.948,298.763 32.894,298.763 32.724 C 298.763 32.554,297.856 31.391,296.747 30.140 C 295.638 28.888,294.302 27.109,293.777 26.186 C 293.253 25.263,292.246 23.988,291.539 23.354 C 290.833 22.720,289.884 21.472,289.431 20.581 C 288.979 19.690,288.146 18.622,287.581 18.207 C 287.016 17.791,286.169 16.827,285.698 16.063 C 284.454 14.046,280.071 9.893,279.186 9.893 C 278.786 9.893,277.799 10.227,276.993 10.635 M282.971 27.453 C 284.579 29.130,286.276 31.245,286.742 32.152 C 287.208 33.059,288.099 34.171,288.721 34.625 C 289.344 35.078,290.149 36.047,290.510 36.778 C 290.872 37.509,291.778 38.696,292.524 39.416 C 293.270 40.136,294.360 41.467,294.947 42.374 C 295.533 43.281,296.579 44.617,297.272 45.342 C 297.965 46.068,299.186 47.665,299.986 48.892 C 300.785 50.119,301.803 51.361,302.246 51.651 C 302.690 51.942,303.507 53.032,304.062 54.073 C 304.617 55.115,305.508 56.290,306.042 56.684 C 306.575 57.079,307.596 58.324,308.311 59.451 C 309.026 60.578,309.907 61.682,310.269 61.904 C 310.632 62.126,311.556 63.239,312.322 64.377 C 313.089 65.516,314.441 67.247,315.326 68.224 C 316.211 69.202,317.288 70.685,317.718 71.522 C 318.148 72.358,319.048 73.470,319.717 73.993 C 320.386 74.517,321.230 75.614,321.592 76.432 C 321.954 77.250,322.876 78.528,323.642 79.273 C 324.657 80.260,325.319 81.366,326.086 83.358 C 326.666 84.860,327.636 86.789,328.243 87.645 C 329.498 89.415,329.859 90.429,330.552 94.147 C 330.822 95.598,331.512 98.703,332.085 101.048 C 333.441 106.602,333.405 113.081,331.986 118.549 C 331.515 120.363,330.807 123.405,330.411 125.309 C 329.664 128.908,329.229 130.034,327.911 131.797 C 327.480 132.373,326.751 133.860,326.291 135.101 C 325.783 136.471,324.753 138.238,323.671 139.595 C 322.691 140.825,321.521 142.455,321.071 143.216 C 320.621 143.977,319.562 145.173,318.718 145.873 C 317.874 146.573,317.021 147.500,316.824 147.933 C 316.627 148.367,315.784 149.159,314.951 149.693 C 314.119 150.228,312.844 151.276,312.119 152.022 C 311.393 152.768,309.687 153.991,308.326 154.738 C 306.966 155.486,305.318 156.524,304.664 157.044 C 304.010 157.564,301.961 158.503,300.111 159.132 C 298.261 159.760,295.861 160.721,294.778 161.267 C 288.467 164.453,268.881 164.167,261.500 160.781 C 259.777 159.991,257.326 159.038,256.052 158.663 C 254.593 158.234,253.250 157.568,252.424 156.864 C 251.703 156.250,250.079 155.200,248.816 154.531 C 247.552 153.863,246.100 152.808,245.588 152.187 C 245.077 151.567,244.060 150.723,243.330 150.312 C 242.600 149.902,241.503 148.872,240.893 148.023 C 240.284 147.174,239.338 146.216,238.791 145.893 C 238.245 145.570,237.427 144.628,236.974 143.799 C 236.521 142.970,235.550 141.725,234.816 141.032 C 234.041 140.301,232.926 138.642,232.157 137.075 C 231.428 135.591,230.374 133.685,229.813 132.839 C 229.202 131.916,228.427 129.937,227.877 127.893 C 227.372 126.018,226.584 123.594,226.124 122.506 C 223.663 116.674,223.621 102.839,226.046 96.633 C 226.656 95.073,227.459 92.604,227.831 91.147 C 228.693 87.769,229.330 86.259,230.515 84.779 C 231.037 84.128,231.902 82.630,232.439 81.451 C 232.975 80.272,233.948 78.795,234.600 78.168 C 235.253 77.541,236.077 76.427,236.433 75.692 C 236.788 74.958,237.948 73.378,239.011 72.181 C 240.073 70.984,241.290 69.427,241.716 68.721 C 242.141 68.014,243.123 66.816,243.897 66.058 C 244.671 65.300,245.610 64.082,245.982 63.352 C 246.355 62.622,247.190 61.610,247.839 61.103 C 248.487 60.596,249.364 59.514,249.787 58.697 C 250.211 57.881,251.035 56.768,251.618 56.224 C 252.202 55.680,253.306 54.267,254.072 53.085 C 254.837 51.903,255.938 50.493,256.518 49.952 C 257.099 49.412,258.228 47.983,259.028 46.777 C 259.827 45.570,260.897 44.288,261.404 43.927 C 261.911 43.566,262.818 42.396,263.419 41.326 C 264.021 40.257,264.944 39.092,265.470 38.738 C 265.997 38.384,266.828 37.351,267.318 36.442 C 267.808 35.533,268.673 34.345,269.241 33.800 C 269.809 33.256,271.028 31.698,271.950 30.338 C 273.846 27.539,274.503 26.880,276.834 25.436 C 279.344 23.882,279.642 23.980,282.971 27.453 M146.865 124.439 C 145.695 124.823,141.309 127.458,138.912 129.217 C 138.106 129.807,135.050 134.596,133.619 137.510 C 132.758 139.265,132.729 139.507,132.729 144.930 C 132.729 151.531,132.631 151.237,137.243 158.496 C 141.017 164.435,152.748 168.178,157.316 164.899 C 157.781 164.566,159.107 163.816,160.264 163.232 C 163.376 161.661,165.963 159.028,167.537 155.830 C 168.256 154.369,169.131 152.655,169.483 152.020 C 172.184 147.138,170.996 140.032,166.074 131.633 C 165.108 129.984,160.651 126.561,156.970 124.641 C 155.768 124.014,148.595 123.871,146.865 124.439 M193.686 128.917 C 191.387 130.018,190.263 131.564,189.243 135.037 C 188.870 136.307,187.910 138.454,187.110 139.808 C 186.310 141.163,185.655 142.442,185.655 142.652 C 185.655 143.634,183.858 148.373,182.861 150.017 C 182.249 151.028,181.270 153.339,180.686 155.153 C 180.103 156.966,179.067 159.415,178.384 160.594 C 177.701 161.772,176.746 164.073,176.262 165.705 C 175.779 167.337,174.820 169.637,174.133 170.816 C 173.445 171.995,172.422 174.451,171.860 176.274 C 171.298 178.097,170.387 180.248,169.836 181.055 C 169.285 181.862,168.312 184.155,167.675 186.150 C 167.037 188.145,166.013 190.594,165.399 191.591 C 164.785 192.589,163.962 194.444,163.571 195.713 C 162.324 199.755,161.834 200.955,160.827 202.434 C 160.286 203.229,159.417 205.297,158.897 207.030 C 158.376 208.764,157.663 210.711,157.313 211.356 C 154.040 217.385,154.249 219.018,158.556 221.077 L 160.548 222.029 163.046 219.794 L 165.543 217.559 166.702 213.891 C 167.340 211.873,168.389 209.367,169.032 208.322 C 169.676 207.276,170.649 204.976,171.195 203.210 C 171.741 201.445,172.754 199.035,173.447 197.857 C 174.139 196.678,175.160 194.229,175.715 192.415 C 176.270 190.602,177.190 188.384,177.760 187.488 C 178.330 186.591,179.360 184.118,180.048 181.992 C 180.736 179.865,181.743 177.481,182.285 176.693 C 182.827 175.906,183.748 173.705,184.331 171.802 C 184.915 169.900,185.898 167.529,186.516 166.535 C 187.134 165.541,188.158 163.140,188.791 161.200 C 189.424 159.261,190.476 156.776,191.130 155.679 C 191.784 154.582,192.731 152.273,193.236 150.549 C 193.741 148.824,194.653 146.639,195.263 145.694 C 195.873 144.748,196.979 142.186,197.720 140.000 C 198.462 137.815,199.268 135.557,199.513 134.984 C 200.157 133.474,199.145 130.177,197.713 129.120 C 196.131 127.953,195.744 127.933,193.686 128.917 M154.580 134.892 C 157.918 136.586,158.342 137.059,159.580 140.459 C 162.806 149.320,156.524 157.960,148.873 155.183 C 143.612 153.273,140.584 145.868,143.129 141.138 C 143.666 140.140,144.105 139.173,144.105 138.988 C 144.106 137.812,145.947 136.092,148.497 134.886 C 151.852 133.300,151.440 133.299,154.580 134.892 M197.802 186.600 C 196.957 186.940,195.844 187.516,195.329 187.879 C 194.815 188.243,193.482 188.998,192.368 189.558 C 190.932 190.279,190.125 190.940,189.597 191.826 C 189.187 192.513,188.237 193.682,187.486 194.424 C 183.038 198.814,182.912 215.039,187.291 219.437 C 188.023 220.173,189.066 221.402,189.609 222.169 C 190.233 223.051,191.233 223.882,192.330 224.431 C 193.284 224.907,194.435 225.638,194.889 226.054 C 197.853 228.775,206.526 228.799,210.115 226.097 C 210.900 225.506,212.031 224.825,212.630 224.583 C 213.258 224.330,214.864 222.859,216.427 221.106 L 219.137 218.069 220.093 214.311 C 221.387 209.223,221.539 205.790,220.637 202.004 C 219.256 196.210,218.968 195.498,217.350 193.889 C 216.513 193.057,215.412 191.826,214.904 191.154 C 214.346 190.417,213.168 189.533,211.936 188.926 C 210.812 188.372,209.151 187.523,208.244 187.038 C 206.023 185.851,200.264 185.609,197.802 186.600 M205.606 196.830 C 213.038 200.255,213.975 211.198,207.255 216.088 L 204.617 218.007 202.517 217.834 C 193.247 217.067,190.143 204.189,197.731 197.972 C 199.808 196.270,203.293 195.764,205.606 196.830 M252.506 248.888 C 251.618 249.869,250.562 252.559,250.787 253.267 C 251.938 256.894,257.843 256.945,258.748 253.336 C 259.009 252.298,257.624 249.312,256.728 248.978 C 254.960 248.321,253.056 248.280,252.506 248.888 " stroke="none" fill="#1b2325" fill-rule="evenodd"></path><path id="path1" d="M275.720 7.941 C 273.801 8.317,272.853 8.983,272.081 10.498 C 271.729 11.188,270.635 12.558,269.651 13.543 C 268.667 14.528,267.383 16.185,266.796 17.225 C 266.210 18.265,265.157 19.570,264.458 20.124 C 263.600 20.803,262.979 21.691,262.550 22.849 C 262.056 24.186,261.634 24.728,260.646 25.291 C 259.745 25.805,259.135 26.522,258.542 27.761 C 258.028 28.838,257.265 29.800,256.554 30.271 C 255.913 30.694,254.844 31.977,254.150 33.155 C 253.463 34.321,252.626 35.422,252.291 35.602 C 251.533 36.007,249.478 38.835,248.852 40.333 C 248.596 40.947,247.860 41.774,247.217 42.172 C 246.161 42.824,244.683 45.106,244.683 46.084 C 244.683 46.287,244.052 46.872,243.281 47.383 C 242.378 47.983,241.618 48.861,241.144 49.851 C 240.738 50.699,239.730 51.944,238.895 52.628 C 238.062 53.311,237.092 54.437,236.737 55.131 C 236.383 55.825,235.184 57.394,234.073 58.617 C 232.962 59.840,231.759 61.545,231.399 62.407 C 230.907 63.585,230.409 64.158,229.387 64.720 C 228.590 65.159,227.758 65.976,227.370 66.699 C 226.625 68.088,226.019 68.225,224.811 67.274 C 223.490 66.235,221.281 65.410,218.619 64.961 C 215.491 64.433,213.871 63.859,212.676 62.853 C 211.572 61.924,209.268 61.128,206.925 60.866 C 198.974 59.978,196.618 59.567,194.408 58.682 C 187.772 56.025,166.764 56.050,160.088 58.723 C 158.129 59.507,156.485 59.832,151.789 60.363 C 144.594 61.176,143.013 61.575,141.052 63.072 C 140.206 63.717,139.101 64.328,138.595 64.428 C 138.089 64.529,136.712 64.778,135.534 64.981 C 132.886 65.438,131.607 65.961,130.012 67.238 C 129.308 67.802,127.438 68.666,125.688 69.236 C 123.479 69.956,122.207 70.592,121.200 71.477 C 120.428 72.156,118.581 73.208,117.096 73.815 C 114.880 74.720,114.242 75.150,113.538 76.213 C 112.869 77.224,112.357 77.590,111.212 77.879 C 110.249 78.121,109.215 78.748,108.210 79.700 C 107.367 80.498,105.639 81.801,104.369 82.597 C 103.100 83.392,101.506 84.711,100.827 85.527 C 100.148 86.344,99.018 87.335,98.315 87.730 C 97.613 88.125,96.747 88.957,96.391 89.580 C 96.035 90.204,95.016 91.189,94.127 91.771 C 93.144 92.414,92.199 93.394,91.716 94.268 C 91.280 95.059,90.416 96.006,89.798 96.371 C 89.179 96.736,88.081 97.906,87.358 98.970 C 86.635 100.035,85.389 101.579,84.590 102.402 C 83.791 103.224,82.748 104.720,82.272 105.726 C 81.796 106.733,80.763 108.175,79.977 108.931 C 79.017 109.854,78.420 110.782,78.158 111.760 C 77.912 112.681,77.278 113.710,76.432 114.563 C 75.003 116.003,73.720 118.449,73.364 120.411 C 73.222 121.197,72.652 122.121,71.721 123.080 C 70.380 124.460,69.250 126.995,69.250 128.625 C 69.250 129.681,68.287 131.910,67.298 133.143 C 66.027 134.729,65.422 136.480,64.971 139.885 C 64.476 143.622,64.074 145.006,62.982 146.744 C 60.809 150.199,60.350 155.168,60.359 175.103 C 60.368 194.764,60.805 199.640,62.825 202.638 C 64.012 204.399,64.475 206.012,65.003 210.218 C 65.365 213.109,66.219 215.376,67.427 216.653 C 67.926 217.181,68.525 218.662,69.095 220.775 C 70.126 224.599,70.301 224.985,71.728 226.582 C 72.369 227.299,73.142 228.808,73.670 230.374 C 74.643 233.257,74.943 233.750,76.239 234.594 C 76.818 234.970,77.321 235.769,77.678 236.877 C 78.448 239.266,79.629 241.217,80.818 242.063 C 81.375 242.460,82.229 243.615,82.715 244.630 C 83.320 245.892,84.026 246.761,84.950 247.381 C 85.893 248.015,86.471 248.736,86.869 249.780 C 87.294 250.891,87.789 251.479,88.814 252.085 C 89.724 252.623,90.469 253.433,91.014 254.479 C 91.541 255.490,92.259 256.285,93.006 256.685 C 93.649 257.029,94.613 257.993,95.150 258.828 C 95.792 259.827,96.614 260.581,97.554 261.032 C 98.488 261.481,99.231 262.159,99.698 262.990 C 100.196 263.876,100.930 264.517,102.121 265.107 C 103.130 265.606,104.145 266.425,104.598 267.106 C 105.083 267.837,106.048 268.587,107.228 269.150 C 108.307 269.665,109.475 270.543,110.003 271.236 C 110.886 272.393,113.671 274.044,115.470 274.478 C 115.954 274.594,116.802 275.261,117.355 275.960 C 118.179 277.000,118.895 277.421,121.293 278.279 C 122.996 278.888,124.763 279.786,125.509 280.421 C 127.243 281.897,127.695 282.099,130.750 282.764 C 133.722 283.412,134.356 283.678,135.536 284.776 C 136.706 285.864,138.566 286.444,143.379 287.219 C 146.279 287.686,147.822 288.094,148.392 288.546 C 151.237 290.795,153.259 291.114,167.308 291.527 C 188.767 292.158,200.502 291.392,205.276 289.047 C 207.456 287.977,208.944 287.490,210.882 287.215 C 215.362 286.578,217.503 285.920,218.861 284.764 C 220.551 283.326,221.151 283.041,223.083 282.760 C 225.693 282.379,228.007 281.375,229.137 280.134 C 229.936 279.256,230.758 278.824,232.715 278.256 C 234.794 277.652,235.527 277.247,236.754 276.029 C 237.578 275.211,238.994 274.012,239.901 273.366 C 242.103 271.796,242.701 270.535,242.712 267.436 C 242.734 260.982,245.540 257.969,250.126 259.474 C 257.359 261.848,262.507 257.876,261.149 250.969 C 259.989 245.077,263.280 240.066,268.018 240.509 C 270.116 240.705,270.296 240.659,273.538 239.107 C 277.154 237.375,277.097 237.438,278.644 233.471 C 279.033 232.473,279.924 231.063,280.625 230.338 C 281.581 229.347,282.033 228.490,282.441 226.895 C 283.084 224.386,283.948 222.594,285.045 221.498 C 285.911 220.631,286.616 218.534,287.349 214.634 C 287.711 212.707,288.093 211.765,288.982 210.600 C 290.324 208.842,290.955 206.355,291.505 200.660 C 291.947 196.085,292.414 193.721,293.169 192.234 C 294.147 190.308,294.782 186.380,295.120 180.181 C 295.505 173.095,295.412 173.253,299.578 172.586 C 302.668 172.091,303.941 171.571,305.602 170.125 C 306.189 169.613,307.267 169.034,307.999 168.837 C 310.531 168.155,312.454 167.145,313.603 165.891 C 314.239 165.197,315.422 164.391,316.241 164.095 C 317.101 163.783,318.825 162.582,320.345 161.237 C 321.787 159.962,323.448 158.620,324.038 158.256 C 324.628 157.891,325.200 157.312,325.309 156.968 C 325.418 156.624,326.280 155.630,327.224 154.758 C 329.204 152.931,330.740 151.031,331.571 149.382 C 331.891 148.747,332.787 147.614,333.560 146.865 C 334.405 146.047,335.063 145.058,335.207 144.392 C 335.516 142.966,336.605 140.808,337.018 140.808 C 337.715 140.808,339.005 138.168,339.787 135.141 C 340.369 132.892,340.957 131.469,341.776 130.329 C 344.002 127.230,344.106 126.314,344.106 109.646 C 344.106 92.385,343.952 91.059,341.635 88.255 C 340.861 87.318,340.256 86.190,340.142 85.467 C 339.506 81.470,338.882 79.986,337.183 78.441 C 336.407 77.734,335.879 76.825,335.512 75.562 C 334.921 73.532,334.129 72.255,332.491 70.696 C 331.898 70.131,331.123 69.014,330.769 68.214 C 330.116 66.739,329.308 65.849,327.740 64.878 C 327.264 64.583,326.772 63.925,326.646 63.415 C 326.304 62.022,325.593 61.089,324.209 60.216 C 323.307 59.646,322.850 59.054,322.558 58.080 C 322.320 57.285,321.433 55.952,320.397 54.829 C 319.430 53.783,318.100 52.081,317.441 51.048 C 316.782 50.015,315.707 48.761,315.052 48.261 C 314.395 47.760,313.499 46.589,313.054 45.649 C 312.534 44.550,311.815 43.667,311.029 43.160 C 310.242 42.652,309.519 41.763,308.986 40.647 C 308.481 39.589,307.701 38.607,306.974 38.113 C 306.258 37.626,305.446 36.611,304.927 35.553 C 304.454 34.589,303.317 33.016,302.401 32.057 C 301.484 31.099,300.274 29.499,299.711 28.502 C 299.148 27.504,298.297 26.486,297.818 26.239 C 296.612 25.615,295.948 24.783,295.470 23.295 C 295.172 22.366,294.678 21.786,293.646 21.151 C 292.571 20.489,292.059 19.866,291.511 18.553 C 291.052 17.456,290.314 16.450,289.486 15.794 C 288.769 15.226,287.827 14.060,287.393 13.203 C 285.081 8.640,281.159 6.872,275.720 7.941 M281.137 8.724 C 282.999 9.502,285.772 12.130,286.853 14.140 C 287.400 15.160,288.312 16.290,288.879 16.653 C 289.446 17.016,290.284 18.041,290.742 18.932 C 291.199 19.823,292.162 21.080,292.880 21.725 C 293.598 22.370,294.697 23.739,295.322 24.767 C 295.947 25.795,296.800 26.861,297.219 27.135 C 297.638 27.410,298.829 28.910,299.867 30.470 C 300.905 32.030,302.102 33.534,302.528 33.812 C 302.953 34.091,303.757 35.167,304.313 36.203 C 304.870 37.240,305.854 38.503,306.499 39.010 C 307.144 39.518,308.038 40.655,308.485 41.537 C 308.932 42.419,309.750 43.463,310.304 43.857 C 310.857 44.251,311.841 45.414,312.489 46.442 C 313.138 47.469,314.307 48.978,315.087 49.794 C 315.866 50.610,317.024 52.094,317.659 53.092 C 318.294 54.089,319.364 55.425,320.037 56.059 C 320.710 56.694,321.528 57.827,321.855 58.577 C 322.182 59.327,322.997 60.357,323.666 60.868 C 324.335 61.378,325.332 62.592,325.882 63.567 C 326.432 64.541,327.320 65.662,327.855 66.058 C 328.390 66.453,329.511 67.890,330.347 69.250 C 331.183 70.610,332.399 72.317,333.050 73.042 C 333.701 73.768,334.426 74.880,334.662 75.515 C 335.555 77.915,336.008 78.769,336.968 79.863 C 338.083 81.133,338.722 82.617,339.498 85.738 C 339.791 86.917,340.481 88.685,341.031 89.668 C 343.275 93.679,343.650 96.500,343.642 109.316 C 343.634 121.795,343.347 124.293,341.485 128.112 C 340.689 129.744,339.706 132.328,339.300 133.853 C 338.786 135.791,338.130 137.260,337.124 138.730 C 336.332 139.887,335.300 141.792,334.831 142.964 C 334.320 144.239,333.562 145.445,332.943 145.966 C 332.374 146.445,331.462 147.631,330.917 148.602 C 329.725 150.726,322.743 158.200,320.584 159.663 C 319.737 160.237,318.546 161.210,317.937 161.824 C 317.328 162.438,316.067 163.283,315.134 163.701 C 314.201 164.120,313.067 164.867,312.613 165.363 C 311.622 166.447,309.593 167.503,306.620 168.481 C 305.410 168.879,304.232 169.430,304.004 169.705 C 303.297 170.557,301.312 171.399,298.768 171.925 C 294.530 172.802,294.307 173.169,293.829 180.049 C 293.658 182.498,293.075 186.653,292.532 189.283 C 291.989 191.913,291.238 196.463,290.862 199.395 C 290.139 205.049,289.855 206.136,288.290 209.251 C 287.749 210.329,286.971 212.696,286.563 214.509 C 285.777 218.004,285.281 219.234,284.074 220.681 C 283.663 221.174,282.925 222.806,282.434 224.308 C 281.443 227.343,280.529 229.124,279.646 229.743 C 279.324 229.968,278.572 231.364,277.975 232.845 C 275.634 238.653,271.387 240.400,265.367 238.031 C 262.268 236.812,262.077 230.312,265.044 227.093 C 265.945 226.116,266.658 224.799,267.401 222.739 C 268.030 220.996,268.858 219.380,269.421 218.795 C 270.475 217.702,271.077 216.209,272.067 212.231 C 272.457 210.661,273.254 208.700,274.017 207.427 C 275.246 205.379,275.355 204.960,276.306 198.681 C 276.855 195.054,277.660 190.676,278.096 188.953 C 279.195 184.600,280.091 178.941,279.840 177.939 C 279.528 176.698,278.868 176.493,274.000 176.126 C 269.832 175.812,268.241 175.461,264.189 173.965 C 263.400 173.674,261.179 173.131,259.252 172.759 C 255.240 171.985,254.073 171.553,251.772 169.993 C 250.866 169.378,249.133 168.560,247.922 168.176 C 246.550 167.740,245.284 167.066,244.563 166.386 C 243.927 165.786,242.173 164.602,240.665 163.755 C 238.895 162.760,237.660 161.812,237.181 161.080 C 236.762 160.438,235.727 159.585,234.796 159.113 C 233.621 158.517,232.964 157.911,232.493 156.990 C 232.131 156.280,231.202 155.274,230.427 154.755 C 229.653 154.235,228.722 153.308,228.359 152.695 C 227.997 152.082,226.974 150.826,226.086 149.904 C 225.099 148.878,223.977 147.179,223.193 145.524 C 222.410 143.869,221.542 142.556,220.958 142.140 C 220.211 141.608,219.772 140.758,218.949 138.248 C 218.369 136.482,217.386 134.283,216.763 133.361 C 215.403 131.349,214.879 129.447,214.179 123.990 C 213.889 121.723,213.449 119.052,213.202 118.054 C 211.849 112.586,211.708 106.577,212.839 102.556 C 213.119 101.558,213.658 98.516,214.036 95.796 C 214.986 88.968,215.190 88.180,216.639 85.738 C 219.053 81.671,218.820 81.031,214.546 79.994 C 212.150 79.412,211.135 78.971,209.249 77.690 C 208.008 76.848,205.489 76.300,197.686 75.175 C 195.150 74.810,191.819 74.128,190.283 73.661 C 183.657 71.646,170.375 71.662,163.591 73.693 C 162.157 74.122,157.817 74.941,153.946 75.513 C 147.194 76.512,146.822 76.606,144.765 77.832 C 143.449 78.616,141.412 79.425,139.489 79.926 C 135.570 80.947,134.254 81.503,133.273 82.550 C 132.847 83.004,132.105 83.524,131.624 83.705 C 131.144 83.886,129.701 84.420,128.418 84.892 C 126.931 85.440,125.682 86.167,124.972 86.899 C 124.360 87.531,123.038 88.355,122.035 88.730 C 120.943 89.139,119.548 90.037,118.556 90.971 C 117.645 91.829,116.046 93.017,115.001 93.612 C 113.956 94.207,112.621 95.283,112.033 96.003 C 111.445 96.724,110.262 97.678,109.404 98.123 C 108.546 98.569,107.591 99.340,107.282 99.838 C 106.342 101.353,105.409 102.262,104.334 102.713 C 103.640 103.004,103.071 103.634,102.570 104.669 C 102.103 105.635,101.297 106.564,100.377 107.196 C 99.551 107.765,98.620 108.793,98.219 109.580 C 97.831 110.342,96.722 111.839,95.755 112.909 C 94.788 113.978,93.535 115.772,92.971 116.894 C 92.366 118.097,91.559 119.164,91.006 119.490 C 90.374 119.864,89.845 120.639,89.386 121.868 C 88.396 124.512,87.585 125.998,86.279 127.562 C 85.522 128.468,85.000 129.541,84.764 130.672 C 84.344 132.695,83.131 135.431,81.985 136.939 C 81.227 137.936,80.515 140.455,79.460 145.864 C 79.253 146.922,78.592 148.716,77.990 149.851 C 76.193 153.237,75.386 161.240,75.409 175.433 C 75.432 189.448,76.093 195.654,78.013 199.861 C 78.690 201.346,79.478 203.960,79.955 206.308 C 80.911 211.008,81.153 211.698,82.602 213.850 C 83.233 214.787,84.155 216.958,84.739 218.880 C 85.566 221.599,85.955 222.400,86.731 222.974 C 87.378 223.452,88.085 224.619,88.878 226.518 C 89.627 228.313,90.530 229.832,91.345 230.668 C 92.052 231.393,92.992 232.803,93.433 233.800 C 93.947 234.963,94.732 236.013,95.620 236.724 C 96.405 237.352,97.272 238.454,97.618 239.262 C 98.019 240.197,98.701 241.002,99.592 241.592 C 100.341 242.088,101.244 243.062,101.599 243.757 C 101.954 244.452,102.858 245.466,103.608 246.010 C 104.359 246.553,105.321 247.511,105.747 248.137 C 106.173 248.764,107.186 249.666,108.000 250.143 C 108.813 250.619,109.892 251.626,110.398 252.380 C 110.980 253.246,111.880 254.018,112.843 254.475 C 113.681 254.874,114.780 255.742,115.285 256.404 C 115.846 257.140,116.904 257.918,118.003 258.404 C 118.993 258.842,120.431 259.779,121.199 260.487 C 122.758 261.924,123.742 262.489,126.447 263.501 C 127.591 263.929,128.573 264.565,129.017 265.166 C 129.595 265.948,130.433 266.359,133.315 267.271 C 135.515 267.968,137.376 268.786,138.144 269.395 C 139.767 270.680,140.237 270.844,145.293 271.889 C 148.122 272.474,150.521 273.213,152.456 274.095 C 159.913 277.493,194.722 277.568,201.649 274.200 C 204.391 272.867,205.146 272.640,209.893 271.720 C 212.556 271.203,213.871 270.772,214.839 270.096 C 216.866 268.682,218.265 268.042,220.707 267.413 C 222.213 267.024,223.509 266.406,224.664 265.524 C 226.894 263.822,228.572 262.996,231.168 262.323 C 232.328 262.023,233.695 261.560,234.207 261.296 C 235.307 260.727,239.559 262.824,240.858 264.577 C 241.542 265.499,241.731 268.796,241.195 270.482 C 240.709 272.015,233.797 277.102,230.998 277.986 C 230.272 278.216,228.991 278.890,228.151 279.486 C 225.969 281.034,225.065 281.448,222.097 282.257 C 220.648 282.653,218.385 283.571,217.070 284.297 C 215.293 285.278,213.725 285.815,210.966 286.390 C 205.632 287.500,205.505 287.535,202.992 288.620 C 194.947 292.090,158.532 292.010,151.031 288.504 C 149.720 287.892,147.029 287.126,144.106 286.533 C 140.193 285.739,138.978 285.349,137.418 284.387 C 136.329 283.716,134.239 282.871,132.545 282.418 C 129.306 281.551,128.055 280.992,126.298 279.628 C 125.664 279.136,123.984 278.319,122.566 277.813 C 120.851 277.202,119.471 276.436,118.444 275.526 C 117.595 274.774,116.173 273.886,115.283 273.554 C 114.394 273.221,112.762 272.186,111.656 271.254 C 110.550 270.321,108.904 269.131,107.997 268.609 C 107.090 268.087,105.850 267.086,105.242 266.384 C 104.634 265.682,103.653 264.906,103.063 264.660 C 102.473 264.413,101.412 263.517,100.706 262.669 C 100.000 261.821,98.857 260.808,98.165 260.417 C 97.473 260.026,96.408 259.012,95.798 258.163 C 95.189 257.314,94.249 256.359,93.710 256.041 C 93.170 255.722,92.322 254.818,91.825 254.030 C 91.327 253.243,90.270 252.066,89.475 251.415 C 88.681 250.764,87.738 249.657,87.380 248.956 C 87.022 248.254,86.204 247.265,85.562 246.758 C 84.920 246.251,83.893 244.943,83.278 243.850 C 82.664 242.757,81.835 241.570,81.438 241.212 C 80.329 240.214,78.981 238.099,78.297 236.285 C 77.958 235.385,77.081 234.037,76.350 233.290 C 75.365 232.284,74.772 231.214,74.059 229.157 C 73.530 227.630,72.679 225.897,72.169 225.305 C 70.835 223.758,70.374 222.737,69.597 219.601 C 69.212 218.051,68.419 216.014,67.806 215.004 C 66.398 212.681,66.126 211.840,65.279 207.178 C 64.878 204.974,64.231 202.648,63.761 201.719 C 61.445 197.149,60.858 190.448,61.113 171.476 C 61.322 155.831,61.621 152.807,63.307 149.266 C 64.030 147.748,64.694 145.432,65.331 142.211 C 65.977 138.939,66.556 136.934,67.152 135.897 C 68.694 133.213,69.157 132.117,69.739 129.761 C 70.391 127.123,70.846 126.146,72.322 124.212 C 72.899 123.455,73.735 121.747,74.179 120.418 C 74.700 118.854,75.432 117.493,76.248 116.565 C 76.943 115.776,78.018 114.018,78.637 112.659 C 79.342 111.114,80.144 109.907,80.780 109.437 C 81.340 109.023,82.153 107.936,82.587 107.022 C 83.021 106.107,83.846 104.913,84.419 104.369 C 84.992 103.825,86.249 102.267,87.212 100.907 C 90.226 96.647,103.167 84.138,106.094 82.656 C 106.778 82.309,108.079 81.334,108.986 80.488 C 109.893 79.642,111.154 78.744,111.789 78.493 C 112.424 78.242,113.589 77.452,114.379 76.737 C 115.169 76.023,117.181 74.800,118.851 74.019 C 120.520 73.239,122.089 72.356,122.337 72.058 C 122.946 71.324,124.324 70.640,127.090 69.700 C 128.363 69.267,130.375 68.327,131.561 67.610 C 132.747 66.894,134.683 66.077,135.862 65.794 C 139.853 64.836,140.639 64.579,142.951 63.482 C 146.006 62.034,146.815 61.843,154.163 60.844 C 157.609 60.375,161.616 59.712,163.067 59.369 C 170.804 57.545,183.044 57.469,190.765 59.197 C 192.761 59.643,197.507 60.451,201.312 60.991 C 207.689 61.896,208.410 62.067,210.539 63.183 C 211.859 63.874,214.409 64.779,216.495 65.294 C 218.790 65.862,221.095 66.701,222.712 67.558 C 225.634 69.106,226.637 69.237,227.456 68.178 C 227.771 67.770,228.867 66.620,229.890 65.622 C 230.914 64.625,232.060 63.192,232.437 62.439 C 232.813 61.686,233.618 60.647,234.225 60.131 C 234.832 59.615,235.720 58.510,236.198 57.676 C 236.675 56.843,237.929 55.209,238.983 54.046 C 240.037 52.883,241.298 51.251,241.786 50.419 C 242.273 49.588,243.178 48.521,243.798 48.049 C 244.417 47.576,245.236 46.525,245.619 45.712 C 246.001 44.899,246.924 43.743,247.669 43.144 C 248.415 42.544,249.220 41.588,249.458 41.018 C 249.696 40.449,250.644 39.152,251.564 38.135 C 252.484 37.119,253.848 35.321,254.594 34.140 C 255.340 32.959,256.390 31.679,256.928 31.296 C 257.466 30.913,258.357 29.801,258.907 28.825 C 259.458 27.849,260.499 26.583,261.219 26.012 C 261.940 25.442,262.761 24.398,263.042 23.694 C 263.324 22.989,264.184 21.859,264.953 21.182 C 265.721 20.505,266.654 19.356,267.024 18.629 C 267.395 17.902,268.515 16.391,269.514 15.272 C 270.513 14.152,271.772 12.596,272.312 11.812 C 274.475 8.676,278.038 7.429,281.137 8.724 M275.813 29.449 C 274.514 30.774,273.146 32.456,272.774 33.186 C 272.401 33.916,271.565 34.919,270.916 35.414 C 270.266 35.909,269.372 37.030,268.929 37.904 C 268.486 38.778,267.505 39.984,266.748 40.583 C 265.992 41.182,265.159 42.184,264.898 42.809 C 264.637 43.434,263.722 44.705,262.866 45.633 C 262.009 46.561,260.896 47.964,260.392 48.751 C 259.887 49.537,258.678 51.048,257.703 52.108 C 256.729 53.168,255.627 54.630,255.256 55.358 C 254.885 56.085,254.050 57.086,253.401 57.581 C 252.752 58.076,251.862 59.189,251.423 60.055 C 250.985 60.920,250.025 62.111,249.289 62.702 C 248.554 63.293,247.677 64.377,247.341 65.112 C 247.005 65.846,246.140 67.058,245.419 67.804 C 244.698 68.550,243.472 70.108,242.695 71.266 C 241.918 72.424,240.652 73.987,239.881 74.738 C 239.110 75.489,238.186 76.767,237.828 77.577 C 237.470 78.387,236.656 79.446,236.021 79.931 C 235.158 80.589,234.592 81.500,233.787 83.522 C 233.194 85.013,232.126 87.061,231.415 88.074 C 229.715 90.492,226.903 103.659,226.886 109.282 C 226.867 115.161,229.841 129.149,231.514 131.055 C 232.032 131.644,233.071 133.555,233.823 135.301 C 234.799 137.568,235.496 138.708,236.261 139.292 C 236.850 139.741,237.712 140.912,238.177 141.894 C 238.752 143.108,239.399 143.901,240.202 144.374 C 240.851 144.757,241.865 145.759,242.455 146.600 C 243.126 147.556,244.116 148.428,245.096 148.927 C 245.958 149.365,246.991 150.223,247.391 150.835 C 247.931 151.658,248.842 152.271,250.907 153.201 C 252.440 153.891,254.312 154.991,255.067 155.644 C 256.210 156.634,257.125 157.012,260.536 157.905 C 262.790 158.495,265.560 159.340,266.693 159.784 C 272.664 162.121,284.490 162.204,290.167 159.949 C 291.151 159.558,293.893 158.713,296.259 158.072 C 300.954 156.800,301.898 156.408,302.876 155.328 C 303.233 154.934,304.602 154.113,305.920 153.504 C 307.284 152.874,309.062 151.697,310.052 150.770 C 311.007 149.875,312.418 148.750,313.188 148.270 C 313.957 147.790,314.947 146.828,315.387 146.130 C 315.827 145.433,316.775 144.397,317.493 143.829 C 318.211 143.260,319.429 141.734,320.199 140.437 C 320.969 139.141,322.079 137.544,322.665 136.888 C 323.980 135.417,324.399 134.632,325.031 132.456 C 325.303 131.518,326.135 129.732,326.880 128.487 C 331.151 121.343,331.096 96.913,326.793 90.190 C 326.097 89.101,325.351 87.544,325.136 86.729 C 324.575 84.598,323.606 82.840,321.955 80.956 C 321.160 80.049,320.338 78.739,320.128 78.043 C 319.880 77.221,319.241 76.365,318.299 75.593 C 317.502 74.940,316.493 73.700,316.056 72.837 C 315.619 71.975,314.746 70.877,314.117 70.397 C 313.488 69.917,312.608 68.906,312.162 68.151 C 311.715 67.395,310.360 65.590,309.149 64.139 C 307.938 62.688,306.758 61.046,306.525 60.490 C 306.293 59.934,305.507 59.008,304.779 58.431 C 304.050 57.854,303.145 56.723,302.767 55.919 C 302.388 55.114,301.465 53.964,300.716 53.362 C 299.966 52.760,299.010 51.599,298.593 50.783 C 298.175 49.967,297.285 48.780,296.616 48.145 C 295.947 47.510,294.798 46.101,294.062 45.012 C 293.326 43.924,292.040 42.292,291.204 41.385 C 290.367 40.478,289.420 39.143,289.098 38.417 C 288.775 37.690,288.003 36.765,287.378 36.357 C 286.755 35.949,285.887 34.911,285.450 34.049 C 285.013 33.187,284.008 31.869,283.218 31.119 C 282.427 30.370,281.374 29.146,280.877 28.399 C 279.503 26.333,278.707 26.498,275.813 29.449 M279.894 28.442 C 280.080 28.669,280.405 29.501,280.617 30.291 C 280.943 31.513,281.191 31.802,282.275 32.228 C 283.138 32.567,283.662 33.034,283.901 33.677 C 284.095 34.198,284.410 35.045,284.601 35.559 C 284.791 36.072,285.606 37.042,286.410 37.715 C 287.241 38.409,288.412 39.913,289.119 41.194 C 289.892 42.593,290.912 43.871,291.806 44.561 C 292.776 45.309,293.422 46.150,293.781 47.135 C 294.192 48.260,294.652 48.795,295.771 49.450 C 296.937 50.132,297.330 50.609,297.748 51.847 C 298.339 53.601,298.486 53.778,300.082 54.652 C 300.920 55.110,301.372 55.678,301.731 56.718 C 302.024 57.568,303.081 59.087,304.324 60.445 C 305.478 61.706,306.710 63.390,307.063 64.188 C 307.483 65.136,308.157 65.924,309.012 66.463 C 309.931 67.043,310.587 67.847,311.219 69.165 C 311.914 70.615,312.418 71.193,313.438 71.713 C 314.532 72.271,314.845 72.663,315.275 74.021 C 315.673 75.279,316.117 75.889,317.194 76.658 C 318.308 77.454,318.834 78.200,319.759 80.297 C 320.540 82.069,321.348 83.314,322.218 84.089 C 323.348 85.094,325.144 89.846,325.144 91.828 C 325.144 91.902,325.716 92.624,326.416 93.432 C 329.764 97.301,329.577 121.932,326.170 125.813 C 325.611 126.449,325.061 127.375,324.948 127.871 C 323.634 133.611,323.345 134.336,322.018 135.237 C 321.060 135.888,320.580 136.533,320.193 137.689 C 319.419 140.002,312.581 147.314,309.599 149.018 C 308.684 149.540,307.653 150.432,307.307 151.000 C 306.657 152.070,306.153 152.356,303.806 152.985 C 303.043 153.190,301.781 153.868,301.003 154.492 C 298.647 156.381,297.844 156.681,293.381 157.336 C 288.558 158.044,285.587 158.745,284.104 159.526 C 282.404 160.421,275.946 160.501,273.815 159.654 C 271.297 158.654,268.647 158.027,263.918 157.313 C 259.024 156.573,257.963 156.198,256.773 154.783 C 255.912 153.759,255.343 153.464,252.685 152.667 C 251.811 152.404,250.577 151.575,249.387 150.450 C 248.341 149.461,246.753 148.305,245.858 147.880 C 244.592 147.279,244.080 146.793,243.550 145.689 C 243.047 144.641,242.460 144.055,241.302 143.446 C 240.110 142.819,239.647 142.346,239.366 141.467 C 238.877 139.938,236.902 136.945,236.097 136.515 C 235.261 136.067,234.628 134.792,234.172 132.637 C 233.783 130.798,233.249 129.776,231.768 128.034 C 227.933 123.524,228.501 93.974,232.502 89.841 C 233.156 89.164,233.698 88.037,234.146 86.420 C 235.013 83.292,235.491 82.408,236.898 81.336 C 237.713 80.713,238.270 79.865,238.781 78.462 C 239.363 76.865,239.709 76.387,240.528 76.044 C 241.799 75.513,242.399 74.807,243.038 73.090 C 243.361 72.222,243.986 71.444,244.807 70.887 C 245.540 70.389,246.533 69.219,247.157 68.118 C 247.751 67.069,248.999 65.440,249.930 64.498 C 250.960 63.454,251.861 62.146,252.233 61.153 C 252.709 59.881,253.125 59.372,254.121 58.840 C 255.384 58.167,255.801 57.595,256.581 55.462 C 256.849 54.729,257.371 54.187,258.169 53.813 C 259.058 53.396,259.577 52.800,260.233 51.443 C 260.751 50.371,261.606 49.264,262.324 48.736 C 263.461 47.900,265.489 44.988,265.954 43.523 C 266.068 43.164,266.809 42.425,267.600 41.880 C 268.704 41.121,269.186 40.488,269.673 39.159 C 270.141 37.883,270.579 37.288,271.341 36.894 C 272.971 36.053,273.300 35.670,273.872 33.948 C 274.298 32.666,274.676 32.182,275.701 31.606 C 276.411 31.207,277.074 30.622,277.174 30.306 C 277.712 28.613,279.199 27.593,279.894 28.442 M158.553 122.476 C 160.623 123.038,161.800 123.735,162.833 125.010 C 163.249 125.523,164.323 126.342,165.222 126.831 C 166.550 127.554,167.078 128.126,168.049 129.895 C 168.706 131.091,169.737 132.617,170.341 133.286 C 174.315 137.692,173.999 151.195,169.774 157.551 C 168.806 159.008,167.769 160.646,167.470 161.190 C 167.171 161.734,166.058 162.728,164.996 163.400 C 163.935 164.071,162.622 165.042,162.077 165.558 C 157.950 169.470,145.014 169.485,141.004 165.582 C 140.262 164.859,138.986 163.921,138.170 163.498 C 137.100 162.943,136.449 162.290,135.835 161.155 C 135.368 160.290,134.447 159.031,133.791 158.357 C 129.316 153.764,129.141 135.046,133.543 131.912 C 134.032 131.563,134.902 130.399,135.474 129.324 C 136.231 127.904,136.809 127.248,137.590 126.925 C 138.181 126.681,139.507 125.706,140.537 124.760 C 142.399 123.049,143.349 122.625,146.744 121.990 C 148.846 121.596,156.469 121.910,158.553 122.476 M199.391 126.900 C 203.088 128.786,204.066 134.259,201.421 138.249 C 200.183 140.117,199.077 142.822,198.698 144.915 C 198.420 146.442,197.424 148.508,196.336 149.809 C 195.913 150.316,195.399 151.354,195.195 152.117 C 193.978 156.672,193.177 158.899,192.554 159.463 C 191.535 160.386,191.106 161.367,190.151 164.967 C 189.561 167.187,188.881 168.823,187.957 170.243 C 187.221 171.374,186.402 173.079,186.137 174.031 C 185.872 174.984,185.433 176.565,185.161 177.545 C 184.883 178.546,184.162 179.931,183.518 180.702 C 182.887 181.457,182.213 182.695,182.020 183.453 C 180.990 187.505,180.192 189.633,179.072 191.316 C 178.315 192.453,177.547 194.227,177.110 195.846 C 176.211 199.180,175.605 200.636,174.423 202.308 C 173.910 203.034,173.113 204.986,172.652 206.646 C 171.525 210.701,171.346 211.126,170.217 212.412 C 169.621 213.091,168.966 214.478,168.525 215.993 C 168.129 217.354,167.721 218.757,167.619 219.111 C 167.335 220.088,162.731 224.515,161.739 224.764 C 153.600 226.806,149.846 216.463,155.721 208.184 C 156.225 207.474,156.915 205.731,157.291 204.220 C 158.037 201.224,158.873 199.244,160.105 197.559 C 160.556 196.943,161.083 195.830,161.277 195.086 C 162.385 190.828,163.019 189.173,163.942 188.121 C 164.917 187.011,165.877 184.521,166.573 181.297 C 166.758 180.441,167.570 178.736,168.377 177.506 C 169.184 176.277,169.989 174.677,170.164 173.951 C 170.924 170.810,171.875 168.179,172.622 167.146 C 173.979 165.271,174.330 164.478,174.938 161.913 C 175.581 159.202,176.039 158.149,177.382 156.295 C 177.872 155.619,178.542 154.120,178.871 152.965 C 180.144 148.496,180.466 147.699,181.860 145.576 C 182.666 144.349,183.397 142.781,183.522 142.014 C 183.911 139.621,185.010 136.727,186.007 135.470 C 186.538 134.802,187.442 132.954,188.018 131.364 C 188.593 129.773,189.412 128.150,189.837 127.756 C 191.741 125.992,196.734 125.544,199.391 126.900 M149.239 137.375 C 145.702 138.339,144.421 144.071,146.429 149.953 L 147.130 152.009 149.432 152.694 L 151.734 153.380 153.773 152.612 C 156.440 151.608,157.390 149.941,157.578 145.936 C 157.826 140.654,156.915 138.547,153.950 137.546 C 151.637 136.765,151.501 136.760,149.239 137.375 M208.011 184.025 C 210.156 184.387,211.950 185.208,212.389 186.029 C 212.571 186.368,213.449 187.015,214.340 187.467 C 215.232 187.919,216.376 188.824,216.884 189.479 C 217.392 190.134,218.442 191.276,219.217 192.017 C 220.258 193.010,220.764 193.845,221.148 195.198 C 221.434 196.207,222.166 197.774,222.775 198.681 C 225.170 202.247,225.323 211.932,223.033 214.935 C 222.553 215.564,221.740 217.209,221.227 218.591 C 220.116 221.581,214.712 227.151,211.161 228.966 C 207.183 231.000,194.748 230.354,192.561 227.999 C 192.118 227.523,190.998 226.645,190.071 226.049 C 189.145 225.453,188.043 224.467,187.622 223.859 C 187.202 223.251,186.236 222.144,185.476 221.400 C 184.427 220.372,183.995 219.620,183.677 218.267 C 183.447 217.289,182.768 215.523,182.168 214.345 C 180.000 210.087,179.760 205.244,181.512 201.154 C 182.017 199.975,182.862 197.824,183.390 196.373 C 184.082 194.472,184.694 193.414,185.580 192.588 C 186.256 191.957,187.220 190.798,187.723 190.011 C 188.333 189.055,189.103 188.374,190.046 187.957 C 190.822 187.613,192.057 186.745,192.790 186.026 C 195.165 183.698,201.292 182.893,208.011 184.025 M199.618 199.332 C 199.237 199.599,198.674 200.445,198.367 201.211 C 198.060 201.978,197.375 203.100,196.844 203.705 C 195.559 205.168,195.405 208.876,196.585 209.924 C 196.974 210.270,197.637 211.325,198.059 212.270 C 199.654 215.845,205.100 216.141,206.911 212.752 C 207.170 212.268,207.835 211.352,208.389 210.717 C 209.921 208.963,209.915 204.736,208.379 203.277 C 207.818 202.744,207.078 201.762,206.734 201.094 C 205.606 198.900,201.637 197.917,199.618 199.332 M258.325 246.621 C 263.442 251.429,258.721 261.253,252.442 258.866 C 251.035 258.331,247.650 254.037,247.650 252.788 C 247.650 251.611,250.274 246.688,251.169 246.187 C 252.701 245.329,257.243 245.604,258.325 246.621 " stroke="none" fill="#92dcf4" fill-rule="evenodd"></path><path id="path2" d="M0.000 164.880 L 0.000 329.761 200.000 329.761 L 400.000 329.761 400.000 164.880 L 400.000 0.000 200.000 0.000 L 0.000 0.000 0.000 164.880 M281.920 8.102 C 283.960 8.708,286.149 10.748,287.393 13.203 C 287.827 14.060,288.769 15.226,289.486 15.794 C 290.314 16.450,291.052 17.456,291.511 18.553 C 292.059 19.866,292.571 20.489,293.646 21.151 C 294.678 21.786,295.172 22.366,295.470 23.295 C 295.948 24.783,296.612 25.615,297.818 26.239 C 298.297 26.486,299.148 27.504,299.711 28.502 C 300.274 29.499,301.484 31.099,302.401 32.057 C 303.317 33.016,304.454 34.589,304.927 35.553 C 305.446 36.611,306.258 37.626,306.974 38.113 C 307.701 38.607,308.481 39.589,308.986 40.647 C 309.519 41.763,310.242 42.652,311.029 43.160 C 311.815 43.667,312.534 44.550,313.054 45.649 C 313.499 46.589,314.395 47.760,315.052 48.261 C 315.707 48.761,316.782 50.015,317.441 51.048 C 318.100 52.081,319.430 53.783,320.397 54.829 C 321.433 55.952,322.320 57.285,322.558 58.080 C 322.850 59.054,323.307 59.646,324.209 60.216 C 325.593 61.089,326.304 62.022,326.646 63.415 C 326.772 63.925,327.264 64.583,327.740 64.878 C 329.308 65.849,330.116 66.739,330.769 68.214 C 331.123 69.014,331.898 70.131,332.491 70.696 C 334.129 72.255,334.921 73.532,335.512 75.562 C 335.879 76.825,336.407 77.734,337.183 78.441 C 338.882 79.986,339.506 81.470,340.142 85.467 C 340.256 86.190,340.861 87.318,341.635 88.255 C 343.952 91.059,344.106 92.385,344.106 109.646 C 344.106 126.314,344.002 127.230,341.776 130.329 C 340.957 131.469,340.369 132.892,339.787 135.141 C 339.005 138.168,337.715 140.808,337.018 140.808 C 336.605 140.808,335.516 142.966,335.207 144.392 C 335.063 145.058,334.405 146.047,333.560 146.865 C 332.787 147.614,331.891 148.747,331.571 149.382 C 330.740 151.031,329.204 152.931,327.224 154.758 C 326.280 155.630,325.418 156.624,325.309 156.968 C 325.200 157.312,324.628 157.891,324.038 158.256 C 323.448 158.620,321.787 159.962,320.345 161.237 C 318.825 162.582,317.101 163.783,316.241 164.095 C 315.422 164.391,314.239 165.197,313.603 165.891 C 312.454 167.145,310.531 168.155,307.999 168.837 C 307.267 169.034,306.189 169.613,305.602 170.125 C 303.941 171.571,302.668 172.091,299.578 172.586 C 295.412 173.253,295.505 173.095,295.120 180.181 C 294.782 186.380,294.147 190.308,293.169 192.234 C 292.414 193.721,291.947 196.085,291.505 200.660 C 290.955 206.355,290.324 208.842,288.982 210.600 C 288.093 211.765,287.711 212.707,287.349 214.634 C 286.616 218.534,285.911 220.631,285.045 221.498 C 283.948 222.594,283.084 224.386,282.441 226.895 C 282.033 228.490,281.581 229.347,280.625 230.338 C 279.924 231.063,279.033 232.473,278.644 233.471 C 277.097 237.438,277.154 237.375,273.538 239.107 C 270.296 240.659,270.116 240.705,268.018 240.509 C 263.280 240.066,259.989 245.077,261.149 250.969 C 262.507 257.876,257.359 261.848,250.126 259.474 C 245.540 257.969,242.734 260.982,242.712 267.436 C 242.701 270.535,242.103 271.796,239.901 273.366 C 238.994 274.012,237.578 275.211,236.754 276.029 C 235.527 277.247,234.794 277.652,232.715 278.256 C 230.758 278.824,229.936 279.256,229.137 280.134 C 228.007 281.375,225.693 282.379,223.083 282.760 C 221.151 283.041,220.551 283.326,218.861 284.764 C 217.503 285.920,215.362 286.578,210.882 287.215 C 208.944 287.490,207.456 287.977,205.276 289.047 C 200.502 291.392,188.767 292.158,167.308 291.527 C 153.259 291.114,151.237 290.795,148.392 288.546 C 147.822 288.094,146.279 287.686,143.379 287.219 C 138.566 286.444,136.706 285.864,135.536 284.776 C 134.356 283.678,133.722 283.412,130.750 282.764 C 127.695 282.099,127.243 281.897,125.509 280.421 C 124.763 279.786,122.996 278.888,121.293 278.279 C 118.895 277.421,118.179 277.000,117.355 275.960 C 116.802 275.261,115.954 274.594,115.470 274.478 C 113.671 274.044,110.886 272.393,110.003 271.236 C 109.475 270.543,108.307 269.665,107.228 269.150 C 106.048 268.587,105.083 267.837,104.598 267.106 C 104.145 266.425,103.130 265.606,102.121 265.107 C 100.930 264.517,100.196 263.876,99.698 262.990 C 99.231 262.159,98.488 261.481,97.554 261.032 C 96.614 260.581,95.792 259.827,95.150 258.828 C 94.613 257.993,93.649 257.029,93.006 256.685 C 92.259 256.285,91.541 255.490,91.014 254.479 C 90.469 253.433,89.724 252.623,88.814 252.085 C 87.789 251.479,87.294 250.891,86.869 249.780 C 86.471 248.736,85.893 248.015,84.950 247.381 C 84.026 246.761,83.320 245.892,82.715 244.630 C 82.229 243.615,81.375 242.460,80.818 242.063 C 79.629 241.217,78.448 239.266,77.678 236.877 C 77.321 235.769,76.818 234.970,76.239 234.594 C 74.943 233.750,74.643 233.257,73.670 230.374 C 73.142 228.808,72.369 227.299,71.728 226.582 C 70.301 224.985,70.126 224.599,69.095 220.775 C 68.525 218.662,67.926 217.181,67.427 216.653 C 66.219 215.376,65.365 213.109,65.003 210.218 C 64.475 206.012,64.012 204.399,62.825 202.638 C 60.805 199.640,60.368 194.764,60.359 175.103 C 60.350 155.168,60.809 150.199,62.982 146.744 C 64.074 145.006,64.476 143.622,64.971 139.885 C 65.422 136.480,66.027 134.729,67.298 133.143 C 68.287 131.910,69.250 129.681,69.250 128.625 C 69.250 126.995,70.380 124.460,71.721 123.080 C 72.652 122.121,73.222 121.197,73.364 120.411 C 73.720 118.449,75.003 116.003,76.432 114.563 C 77.278 113.710,77.912 112.681,78.158 111.760 C 78.420 110.782,79.017 109.854,79.977 108.931 C 80.763 108.175,81.796 106.733,82.272 105.726 C 82.748 104.720,83.791 103.224,84.590 102.402 C 85.389 101.579,86.635 100.035,87.358 98.970 C 88.081 97.906,89.179 96.736,89.798 96.371 C 90.416 96.006,91.280 95.059,91.716 94.268 C 92.199 93.394,93.144 92.414,94.127 91.771 C 95.016 91.189,96.035 90.204,96.391 89.580 C 96.747 88.957,97.613 88.125,98.315 87.730 C 99.018 87.335,100.148 86.344,100.827 85.527 C 101.506 84.711,103.100 83.392,104.369 82.597 C 105.639 81.801,107.367 80.498,108.210 79.700 C 109.215 78.748,110.249 78.121,111.212 77.879 C 112.357 77.590,112.869 77.224,113.538 76.213 C 114.242 75.150,114.880 74.720,117.096 73.815 C 118.581 73.208,120.428 72.156,121.200 71.477 C 122.207 70.592,123.479 69.956,125.688 69.236 C 127.438 68.666,129.308 67.802,130.012 67.238 C 131.607 65.961,132.886 65.438,135.534 64.981 C 136.712 64.778,138.089 64.529,138.595 64.428 C 139.101 64.328,140.206 63.717,141.052 63.072 C 143.013 61.575,144.594 61.176,151.789 60.363 C 156.485 59.832,158.129 59.507,160.088 58.723 C 166.764 56.050,187.772 56.025,194.408 58.682 C 196.618 59.567,198.974 59.978,206.925 60.866 C 209.268 61.128,211.572 61.924,212.676 62.853 C 213.871 63.859,215.491 64.433,218.619 64.961 C 221.281 65.410,223.490 66.235,224.811 67.274 C 226.019 68.225,226.625 68.088,227.370 66.699 C 227.758 65.976,228.590 65.159,229.387 64.720 C 230.409 64.158,230.907 63.585,231.399 62.407 C 231.759 61.545,232.962 59.840,234.073 58.617 C 235.184 57.394,236.383 55.825,236.737 55.131 C 237.092 54.437,238.062 53.311,238.895 52.628 C 239.730 51.944,240.738 50.699,241.144 49.851 C 241.618 48.861,242.378 47.983,243.281 47.383 C 244.052 46.872,244.683 46.287,244.683 46.084 C 244.683 45.106,246.161 42.824,247.217 42.172 C 247.860 41.774,248.596 40.947,248.852 40.333 C 249.478 38.835,251.533 36.007,252.291 35.602 C 252.626 35.422,253.463 34.321,254.150 33.155 C 254.844 31.977,255.913 30.694,256.554 30.271 C 257.265 29.800,258.028 28.838,258.542 27.761 C 259.135 26.522,259.745 25.805,260.646 25.291 C 261.634 24.728,262.056 24.186,262.550 22.849 C 262.979 21.691,263.600 20.803,264.458 20.124 C 265.157 19.570,266.210 18.265,266.796 17.225 C 267.383 16.185,268.667 14.528,269.651 13.543 C 270.635 12.558,271.729 11.188,272.081 10.498 C 273.404 7.904,277.717 6.854,281.920 8.102 M278.026 28.881 C 277.658 29.350,277.274 29.991,277.174 30.306 C 277.074 30.622,276.411 31.207,275.701 31.606 C 274.676 32.182,274.298 32.666,273.872 33.948 C 273.300 35.670,272.971 36.053,271.341 36.894 C 270.579 37.288,270.141 37.883,269.673 39.159 C 269.186 40.488,268.704 41.121,267.600 41.880 C 266.809 42.425,266.068 43.164,265.954 43.523 C 265.489 44.988,263.461 47.900,262.324 48.736 C 261.606 49.264,260.751 50.371,260.233 51.443 C 259.577 52.800,259.058 53.396,258.169 53.813 C 257.371 54.187,256.849 54.729,256.581 55.462 C 255.801 57.595,255.384 58.167,254.121 58.840 C 253.125 59.372,252.709 59.881,252.233 61.153 C 251.861 62.146,250.960 63.454,249.930 64.498 C 248.999 65.440,247.751 67.069,247.157 68.118 C 246.533 69.219,245.540 70.389,244.807 70.887 C 243.986 71.444,243.361 72.222,243.038 73.090 C 242.399 74.807,241.799 75.513,240.528 76.044 C 239.709 76.387,239.363 76.865,238.781 78.462 C 238.270 79.865,237.713 80.713,236.898 81.336 C 235.491 82.408,235.013 83.292,234.146 86.420 C 233.698 88.037,233.156 89.164,232.502 89.841 C 228.501 93.974,227.933 123.524,231.768 128.034 C 233.249 129.776,233.783 130.798,234.172 132.637 C 234.628 134.792,235.261 136.067,236.097 136.515 C 236.902 136.945,238.877 139.938,239.366 141.467 C 239.647 142.346,240.110 142.819,241.302 143.446 C 242.460 144.055,243.047 144.641,243.550 145.689 C 244.080 146.793,244.592 147.279,245.858 147.880 C 246.753 148.305,248.341 149.461,249.387 150.450 C 250.577 151.575,251.811 152.404,252.685 152.667 C 255.343 153.464,255.912 153.759,256.773 154.783 C 257.963 156.198,259.024 156.573,263.918 157.313 C 268.647 158.027,271.297 158.654,273.815 159.654 C 275.946 160.501,282.404 160.421,284.104 159.526 C 285.587 158.745,288.558 158.044,293.381 157.336 C 297.844 156.681,298.647 156.381,301.003 154.492 C 301.781 153.868,303.043 153.190,303.806 152.985 C 306.153 152.356,306.657 152.070,307.307 151.000 C 307.653 150.432,308.684 149.540,309.599 149.018 C 312.581 147.314,319.419 140.002,320.193 137.689 C 320.580 136.533,321.060 135.888,322.018 135.237 C 323.345 134.336,323.634 133.611,324.948 127.871 C 325.061 127.375,325.611 126.449,326.170 125.813 C 329.577 121.932,329.764 97.301,326.416 93.432 C 325.716 92.624,325.144 91.902,325.144 91.828 C 325.144 89.846,323.348 85.094,322.218 84.089 C 321.348 83.314,320.540 82.069,319.759 80.297 C 318.834 78.200,318.308 77.454,317.194 76.658 C 316.117 75.889,315.673 75.279,315.275 74.021 C 314.845 72.663,314.532 72.271,313.438 71.713 C 312.418 71.193,311.914 70.615,311.219 69.165 C 310.587 67.847,309.931 67.043,309.012 66.463 C 308.157 65.924,307.483 65.136,307.063 64.188 C 306.710 63.390,305.478 61.706,304.324 60.445 C 303.081 59.087,302.024 57.568,301.731 56.718 C 301.372 55.678,300.920 55.110,300.082 54.652 C 298.486 53.778,298.339 53.601,297.748 51.847 C 297.330 50.609,296.937 50.132,295.771 49.450 C 294.652 48.795,294.192 48.260,293.781 47.135 C 293.422 46.150,292.776 45.309,291.806 44.561 C 290.912 43.871,289.892 42.593,289.119 41.194 C 288.412 39.913,287.241 38.409,286.410 37.715 C 285.606 37.042,284.791 36.072,284.601 35.559 C 284.410 35.045,284.095 34.198,283.901 33.677 C 283.662 33.034,283.138 32.567,282.275 32.228 C 281.191 31.802,280.943 31.513,280.617 30.291 C 279.961 27.839,279.180 27.414,278.026 28.881 " stroke="none" fill="#f8fbfb" fill-rule="evenodd"></path><path id="path3" d="M276.257 8.710 C 274.472 9.190,273.705 9.794,272.312 11.812 C 271.772 12.596,270.513 14.152,269.514 15.272 C 268.515 16.391,267.395 17.902,267.024 18.629 C 266.654 19.356,265.721 20.505,264.953 21.182 C 264.184 21.859,263.324 22.989,263.042 23.694 C 262.761 24.398,261.940 25.442,261.219 26.012 C 260.499 26.583,259.458 27.849,258.907 28.825 C 258.357 29.801,257.466 30.913,256.928 31.296 C 256.390 31.679,255.340 32.959,254.594 34.140 C 253.848 35.321,252.484 37.119,251.564 38.135 C 250.644 39.152,249.696 40.449,249.458 41.018 C 249.220 41.588,248.415 42.544,247.669 43.144 C 246.924 43.743,246.001 44.899,245.619 45.712 C 245.236 46.525,244.417 47.576,243.798 48.049 C 243.178 48.521,242.273 49.588,241.786 50.419 C 241.298 51.251,240.037 52.883,238.983 54.046 C 237.929 55.209,236.675 56.843,236.198 57.676 C 235.720 58.510,234.832 59.615,234.225 60.131 C 233.618 60.647,232.813 61.686,232.437 62.439 C 232.060 63.192,230.914 64.625,229.890 65.622 C 228.867 66.620,227.771 67.770,227.456 68.178 C 226.637 69.237,225.634 69.106,222.712 67.558 C 221.095 66.701,218.790 65.862,216.495 65.294 C 214.409 64.779,211.859 63.874,210.539 63.183 C 208.410 62.067,207.689 61.896,201.312 60.991 C 197.507 60.451,192.761 59.643,190.765 59.197 C 183.044 57.469,170.804 57.545,163.067 59.369 C 161.616 59.712,157.609 60.375,154.163 60.844 C 146.815 61.843,146.006 62.034,142.951 63.482 C 140.639 64.579,139.853 64.836,135.862 65.794 C 134.683 66.077,132.747 66.894,131.561 67.610 C 130.375 68.327,128.363 69.267,127.090 69.700 C 124.324 70.640,122.946 71.324,122.337 72.058 C 122.089 72.356,120.520 73.239,118.851 74.019 C 117.181 74.800,115.169 76.023,114.379 76.737 C 113.589 77.452,112.424 78.242,111.789 78.493 C 111.154 78.744,109.893 79.642,108.986 80.488 C 108.079 81.334,106.778 82.309,106.094 82.656 C 103.167 84.138,90.226 96.647,87.212 100.907 C 86.249 102.267,84.992 103.825,84.419 104.369 C 83.846 104.913,83.021 106.107,82.587 107.022 C 82.153 107.936,81.340 109.023,80.780 109.437 C 80.144 109.907,79.342 111.114,78.637 112.659 C 78.018 114.018,76.943 115.776,76.248 116.565 C 75.432 117.493,74.700 118.854,74.179 120.418 C 73.735 121.747,72.899 123.455,72.322 124.212 C 70.846 126.146,70.391 127.123,69.739 129.761 C 69.157 132.117,68.694 133.213,67.152 135.897 C 66.556 136.934,65.977 138.939,65.331 142.211 C 64.694 145.432,64.030 147.748,63.307 149.266 C 61.621 152.807,61.322 155.831,61.113 171.476 C 60.858 190.448,61.445 197.149,63.761 201.719 C 64.231 202.648,64.878 204.974,65.279 207.178 C 66.126 211.840,66.398 212.681,67.806 215.004 C 68.419 216.014,69.212 218.051,69.597 219.601 C 70.374 222.737,70.835 223.758,72.169 225.305 C 72.679 225.897,73.530 227.630,74.059 229.157 C 74.772 231.214,75.365 232.284,76.350 233.290 C 77.081 234.037,77.958 235.385,78.297 236.285 C 78.981 238.099,80.329 240.214,81.438 241.212 C 81.835 241.570,82.664 242.757,83.278 243.850 C 83.893 244.943,84.920 246.251,85.562 246.758 C 86.204 247.265,87.022 248.254,87.380 248.956 C 87.738 249.657,88.681 250.764,89.475 251.415 C 90.270 252.066,91.327 253.243,91.825 254.030 C 92.322 254.818,93.170 255.722,93.710 256.041 C 94.249 256.359,95.189 257.314,95.798 258.163 C 96.408 259.012,97.473 260.026,98.165 260.417 C 98.857 260.808,100.000 261.821,100.706 262.669 C 101.412 263.517,102.473 264.413,103.063 264.660 C 103.653 264.906,104.634 265.682,105.242 266.384 C 105.850 267.086,107.090 268.087,107.997 268.609 C 108.904 269.131,110.550 270.321,111.656 271.254 C 112.762 272.186,114.394 273.221,115.283 273.554 C 116.173 273.886,117.595 274.774,118.444 275.526 C 119.471 276.436,120.851 277.202,122.566 277.813 C 123.984 278.319,125.664 279.136,126.298 279.628 C 128.055 280.992,129.306 281.551,132.545 282.418 C 134.239 282.871,136.329 283.716,137.418 284.387 C 138.978 285.349,140.193 285.739,144.106 286.533 C 147.029 287.126,149.720 287.892,151.031 288.504 C 158.532 292.010,194.947 292.090,202.992 288.620 C 205.505 287.535,205.632 287.500,210.966 286.390 C 213.725 285.815,215.293 285.278,217.070 284.297 C 218.385 283.571,220.648 282.653,222.097 282.257 C 225.065 281.448,225.969 281.034,228.151 279.486 C 228.991 278.890,230.272 278.216,230.998 277.986 C 233.797 277.102,240.709 272.015,241.195 270.482 C 241.731 268.796,241.542 265.499,240.858 264.577 C 239.559 262.824,235.307 260.727,234.207 261.296 C 233.695 261.560,232.328 262.023,231.168 262.323 C 228.572 262.996,226.894 263.822,224.664 265.524 C 223.509 266.406,222.213 267.024,220.707 267.413 C 218.265 268.042,216.866 268.682,214.839 270.096 C 213.871 270.772,212.556 271.203,209.893 271.720 C 205.146 272.640,204.391 272.867,201.649 274.200 C 194.722 277.568,159.913 277.493,152.456 274.095 C 150.521 273.213,148.122 272.474,145.293 271.889 C 140.237 270.844,139.767 270.680,138.144 269.395 C 137.376 268.786,135.515 267.968,133.315 267.271 C 130.433 266.359,129.595 265.948,129.017 265.166 C 128.573 264.565,127.591 263.929,126.447 263.501 C 123.742 262.489,122.758 261.924,121.199 260.487 C 120.431 259.779,118.993 258.842,118.003 258.404 C 116.904 257.918,115.846 257.140,115.285 256.404 C 114.780 255.742,113.681 254.874,112.843 254.475 C 111.880 254.018,110.980 253.246,110.398 252.380 C 109.892 251.626,108.813 250.619,108.000 250.143 C 107.186 249.666,106.173 248.764,105.747 248.137 C 105.321 247.511,104.359 246.553,103.608 246.010 C 102.858 245.466,101.954 244.452,101.599 243.757 C 101.244 243.062,100.341 242.088,99.592 241.592 C 98.701 241.002,98.019 240.197,97.618 239.262 C 97.272 238.454,96.405 237.352,95.620 236.724 C 94.732 236.013,93.947 234.963,93.433 233.800 C 92.992 232.803,92.052 231.393,91.345 230.668 C 90.530 229.832,89.627 228.313,88.878 226.518 C 88.085 224.619,87.378 223.452,86.731 222.974 C 85.955 222.400,85.566 221.599,84.739 218.880 C 84.155 216.958,83.233 214.787,82.602 213.850 C 81.153 211.698,80.911 211.008,79.955 206.308 C 79.478 203.960,78.690 201.346,78.013 199.861 C 76.093 195.654,75.432 189.448,75.409 175.433 C 75.386 161.240,76.193 153.237,77.990 149.851 C 78.592 148.716,79.253 146.922,79.460 145.864 C 80.515 140.455,81.227 137.936,81.985 136.939 C 83.131 135.431,84.344 132.695,84.764 130.672 C 85.000 129.541,85.522 128.468,86.279 127.562 C 87.585 125.998,88.396 124.512,89.386 121.868 C 89.845 120.639,90.374 119.864,91.006 119.490 C 91.559 119.164,92.366 118.097,92.971 116.894 C 93.535 115.772,94.788 113.978,95.755 112.909 C 96.722 111.839,97.831 110.342,98.219 109.580 C 98.620 108.793,99.551 107.765,100.377 107.196 C 101.297 106.564,102.103 105.635,102.570 104.669 C 103.071 103.634,103.640 103.004,104.334 102.713 C 105.409 102.262,106.342 101.353,107.282 99.838 C 107.591 99.340,108.546 98.569,109.404 98.123 C 110.262 97.678,111.445 96.724,112.033 96.003 C 112.621 95.283,113.956 94.207,115.001 93.612 C 116.046 93.017,117.645 91.829,118.556 90.971 C 119.548 90.037,120.943 89.139,122.035 88.730 C 123.038 88.355,124.360 87.531,124.972 86.899 C 125.682 86.167,126.931 85.440,128.418 84.892 C 129.701 84.420,131.144 83.886,131.624 83.705 C 132.105 83.524,132.847 83.004,133.273 82.550 C 134.254 81.503,135.570 80.947,139.489 79.926 C 141.412 79.425,143.449 78.616,144.765 77.832 C 146.822 76.606,147.194 76.512,153.946 75.513 C 157.817 74.941,162.157 74.122,163.591 73.693 C 170.375 71.662,183.657 71.646,190.283 73.661 C 191.819 74.128,195.150 74.810,197.686 75.175 C 205.489 76.300,208.008 76.848,209.249 77.690 C 211.135 78.971,212.150 79.412,214.546 79.994 C 218.820 81.031,219.053 81.671,216.639 85.738 C 215.190 88.180,214.986 88.968,214.036 95.796 C 213.658 98.516,213.119 101.558,212.839 102.556 C 211.708 106.577,211.849 112.586,213.202 118.054 C 213.449 119.052,213.889 121.723,214.179 123.990 C 214.879 129.447,215.403 131.349,216.763 133.361 C 217.386 134.283,218.369 136.482,218.949 138.248 C 219.772 140.758,220.211 141.608,220.958 142.140 C 221.542 142.556,222.410 143.869,223.193 145.524 C 223.977 147.179,225.099 148.878,226.086 149.904 C 226.974 150.826,227.997 152.082,228.359 152.695 C 228.722 153.308,229.653 154.235,230.427 154.755 C 231.202 155.274,232.131 156.280,232.493 156.990 C 232.964 157.911,233.621 158.517,234.796 159.113 C 235.727 159.585,236.762 160.438,237.181 161.080 C 237.660 161.812,238.895 162.760,240.665 163.755 C 242.173 164.602,243.927 165.786,244.563 166.386 C 245.284 167.066,246.550 167.740,247.922 168.176 C 249.133 168.560,250.866 169.378,251.772 169.993 C 254.073 171.553,255.240 171.985,259.252 172.759 C 261.179 173.131,263.400 173.674,264.189 173.965 C 268.241 175.461,269.832 175.812,274.000 176.126 C 278.868 176.493,279.528 176.698,279.840 177.939 C 280.091 178.941,279.195 184.600,278.096 188.953 C 277.660 190.676,276.855 195.054,276.306 198.681 C 275.355 204.960,275.246 205.379,274.017 207.427 C 273.254 208.700,272.457 210.661,272.067 212.231 C 271.077 216.209,270.475 217.702,269.421 218.795 C 268.858 219.380,268.030 220.996,267.401 222.739 C 266.658 224.799,265.945 226.116,265.044 227.093 C 262.077 230.312,262.268 236.812,265.367 238.031 C 271.387 240.400,275.634 238.653,277.975 232.845 C 278.572 231.364,279.324 229.968,279.646 229.743 C 280.529 229.124,281.443 227.343,282.434 224.308 C 282.925 222.806,283.663 221.174,284.074 220.681 C 285.281 219.234,285.777 218.004,286.563 214.509 C 286.971 212.696,287.749 210.329,288.290 209.251 C 289.855 206.136,290.139 205.049,290.862 199.395 C 291.238 196.463,291.989 191.913,292.532 189.283 C 293.075 186.653,293.658 182.498,293.829 180.049 C 294.307 173.169,294.530 172.802,298.768 171.925 C 301.312 171.399,303.297 170.557,304.004 169.705 C 304.232 169.430,305.410 168.879,306.620 168.481 C 309.593 167.503,311.622 166.447,312.613 165.363 C 313.067 164.867,314.201 164.120,315.134 163.701 C 316.067 163.283,317.328 162.438,317.937 161.824 C 318.546 161.210,319.737 160.237,320.584 159.663 C 322.743 158.200,329.725 150.726,330.917 148.602 C 331.462 147.631,332.374 146.445,332.943 145.966 C 333.562 145.445,334.320 144.239,334.831 142.964 C 335.300 141.792,336.332 139.887,337.124 138.730 C 338.130 137.260,338.786 135.791,339.300 133.853 C 339.706 132.328,340.689 129.744,341.485 128.112 C 343.347 124.293,343.634 121.795,343.642 109.316 C 343.650 96.500,343.275 93.679,341.031 89.668 C 340.481 88.685,339.791 86.917,339.498 85.738 C 338.722 82.617,338.083 81.133,336.968 79.863 C 336.008 78.769,335.555 77.915,334.662 75.515 C 334.426 74.880,333.701 73.768,333.050 73.042 C 332.399 72.317,331.183 70.610,330.347 69.250 C 329.511 67.890,328.390 66.453,327.855 66.058 C 327.320 65.662,326.432 64.541,325.882 63.567 C 325.332 62.592,324.335 61.378,323.666 60.868 C 322.997 60.357,322.182 59.327,321.855 58.577 C 321.528 57.827,320.710 56.694,320.037 56.059 C 319.364 55.425,318.294 54.089,317.659 53.092 C 317.024 52.094,315.866 50.610,315.087 49.794 C 314.307 48.978,313.138 47.469,312.489 46.442 C 311.841 45.414,310.857 44.251,310.304 43.857 C 309.750 43.463,308.932 42.419,308.485 41.537 C 308.038 40.655,307.144 39.518,306.499 39.010 C 305.854 38.503,304.870 37.240,304.313 36.203 C 303.757 35.167,302.953 34.091,302.528 33.812 C 302.102 33.534,300.905 32.030,299.867 30.470 C 298.829 28.910,297.638 27.410,297.219 27.135 C 296.800 26.861,295.947 25.795,295.322 24.767 C 294.697 23.739,293.598 22.370,292.880 21.725 C 292.162 21.080,291.199 19.823,290.742 18.932 C 290.284 18.041,289.446 17.016,288.879 16.653 C 288.312 16.290,287.400 15.160,286.853 14.140 C 284.435 9.642,280.427 7.588,276.257 8.710 M282.378 12.284 C 283.733 13.599,285.227 15.299,285.698 16.063 C 286.169 16.827,287.016 17.791,287.581 18.207 C 288.146 18.622,288.979 19.690,289.431 20.581 C 289.884 21.472,290.833 22.720,291.539 23.354 C 292.246 23.988,293.253 25.263,293.777 26.186 C 294.302 27.109,295.638 28.888,296.747 30.140 C 297.856 31.391,298.763 32.554,298.763 32.724 C 298.763 32.894,299.636 33.948,300.702 35.066 C 301.768 36.183,302.944 37.692,303.316 38.417 C 303.688 39.143,304.526 40.153,305.178 40.663 C 305.830 41.173,306.675 42.254,307.056 43.064 C 307.437 43.874,308.227 44.941,308.811 45.434 C 309.396 45.928,310.622 47.444,311.536 48.805 C 312.449 50.165,313.605 51.649,314.104 52.102 C 314.603 52.556,315.534 53.743,316.174 54.740 C 316.813 55.738,317.914 57.055,318.620 57.666 C 319.325 58.278,320.212 59.436,320.589 60.239 C 320.967 61.042,321.785 62.088,322.407 62.562 C 323.030 63.037,323.831 63.998,324.188 64.698 C 324.545 65.398,325.544 66.751,326.409 67.705 C 327.273 68.660,328.554 70.399,329.256 71.571 C 329.959 72.743,331.158 74.382,331.922 75.213 C 332.686 76.044,333.421 77.231,333.555 77.851 C 333.857 79.247,334.820 81.188,336.103 82.985 C 336.744 83.883,337.512 85.871,338.330 88.756 C 339.017 91.177,339.957 94.048,340.417 95.136 C 342.911 101.026,342.737 117.627,340.109 124.455 C 339.488 126.071,338.602 128.881,338.141 130.700 C 337.231 134.291,336.979 134.896,335.821 136.288 C 334.969 137.313,334.110 139.129,333.246 141.730 C 332.864 142.881,332.315 143.728,331.600 144.274 C 331.010 144.724,330.107 145.872,329.594 146.825 C 329.081 147.778,327.945 149.299,327.071 150.206 C 321.593 155.886,319.151 158.285,318.851 158.285 C 318.663 158.285,317.734 159.019,316.785 159.916 C 315.837 160.813,314.337 161.857,313.451 162.236 C 312.566 162.616,311.261 163.451,310.552 164.091 C 309.156 165.352,307.380 166.215,304.434 167.061 C 303.401 167.357,301.701 168.097,300.656 168.705 C 299.611 169.313,297.978 170.039,297.028 170.319 C 294.618 171.028,292.809 172.122,291.956 173.389 C 291.161 174.568,291.097 175.056,290.506 184.501 C 289.824 195.399,288.998 200.686,287.394 204.434 C 286.781 205.866,285.971 208.497,285.593 210.279 C 284.759 214.216,284.191 215.800,282.767 218.165 C 282.167 219.162,281.271 221.297,280.776 222.910 C 280.149 224.954,279.505 226.293,278.652 227.325 C 277.978 228.141,277.078 229.745,276.653 230.892 C 274.677 236.211,269.332 238.617,266.278 235.563 C 265.338 234.624,265.620 230.946,266.727 229.684 C 267.244 229.096,268.152 227.444,268.745 226.014 C 269.337 224.583,270.332 222.715,270.954 221.862 C 271.576 221.010,272.577 218.858,273.178 217.081 C 273.778 215.304,274.797 212.860,275.441 211.650 C 276.086 210.440,276.860 208.288,277.161 206.868 C 278.036 202.754,278.919 199.365,279.805 196.727 C 281.606 191.360,282.461 178.431,281.197 175.670 C 280.107 173.289,279.744 173.131,274.148 172.598 C 264.031 171.635,259.500 170.724,256.389 169.029 C 255.301 168.436,253.005 167.453,251.287 166.844 C 249.363 166.161,247.718 165.335,247.000 164.692 C 246.360 164.117,245.021 163.238,244.023 162.739 C 243.026 162.239,241.319 161.057,240.231 160.112 C 239.143 159.166,237.659 157.961,236.933 157.432 C 235.023 156.041,230.425 151.189,228.836 148.887 C 228.084 147.799,226.972 146.389,226.365 145.754 C 225.757 145.120,224.869 143.710,224.392 142.622 C 223.915 141.533,223.174 140.272,222.745 139.819 C 221.774 138.792,220.480 135.904,219.778 133.194 C 219.484 132.060,218.805 130.264,218.269 129.202 C 214.249 121.238,214.295 97.633,218.346 89.607 C 219.373 87.572,220.596 83.267,220.605 81.655 C 220.611 80.479,218.854 78.716,217.096 78.136 C 216.427 77.916,214.829 77.173,213.546 76.485 C 211.803 75.552,210.154 75.020,207.040 74.384 C 204.746 73.915,201.870 73.156,200.649 72.696 C 191.780 69.358,162.996 69.081,154.850 72.256 C 153.928 72.615,150.678 73.493,147.627 74.206 C 143.667 75.131,141.450 75.836,139.878 76.671 C 138.666 77.313,136.369 78.298,134.772 78.858 C 133.176 79.419,131.098 80.410,130.156 81.060 C 129.213 81.711,127.418 82.661,126.167 83.172 C 124.915 83.683,123.337 84.602,122.659 85.215 C 121.982 85.827,120.453 86.793,119.263 87.361 C 118.073 87.929,116.312 89.112,115.351 89.989 C 114.389 90.867,113.083 91.894,112.448 92.270 C 111.247 92.982,109.210 94.791,105.044 98.846 C 103.693 100.161,102.431 101.237,102.239 101.237 C 102.047 101.237,101.446 101.959,100.903 102.841 C 100.360 103.724,99.348 104.839,98.655 105.319 C 97.963 105.799,97.083 106.747,96.700 107.424 C 96.317 108.102,95.391 109.250,94.643 109.975 C 93.894 110.701,92.820 112.099,92.256 113.082 C 91.692 114.066,90.594 115.652,89.815 116.608 C 89.037 117.563,87.973 119.281,87.451 120.426 C 86.928 121.570,85.968 123.139,85.317 123.913 C 84.232 125.201,82.770 128.349,82.770 129.395 C 82.770 129.633,82.119 130.819,81.323 132.031 C 80.277 133.624,79.623 135.166,78.961 137.603 C 78.458 139.456,77.569 142.086,76.984 143.446 C 75.385 147.172,75.271 147.650,74.010 155.991 C 71.423 173.101,71.388 175.721,73.540 190.605 C 75.057 201.094,75.486 203.079,76.851 205.936 C 77.371 207.024,78.224 209.498,78.746 211.433 C 79.378 213.779,80.153 215.710,81.069 217.225 C 81.824 218.476,82.755 220.424,83.137 221.555 C 83.518 222.685,84.328 224.308,84.935 225.161 C 85.543 226.013,86.646 227.898,87.387 229.349 C 88.128 230.800,89.308 232.580,90.010 233.306 C 90.712 234.031,91.515 235.183,91.794 235.865 C 92.074 236.547,93.019 237.883,93.896 238.833 C 94.773 239.783,95.925 241.209,96.457 242.001 C 97.876 244.116,107.406 253.595,110.203 255.674 C 111.529 256.659,112.984 257.869,113.438 258.361 C 113.891 258.854,115.004 259.633,115.911 260.091 C 116.818 260.550,118.188 261.500,118.956 262.204 C 119.724 262.907,121.175 263.847,122.182 264.292 C 123.189 264.737,124.871 265.704,125.920 266.439 C 126.969 267.175,128.991 268.225,130.413 268.773 C 131.835 269.320,133.862 270.302,134.917 270.953 C 136.066 271.662,138.395 272.592,140.718 273.268 C 142.853 273.890,145.268 274.741,146.084 275.160 C 148.128 276.208,151.065 276.892,157.541 277.826 C 160.580 278.265,163.809 278.764,164.716 278.936 C 175.600 280.999,199.855 278.899,208.090 275.181 C 209.472 274.557,212.075 273.655,213.875 273.178 C 217.287 272.272,218.459 271.783,220.115 270.573 C 220.660 270.176,222.242 269.445,223.633 268.950 C 225.023 268.454,226.865 267.577,227.726 267.001 C 228.587 266.424,229.670 265.697,230.134 265.386 C 231.841 264.237,235.063 263.766,236.431 264.465 C 239.522 266.041,239.328 270.129,236.060 272.316 C 235.328 272.806,234.153 273.703,233.448 274.310 C 232.713 274.943,230.887 275.889,229.160 276.531 C 227.506 277.146,225.446 278.168,224.582 278.802 C 223.450 279.633,221.868 280.284,218.928 281.131 C 216.682 281.777,214.250 282.650,213.523 283.070 C 211.699 284.124,209.550 284.765,205.111 285.579 C 203.026 285.961,199.527 286.784,197.336 287.408 C 187.748 290.139,168.444 290.290,158.429 287.712 C 155.901 287.061,151.352 286.016,148.320 285.389 C 143.896 284.474,142.326 283.995,140.371 282.965 C 139.031 282.260,137.060 281.512,135.991 281.304 C 133.144 280.751,131.291 280.040,129.409 278.780 C 128.490 278.165,126.460 277.160,124.897 276.546 C 123.334 275.933,121.404 274.896,120.607 274.243 C 119.810 273.591,118.339 272.694,117.338 272.251 C 116.337 271.809,114.839 270.859,114.008 270.140 C 113.178 269.422,111.560 268.272,110.413 267.585 C 109.265 266.898,107.585 265.650,106.678 264.811 C 105.771 263.972,104.557 263.093,103.981 262.858 C 103.405 262.622,102.525 261.840,102.026 261.120 C 101.526 260.399,100.466 259.428,99.669 258.960 C 98.871 258.493,97.864 257.548,97.430 256.861 C 96.996 256.173,95.967 255.147,95.144 254.581 C 94.318 254.013,93.350 252.969,92.984 252.250 C 92.619 251.534,91.718 250.550,90.982 250.064 C 90.191 249.540,89.330 248.563,88.875 247.672 C 88.452 246.844,87.560 245.647,86.894 245.012 C 86.228 244.378,85.079 242.819,84.341 241.550 C 83.604 240.280,82.366 238.555,81.592 237.717 C 80.817 236.878,80.000 235.581,79.776 234.834 C 79.553 234.087,78.738 232.736,77.967 231.833 C 76.996 230.695,76.236 229.269,75.493 227.193 C 74.903 225.545,73.985 223.649,73.453 222.980 C 72.085 221.262,72.020 221.109,70.888 216.939 C 70.328 214.877,69.376 212.300,68.772 211.212 C 67.728 209.333,67.453 208.322,66.127 201.484 C 65.828 199.942,65.141 197.092,64.599 195.151 C 63.203 190.147,62.998 188.641,62.687 181.069 C 62.163 168.348,62.726 161.625,65.065 152.679 C 65.706 150.231,66.400 147.115,66.609 145.754 C 67.101 142.540,67.775 140.397,68.975 138.223 C 69.510 137.255,70.366 134.867,70.878 132.917 C 71.912 128.977,72.048 128.661,73.508 126.827 C 74.087 126.099,74.878 124.411,75.332 122.933 C 75.898 121.090,76.490 119.928,77.348 118.979 C 78.017 118.239,79.195 116.274,79.966 114.611 C 80.784 112.850,81.703 111.370,82.170 111.064 C 82.611 110.775,83.435 109.670,84.001 108.608 C 84.568 107.546,85.502 106.232,86.077 105.688 C 86.652 105.144,87.582 104.031,88.143 103.215 C 89.670 100.993,95.649 94.686,99.753 90.968 C 101.748 89.160,104.048 87.046,104.864 86.271 C 105.680 85.495,107.144 84.381,108.118 83.794 C 109.092 83.208,110.261 82.285,110.717 81.744 C 111.172 81.202,112.453 80.347,113.563 79.842 C 114.673 79.338,116.266 78.332,117.103 77.606 C 117.940 76.881,119.646 75.867,120.895 75.353 C 122.144 74.839,123.685 74.020,124.320 73.534 C 125.875 72.342,127.027 71.785,129.761 70.904 C 131.031 70.495,133.128 69.583,134.422 68.879 C 136.065 67.983,138.195 67.245,141.491 66.429 C 144.086 65.787,147.183 64.835,148.372 64.313 C 158.642 59.810,196.182 60.110,207.335 64.784 C 208.467 65.258,211.138 66.033,213.270 66.505 C 216.966 67.323,218.097 67.757,220.526 69.292 C 221.822 70.111,224.617 70.889,226.281 70.895 C 227.727 70.899,232.502 66.542,233.753 64.075 C 234.138 63.315,234.984 62.288,235.633 61.794 C 236.281 61.299,237.084 60.362,237.416 59.711 C 237.748 59.060,238.870 57.574,239.910 56.408 C 240.949 55.243,242.322 53.464,242.961 52.454 C 243.599 51.444,244.605 50.210,245.197 49.712 C 245.788 49.213,246.598 48.132,246.997 47.308 C 247.396 46.484,248.316 45.334,249.041 44.752 C 249.766 44.170,250.709 43.003,251.137 42.160 C 251.565 41.317,252.416 40.204,253.028 39.687 C 253.640 39.170,254.742 37.857,255.476 36.768 C 256.211 35.680,257.573 33.924,258.504 32.866 C 259.435 31.808,260.486 30.374,260.841 29.679 C 261.195 28.984,261.938 28.093,262.491 27.699 C 263.045 27.305,263.855 26.277,264.291 25.415 C 264.728 24.553,265.615 23.383,266.263 22.815 C 266.910 22.246,267.859 21.120,268.371 20.313 C 268.883 19.505,270.070 17.981,271.009 16.924 C 271.948 15.868,273.349 14.188,274.123 13.190 C 275.548 11.352,277.788 9.893,279.186 9.893 C 279.644 9.893,280.830 10.781,282.378 12.284 M276.834 25.436 C 274.503 26.880,273.846 27.539,271.950 30.338 C 271.028 31.698,269.809 33.256,269.241 33.800 C 268.673 34.345,267.808 35.533,267.318 36.442 C 266.828 37.351,265.997 38.384,265.470 38.738 C 264.944 39.092,264.021 40.257,263.419 41.326 C 262.818 42.396,261.911 43.566,261.404 43.927 C 260.897 44.288,259.827 45.570,259.028 46.777 C 258.228 47.983,257.099 49.412,256.518 49.952 C 255.938 50.493,254.837 51.903,254.072 53.085 C 253.306 54.267,252.202 55.680,251.618 56.224 C 251.035 56.768,250.211 57.881,249.787 58.697 C 249.364 59.514,248.487 60.596,247.839 61.103 C 247.190 61.610,246.355 62.622,245.982 63.352 C 245.610 64.082,244.671 65.300,243.897 66.058 C 243.123 66.816,242.141 68.014,241.716 68.721 C 241.290 69.427,240.073 70.984,239.011 72.181 C 237.948 73.378,236.788 74.958,236.433 75.692 C 236.077 76.427,235.253 77.541,234.600 78.168 C 233.948 78.795,232.975 80.272,232.439 81.451 C 231.902 82.630,231.037 84.128,230.515 84.779 C 229.330 86.259,228.693 87.769,227.831 91.147 C 227.459 92.604,226.656 95.073,226.046 96.633 C 223.621 102.839,223.663 116.674,226.124 122.506 C 226.584 123.594,227.372 126.018,227.877 127.893 C 228.427 129.937,229.202 131.916,229.813 132.839 C 230.374 133.685,231.428 135.591,232.157 137.075 C 232.926 138.642,234.041 140.301,234.816 141.032 C 235.550 141.725,236.521 142.970,236.974 143.799 C 237.427 144.628,238.245 145.570,238.791 145.893 C 239.338 146.216,240.284 147.174,240.893 148.023 C 241.503 148.872,242.600 149.902,243.330 150.312 C 244.060 150.723,245.077 151.567,245.588 152.187 C 246.100 152.808,247.552 153.863,248.816 154.531 C 250.079 155.200,251.703 156.250,252.424 156.864 C 253.250 157.568,254.593 158.234,256.052 158.663 C 257.326 159.038,259.777 159.991,261.500 160.781 C 268.881 164.167,288.467 164.453,294.778 161.267 C 295.861 160.721,298.261 159.760,300.111 159.132 C 301.961 158.503,304.010 157.564,304.664 157.044 C 305.318 156.524,306.966 155.486,308.326 154.738 C 309.687 153.991,311.393 152.768,312.119 152.022 C 312.844 151.276,314.119 150.228,314.951 149.693 C 315.784 149.159,316.627 148.367,316.824 147.933 C 317.021 147.500,317.874 146.573,318.718 145.873 C 319.562 145.173,320.621 143.977,321.071 143.216 C 321.521 142.455,322.691 140.825,323.671 139.595 C 324.753 138.238,325.783 136.471,326.291 135.101 C 326.751 133.860,327.480 132.373,327.911 131.797 C 329.229 130.034,329.664 128.908,330.411 125.309 C 330.807 123.405,331.515 120.363,331.986 118.549 C 333.405 113.081,333.441 106.602,332.085 101.048 C 331.512 98.703,330.822 95.598,330.552 94.147 C 329.859 90.429,329.498 89.415,328.243 87.645 C 327.636 86.789,326.666 84.860,326.086 83.358 C 325.319 81.366,324.657 80.260,323.642 79.273 C 322.876 78.528,321.954 77.250,321.592 76.432 C 321.230 75.614,320.386 74.517,319.717 73.993 C 319.048 73.470,318.148 72.358,317.718 71.522 C 317.288 70.685,316.211 69.202,315.326 68.224 C 314.441 67.247,313.089 65.516,312.322 64.377 C 311.556 63.239,310.632 62.126,310.269 61.904 C 309.907 61.682,309.026 60.578,308.311 59.451 C 307.596 58.324,306.575 57.079,306.042 56.684 C 305.508 56.290,304.617 55.115,304.062 54.073 C 303.507 53.032,302.690 51.942,302.246 51.651 C 301.803 51.361,300.785 50.119,299.986 48.892 C 299.186 47.665,297.965 46.068,297.272 45.342 C 296.579 44.617,295.533 43.281,294.947 42.374 C 294.360 41.467,293.270 40.136,292.524 39.416 C 291.778 38.696,290.872 37.509,290.510 36.778 C 290.149 36.047,289.344 35.078,288.721 34.625 C 288.099 34.171,287.208 33.059,286.742 32.152 C 285.565 29.862,280.292 24.400,279.265 24.409 C 278.835 24.412,277.741 24.874,276.834 25.436 M280.877 28.399 C 281.374 29.146,282.427 30.370,283.218 31.119 C 284.008 31.869,285.013 33.187,285.450 34.049 C 285.887 34.911,286.755 35.949,287.378 36.357 C 288.003 36.765,288.775 37.690,289.098 38.417 C 289.420 39.143,290.367 40.478,291.204 41.385 C 292.040 42.292,293.326 43.924,294.062 45.012 C 294.798 46.101,295.947 47.510,296.616 48.145 C 297.285 48.780,298.175 49.967,298.593 50.783 C 299.010 51.599,299.966 52.760,300.716 53.362 C 301.465 53.964,302.388 55.114,302.767 55.919 C 303.145 56.723,304.050 57.854,304.779 58.431 C 305.507 59.008,306.293 59.934,306.525 60.490 C 306.758 61.046,307.938 62.688,309.149 64.139 C 310.360 65.590,311.715 67.395,312.162 68.151 C 312.608 68.906,313.488 69.917,314.117 70.397 C 314.746 70.877,315.619 71.975,316.056 72.837 C 316.493 73.700,317.502 74.940,318.299 75.593 C 319.241 76.365,319.880 77.221,320.128 78.043 C 320.338 78.739,321.160 80.049,321.955 80.956 C 323.606 82.840,324.575 84.598,325.136 86.729 C 325.351 87.544,326.097 89.101,326.793 90.190 C 331.096 96.913,331.151 121.343,326.880 128.487 C 326.135 129.732,325.303 131.518,325.031 132.456 C 324.399 134.632,323.980 135.417,322.665 136.888 C 322.079 137.544,320.969 139.141,320.199 140.437 C 319.429 141.734,318.211 143.260,317.493 143.829 C 316.775 144.397,315.827 145.433,315.387 146.130 C 314.947 146.828,313.957 147.790,313.188 148.270 C 312.418 148.750,311.007 149.875,310.052 150.770 C 309.062 151.697,307.284 152.874,305.920 153.504 C 304.602 154.113,303.233 154.934,302.876 155.328 C 301.898 156.408,300.954 156.800,296.259 158.072 C 293.893 158.713,291.151 159.558,290.167 159.949 C 284.490 162.204,272.664 162.121,266.693 159.784 C 265.560 159.340,262.790 158.495,260.536 157.905 C 257.125 157.012,256.210 156.634,255.067 155.644 C 254.312 154.991,252.440 153.891,250.907 153.201 C 248.842 152.271,247.931 151.658,247.391 150.835 C 246.991 150.223,245.958 149.365,245.096 148.927 C 244.116 148.428,243.126 147.556,242.455 146.600 C 241.865 145.759,240.851 144.757,240.202 144.374 C 239.399 143.901,238.752 143.108,238.177 141.894 C 237.712 140.912,236.850 139.741,236.261 139.292 C 235.496 138.708,234.799 137.568,233.823 135.301 C 233.071 133.555,232.032 131.644,231.514 131.055 C 229.841 129.149,226.867 115.161,226.886 109.282 C 226.903 103.659,229.715 90.492,231.415 88.074 C 232.126 87.061,233.194 85.013,233.787 83.522 C 234.592 81.500,235.158 80.589,236.021 79.931 C 236.656 79.446,237.470 78.387,237.828 77.577 C 238.186 76.767,239.110 75.489,239.881 74.738 C 240.652 73.987,241.918 72.424,242.695 71.266 C 243.472 70.108,244.698 68.550,245.419 67.804 C 246.140 67.058,247.005 65.846,247.341 65.112 C 247.677 64.377,248.554 63.293,249.289 62.702 C 250.025 62.111,250.985 60.920,251.423 60.055 C 251.862 59.189,252.752 58.076,253.401 57.581 C 254.050 57.086,254.885 56.085,255.256 55.358 C 255.627 54.630,256.729 53.168,257.703 52.108 C 258.678 51.048,259.887 49.537,260.392 48.751 C 260.896 47.964,262.009 46.561,262.866 45.633 C 263.722 44.705,264.637 43.434,264.898 42.809 C 265.159 42.184,265.992 41.182,266.748 40.583 C 267.505 39.984,268.486 38.778,268.929 37.904 C 269.372 37.030,270.266 35.909,270.916 35.414 C 271.565 34.919,272.401 33.916,272.774 33.186 C 273.146 32.456,274.514 30.774,275.813 29.449 C 278.707 26.498,279.503 26.333,280.877 28.399 M146.744 121.990 C 143.349 122.625,142.399 123.049,140.537 124.760 C 139.507 125.706,138.181 126.681,137.590 126.925 C 136.809 127.248,136.231 127.904,135.474 129.324 C 134.902 130.399,134.032 131.563,133.543 131.912 C 129.141 135.046,129.316 153.764,133.791 158.357 C 134.447 159.031,135.368 160.290,135.835 161.155 C 136.449 162.290,137.100 162.943,138.170 163.498 C 138.986 163.921,140.262 164.859,141.004 165.582 C 145.014 169.485,157.950 169.470,162.077 165.558 C 162.622 165.042,163.935 164.071,164.996 163.400 C 166.058 162.728,167.171 161.734,167.470 161.190 C 167.769 160.646,168.806 159.008,169.774 157.551 C 173.999 151.195,174.315 137.692,170.341 133.286 C 169.737 132.617,168.706 131.091,168.049 129.895 C 167.078 128.126,166.550 127.554,165.222 126.831 C 164.323 126.342,163.249 125.523,162.833 125.010 C 160.756 122.447,152.542 120.905,146.744 121.990 M156.970 124.641 C 160.651 126.561,165.108 129.984,166.074 131.633 C 170.996 140.032,172.184 147.138,169.483 152.020 C 169.131 152.655,168.256 154.369,167.537 155.830 C 165.963 159.028,163.376 161.661,160.264 163.232 C 159.107 163.816,157.781 164.566,157.316 164.899 C 152.748 168.178,141.017 164.435,137.243 158.496 C 132.631 151.237,132.729 151.531,132.729 144.930 C 132.729 139.507,132.758 139.265,133.619 137.510 C 135.050 134.596,138.106 129.807,138.912 129.217 C 141.309 127.458,145.695 124.823,146.865 124.439 C 148.595 123.871,155.768 124.014,156.970 124.641 M192.337 126.511 C 189.928 127.249,189.218 128.047,188.018 131.364 C 187.442 132.954,186.538 134.802,186.007 135.470 C 185.010 136.727,183.911 139.621,183.522 142.014 C 183.397 142.781,182.666 144.349,181.860 145.576 C 180.466 147.699,180.144 148.496,178.871 152.965 C 178.542 154.120,177.872 155.619,177.382 156.295 C 176.039 158.149,175.581 159.202,174.938 161.913 C 174.330 164.478,173.979 165.271,172.622 167.146 C 171.875 168.179,170.924 170.810,170.164 173.951 C 169.989 174.677,169.184 176.277,168.377 177.506 C 167.570 178.736,166.758 180.441,166.573 181.297 C 165.877 184.521,164.917 187.011,163.942 188.121 C 163.019 189.173,162.385 190.828,161.277 195.086 C 161.083 195.830,160.556 196.943,160.105 197.559 C 158.873 199.244,158.037 201.224,157.291 204.220 C 156.915 205.731,156.225 207.474,155.721 208.184 C 149.846 216.463,153.600 226.806,161.739 224.764 C 162.731 224.515,167.335 220.088,167.619 219.111 C 167.721 218.757,168.129 217.354,168.525 215.993 C 168.966 214.478,169.621 213.091,170.217 212.412 C 171.346 211.126,171.525 210.701,172.652 206.646 C 173.113 204.986,173.910 203.034,174.423 202.308 C 175.605 200.636,176.211 199.180,177.110 195.846 C 177.547 194.227,178.315 192.453,179.072 191.316 C 180.192 189.633,180.990 187.505,182.020 183.453 C 182.213 182.695,182.887 181.457,183.518 180.702 C 184.162 179.931,184.883 178.546,185.161 177.545 C 185.433 176.565,185.872 174.984,186.137 174.031 C 186.402 173.079,187.221 171.374,187.957 170.243 C 188.881 168.823,189.561 167.187,190.151 164.967 C 191.106 161.367,191.535 160.386,192.554 159.463 C 193.177 158.899,193.978 156.672,195.195 152.117 C 195.399 151.354,195.913 150.316,196.336 149.809 C 197.424 148.508,198.420 146.442,198.698 144.915 C 199.077 142.822,200.183 140.117,201.421 138.249 C 205.937 131.438,200.249 124.088,192.337 126.511 M197.713 129.120 C 199.145 130.177,200.157 133.474,199.513 134.984 C 199.268 135.557,198.462 137.815,197.720 140.000 C 196.979 142.186,195.873 144.748,195.263 145.694 C 194.653 146.639,193.741 148.824,193.236 150.549 C 192.731 152.273,191.784 154.582,191.130 155.679 C 190.476 156.776,189.424 159.261,188.791 161.200 C 188.158 163.140,187.134 165.541,186.516 166.535 C 185.898 167.529,184.915 169.900,184.331 171.802 C 183.748 173.705,182.827 175.906,182.285 176.693 C 181.743 177.481,180.736 179.865,180.048 181.992 C 179.360 184.118,178.330 186.591,177.760 187.488 C 177.190 188.384,176.270 190.602,175.715 192.415 C 175.160 194.229,174.139 196.678,173.447 197.857 C 172.754 199.035,171.741 201.445,171.195 203.210 C 170.649 204.976,169.676 207.276,169.032 208.322 C 168.389 209.367,167.340 211.873,166.702 213.891 L 165.543 217.559 163.046 219.794 L 160.548 222.029 158.556 221.077 C 154.249 219.018,154.040 217.385,157.313 211.356 C 157.663 210.711,158.376 208.764,158.897 207.030 C 159.417 205.297,160.286 203.229,160.827 202.434 C 161.834 200.955,162.324 199.755,163.571 195.713 C 163.962 194.444,164.785 192.589,165.399 191.591 C 166.013 190.594,167.037 188.145,167.675 186.150 C 168.312 184.155,169.285 181.862,169.836 181.055 C 170.387 180.248,171.298 178.097,171.860 176.274 C 172.422 174.451,173.445 171.995,174.133 170.816 C 174.820 169.637,175.779 167.337,176.262 165.705 C 176.746 164.073,177.701 161.772,178.384 160.594 C 179.067 159.415,180.103 156.966,180.686 155.153 C 181.270 153.339,182.249 151.028,182.861 150.017 C 183.858 148.373,185.655 143.634,185.655 142.652 C 185.655 142.442,186.310 141.163,187.110 139.808 C 187.910 138.454,188.870 136.307,189.243 135.037 C 190.263 131.564,191.387 130.018,193.686 128.917 C 195.744 127.933,196.131 127.953,197.713 129.120 M148.497 134.886 C 145.947 136.092,144.106 137.812,144.105 138.988 C 144.105 139.173,143.666 140.140,143.129 141.138 C 141.610 143.961,141.723 146.003,143.613 149.863 C 149.617 162.125,164.316 153.467,159.580 140.459 C 158.342 137.059,157.918 136.586,154.580 134.892 C 151.440 133.299,151.852 133.300,148.497 134.886 M153.950 137.546 C 159.274 139.344,159.142 150.591,153.773 152.612 L 151.734 153.380 149.432 152.694 L 147.130 152.009 146.429 149.953 C 144.421 144.071,145.702 138.339,149.239 137.375 C 151.501 136.760,151.637 136.765,153.950 137.546 M199.835 183.684 C 195.822 184.016,194.337 184.510,192.790 186.026 C 192.057 186.745,190.822 187.613,190.046 187.957 C 189.103 188.374,188.333 189.055,187.723 190.011 C 187.220 190.798,186.256 191.957,185.580 192.588 C 184.694 193.414,184.082 194.472,183.390 196.373 C 182.862 197.824,182.017 199.975,181.512 201.154 C 179.760 205.244,180.000 210.087,182.168 214.345 C 182.768 215.523,183.447 217.289,183.677 218.267 C 183.995 219.620,184.427 220.372,185.476 221.400 C 186.236 222.144,187.202 223.251,187.622 223.859 C 188.043 224.467,189.145 225.453,190.071 226.049 C 190.998 226.645,192.118 227.523,192.561 227.999 C 194.748 230.354,207.183 231.000,211.161 228.966 C 214.712 227.151,220.116 221.581,221.227 218.591 C 221.740 217.209,222.553 215.564,223.033 214.935 C 225.323 211.932,225.170 202.247,222.775 198.681 C 222.166 197.774,221.434 196.207,221.148 195.198 C 220.764 193.845,220.258 193.010,219.217 192.017 C 218.442 191.276,217.392 190.134,216.884 189.479 C 216.376 188.824,215.232 187.919,214.340 187.467 C 213.449 187.015,212.571 186.368,212.389 186.029 C 211.448 184.269,205.710 183.197,199.835 183.684 M208.244 187.038 C 209.151 187.523,210.812 188.372,211.936 188.926 C 213.168 189.533,214.346 190.417,214.904 191.154 C 215.412 191.826,216.513 193.057,217.350 193.889 C 218.968 195.498,219.256 196.210,220.637 202.004 C 221.539 205.790,221.387 209.223,220.093 214.311 L 219.137 218.069 216.427 221.106 C 214.864 222.859,213.258 224.330,212.630 224.583 C 212.031 224.825,210.900 225.506,210.115 226.097 C 206.526 228.799,197.853 228.775,194.889 226.054 C 194.435 225.638,193.284 224.907,192.330 224.431 C 191.233 223.882,190.233 223.051,189.609 222.169 C 189.066 221.402,188.023 220.173,187.291 219.437 C 182.912 215.039,183.038 198.814,187.486 194.424 C 188.237 193.682,189.187 192.513,189.597 191.826 C 190.125 190.940,190.932 190.279,192.368 189.558 C 193.482 188.998,194.815 188.243,195.329 187.879 C 198.414 185.701,204.946 185.275,208.244 187.038 M200.724 196.552 C 199.668 196.729,198.669 197.203,197.731 197.972 C 190.143 204.189,193.247 217.067,202.517 217.834 L 204.617 218.007 207.255 216.088 C 213.975 211.198,213.038 200.255,205.606 196.830 C 204.199 196.182,203.248 196.127,200.724 196.552 M205.372 199.362 C 205.778 199.646,206.391 200.425,206.734 201.094 C 207.078 201.762,207.818 202.744,208.379 203.277 C 209.915 204.736,209.921 208.963,208.389 210.717 C 207.835 211.352,207.170 212.268,206.911 212.752 C 205.100 216.141,199.654 215.845,198.059 212.270 C 197.637 211.325,196.974 210.270,196.585 209.924 C 195.405 208.876,195.559 205.168,196.844 203.705 C 197.375 203.100,198.060 201.978,198.367 201.211 C 199.296 198.888,203.218 197.853,205.372 199.362 M251.169 246.187 C 250.274 246.688,247.650 251.611,247.650 252.788 C 247.650 254.037,251.035 258.331,252.442 258.866 C 258.721 261.253,263.442 251.429,258.325 246.621 C 257.243 245.604,252.701 245.329,251.169 246.187 M256.728 248.978 C 258.628 249.685,259.243 253.382,257.732 255.013 C 254.914 258.054,249.612 254.803,251.271 251.051 C 252.507 248.258,253.637 247.828,256.728 248.978 " stroke="none" fill="#5e909c" fill-rule="evenodd"></path></g></svg>