<svg id="svg" version="1.1" xmlns="http://www.w3.org/2000/svg" xmlns:xlink="http://www.w3.org/1999/xlink" width="400" height="389.7435897435897" viewBox="0, 0, 400,389.7435897435897"><g id="svgg"><path id="path0" d="M190.838 68.878 C 189.981 68.920,184.279 69.152,178.168 69.394 C 162.439 70.015,161.925 70.134,146.589 76.709 C 113.045 91.088,91.526 108.813,74.445 136.131 C 67.590 147.095,57.787 168.268,55.099 177.916 C 54.047 181.695,53.190 211.984,53.697 227.485 L 54.042 238.012 56.029 242.690 C 57.122 245.263,58.753 249.737,59.654 252.632 C 60.555 255.526,62.389 260.702,63.730 264.133 C 65.071 267.563,66.643 272.023,67.223 274.043 C 68.614 278.886,69.330 280.202,72.274 283.336 C 73.633 284.782,76.216 287.983,78.015 290.450 C 79.815 292.917,82.974 297.128,85.035 299.807 C 87.097 302.486,89.527 305.906,90.435 307.407 C 92.693 311.139,94.294 312.725,98.722 315.617 C 100.806 316.978,104.929 319.906,107.884 322.123 C 110.838 324.341,114.818 327.276,116.727 328.645 C 118.637 330.014,121.356 332.169,122.770 333.434 C 125.838 336.178,127.690 337.179,132.359 338.616 C 134.288 339.209,139.201 340.915,143.275 342.405 C 147.349 343.896,152.594 345.724,154.931 346.469 C 157.268 347.213,161.002 348.601,163.228 349.552 C 169.312 352.150,168.929 352.117,190.711 351.932 C 224.764 351.643,227.674 351.234,243.080 344.567 C 287.226 325.464,311.983 300.128,330.819 254.776 C 335.711 242.998,336.023 240.264,336.333 206.534 C 336.537 184.326,336.552 184.512,334.144 178.862 C 333.295 176.872,331.788 172.619,330.794 169.412 C 329.800 166.204,327.876 160.746,326.518 157.283 C 325.159 153.820,323.666 149.626,323.200 147.964 C 321.890 143.295,321.116 141.812,318.307 138.592 C 316.876 136.951,314.210 133.474,312.382 130.865 C 310.554 128.256,307.623 124.279,305.868 122.027 C 304.112 119.776,301.401 116.051,299.842 113.749 C 296.933 109.452,295.860 108.394,291.813 105.837 C 290.526 105.024,287.544 102.842,285.185 100.989 C 282.827 99.135,278.967 96.241,276.608 94.558 C 274.250 92.875,270.916 90.327,269.201 88.895 C 264.570 85.032,263.399 84.370,257.873 82.492 C 255.097 81.549,250.107 79.729,246.784 78.447 C 243.460 77.166,238.899 75.555,236.647 74.869 C 234.396 74.182,230.594 72.759,228.200 71.706 C 225.805 70.653,222.998 69.625,221.962 69.423 C 220.333 69.104,195.207 68.665,190.838 68.878 M207.092 82.462 C 227.011 84.110,236.472 86.888,255.166 96.578 C 321.548 130.985,344.232 215.972,303.894 279.142 C 275.659 323.357,227.917 345.110,175.634 337.580 C 148.660 333.696,124.442 321.380,104.467 301.388 C 62.634 259.519,54.316 197.744,83.646 146.751 C 103.643 111.984,137.785 88.955,178.947 82.469 C 183.547 81.744,198.372 81.741,207.092 82.462 M190.026 195.304 C 174.101 200.973,175.433 223.827,191.827 226.217 C 205.160 228.160,214.646 215.919,209.764 203.071 C 207.224 196.386,197.612 192.604,190.026 195.304 " stroke="none" fill="#3b4d62" fill-rule="evenodd"></path><path id="path1" d="M181.092 89.133 C 157.453 92.807,142.924 98.470,126.984 110.221 C 123.722 112.626,120.007 115.346,118.728 116.264 C 115.437 118.627,104.026 130.065,100.336 134.698 C 78.101 162.615,70.213 191.133,74.510 228.070 C 75.667 238.016,78.950 249.154,83.591 258.869 C 85.587 263.051,88.037 268.202,89.034 270.317 C 90.846 274.159,93.630 278.588,97.743 284.170 C 100.079 287.341,113.049 300.336,119.512 305.982 C 125.707 311.394,133.365 316.155,140.229 318.860 C 141.338 319.298,144.567 320.819,147.405 322.241 C 162.530 329.820,175.573 332.044,204.288 331.942 C 230.995 331.846,254.268 321.826,279.142 299.713 C 292.379 287.945,305.265 268.275,311.322 250.593 C 316.849 234.457,318.369 222.354,317.382 202.339 C 316.725 189.020,316.060 185.868,313.805 185.372 C 311.882 184.950,311.654 185.539,312.488 188.780 C 313.225 191.645,313.620 202.876,313.596 220.273 C 313.585 228.806,312.230 234.629,310.164 235.027 C 309.348 235.184,304.885 230.966,302.605 227.883 L 301.170 225.941 301.274 221.645 C 301.374 217.523,301.161 215.682,300.190 212.281 C 299.489 209.828,299.061 206.837,298.627 201.365 C 298.406 198.577,298.150 195.686,298.059 194.940 C 297.967 194.194,298.066 192.811,298.277 191.867 C 298.921 188.995,298.032 189.010,288.881 192.030 C 277.787 195.690,274.827 195.443,270.303 190.480 C 267.118 186.987,266.211 184.600,265.977 179.096 C 265.614 170.550,267.226 168.806,279.922 164.013 C 290.564 159.996,290.562 159.998,288.000 157.381 C 285.395 154.721,279.327 143.322,276.364 135.523 C 275.031 132.012,274.881 131.817,270.463 127.834 C 269.496 126.962,268.748 125.780,268.268 124.366 C 265.163 115.217,269.314 115.344,276.686 124.624 C 277.736 125.946,280.165 128.328,282.085 129.918 C 288.966 135.618,297.053 146.329,298.930 152.228 C 299.722 154.718,300.358 155.125,301.613 153.945 C 303.431 152.238,302.914 150.583,298.353 143.511 C 282.674 119.202,254.719 98.825,227.680 91.998 C 218.611 89.708,216.940 89.513,205.653 89.432 C 199.864 89.390,192.232 89.265,188.694 89.153 C 185.156 89.042,181.735 89.033,181.092 89.133 M198.008 97.045 C 200.628 98.911,200.967 100.877,200.971 114.230 C 200.976 129.517,200.263 131.922,195.572 132.451 C 191.107 132.954,189.525 130.162,189.044 120.933 C 188.857 117.354,188.527 112.495,188.310 110.136 C 187.320 99.395,192.150 92.875,198.008 97.045 M253.266 107.446 C 255.200 108.245,256.144 109.090,255.877 109.783 C 255.391 111.050,250.170 109.839,249.697 108.349 C 249.184 106.731,250.642 106.362,253.266 107.446 M136.554 118.148 C 138.242 119.266,139.503 120.766,144.732 127.875 C 145.915 129.483,147.959 132.027,149.275 133.528 C 154.168 139.108,154.731 143.871,150.880 147.112 C 147.248 150.167,143.191 148.477,139.531 142.385 C 138.408 140.516,135.521 136.079,133.116 132.526 C 128.212 125.283,127.330 123.047,128.213 120.100 C 129.215 116.754,133.083 115.849,136.554 118.148 M175.479 119.903 C 178.563 121.466,179.770 123.620,185.506 137.791 C 194.223 159.325,200.507 175.636,201.917 180.388 C 202.906 183.721,204.033 184.850,209.021 187.505 C 219.031 192.831,224.085 206.480,220.476 218.434 C 220.166 219.459,219.727 221.320,219.501 222.570 L 219.089 224.841 221.188 229.282 C 227.703 243.069,225.914 248.194,213.060 252.559 C 191.417 259.911,186.604 257.844,183.971 240.067 C 183.383 236.098,182.854 235.307,178.958 232.561 C 168.868 225.450,165.893 212.010,171.353 198.203 C 173.383 193.073,173.427 192.522,172.119 188.678 C 170.970 185.299,169.967 181.222,168.425 173.663 C 167.288 168.090,164.353 155.243,161.083 141.520 C 158.291 129.804,158.544 125.600,162.247 122.195 C 166.142 118.612,171.201 117.736,175.479 119.903 M258.490 119.183 C 262.985 122.281,260.853 128.226,250.152 142.425 C 245.934 148.023,241.263 149.173,238.439 145.310 C 236.353 142.456,237.529 139.252,244.198 129.630 C 251.491 119.106,254.834 116.663,258.490 119.183 M102.801 170.333 C 106.192 171.385,110.512 172.641,112.401 173.124 C 120.000 175.067,124.052 179.954,121.756 184.405 C 119.333 189.106,110.761 188.377,98.740 182.448 C 90.368 178.318,88.499 176.631,88.499 173.206 C 88.499 168.148,92.904 167.264,102.801 170.333 M117.881 226.658 C 121.755 228.277,121.921 233.580,118.194 236.652 C 112.869 241.042,94.512 245.415,89.479 243.493 C 84.271 241.503,84.616 235.525,90.100 232.727 C 91.648 231.938,108.533 227.040,111.501 226.520 C 114.292 226.031,116.493 226.079,117.881 226.658 M280.897 227.109 C 282.612 227.423,285.204 227.856,286.657 228.070 C 298.859 229.871,306.813 240.024,297.661 242.116 C 294.609 242.814,283.659 241.852,279.290 240.503 C 266.137 236.440,267.549 224.665,280.897 227.109 M306.986 246.630 C 311.169 248.236,298.467 272.536,286.089 286.609 C 277.125 296.801,275.158 297.392,274.918 289.963 C 274.760 285.092,274.721 285.202,279.484 277.292 C 283.706 270.279,287.356 263.132,289.885 256.920 C 292.702 250.004,292.747 249.966,300.906 247.732 C 306.055 246.322,306.141 246.306,306.986 246.630 M144.133 268.600 C 149.729 272.012,146.129 279.986,132.617 294.102 C 124.017 303.088,114.885 295.790,122.507 286.023 C 135.431 269.463,139.789 265.952,144.133 268.600 M252.076 268.960 C 253.437 269.790,254.866 271.434,259.064 276.998 C 260.682 279.142,262.969 282.125,264.147 283.626 C 272.840 294.703,264.806 302.126,255.435 291.675 C 253.786 289.836,250.463 286.285,248.050 283.784 C 242.422 277.948,241.301 275.089,243.178 271.353 C 244.657 268.408,249.178 267.193,252.076 268.960 M216.959 284.990 C 221.821 287.422,221.964 293.329,217.233 296.330 C 209.857 301.011,182.088 301.681,175.049 297.349 C 166.899 292.334,169.254 286.334,179.762 285.340 C 182.209 285.108,186.316 284.686,188.889 284.402 C 197.574 283.442,214.575 283.798,216.959 284.990 M204.288 303.254 C 205.039 303.486,207.700 304.131,210.203 304.687 C 219.361 306.722,222.973 310.445,220.078 314.868 C 218.495 317.288,217.282 317.555,208.469 317.422 C 202.778 317.336,198.697 317.490,194.742 317.940 C 190.880 318.379,186.817 318.540,181.789 318.452 L 174.464 318.324 172.350 317.125 C 165.434 313.201,168.316 305.919,177.778 303.410 C 181.462 302.433,201.262 302.316,204.288 303.254 M263.303 305.074 C 265.594 307.365,248.648 317.881,241.407 318.662 L 239.376 318.881 240.021 317.897 C 240.376 317.356,241.823 316.099,243.237 315.105 C 244.652 314.111,247.832 311.674,250.306 309.690 C 256.445 304.765,261.277 303.049,263.303 305.074 " stroke="none" fill="#8ac8d2" fill-rule="evenodd"></path><path id="path2" d="M183.041 52.283 C 181.111 52.490,176.988 53.170,173.879 53.795 C 170.770 54.419,166.033 55.308,163.353 55.769 C 160.541 56.254,155.511 57.567,151.462 58.874 C 147.602 60.120,143.665 61.347,142.713 61.599 C 135.026 63.638,115.932 73.327,103.899 81.295 C 91.693 89.377,73.807 107.499,64.808 120.903 C 57.637 131.584,48.404 150.162,46.231 158.285 C 45.858 159.678,44.612 163.626,43.462 167.057 C 42.175 170.895,41.055 175.169,40.551 178.168 C 40.100 180.848,39.112 186.095,38.355 189.829 C 36.704 197.975,36.159 206.260,36.659 215.596 C 37.020 222.337,36.996 222.152,38.610 230.604 C 39.224 233.821,39.927 238.470,40.172 240.936 C 40.760 246.847,41.381 249.492,43.215 253.900 C 44.053 255.913,45.211 259.214,45.788 261.236 C 46.911 265.167,51.703 276.665,55.920 285.546 C 58.426 290.822,59.909 293.081,68.224 304.288 C 72.436 309.965,83.293 322.451,85.853 324.561 C 87.154 325.634,90.198 328.207,92.618 330.281 C 95.038 332.355,98.303 334.998,99.874 336.154 C 103.592 338.892,114.535 346.644,115.792 347.431 C 118.586 349.178,139.837 358.364,144.378 359.787 C 146.345 360.404,149.795 361.622,152.047 362.495 C 157.320 364.539,158.187 364.744,164.683 365.483 C 167.667 365.823,172.403 366.524,175.210 367.041 C 184.618 368.774,187.076 369.002,196.101 368.978 C 205.027 368.955,209.553 368.551,215.741 367.226 C 217.644 366.818,221.855 366.029,225.098 365.471 C 228.857 364.824,233.326 363.701,237.427 362.373 C 240.965 361.227,245.149 359.913,246.724 359.454 C 274.287 351.419,307.614 326.288,324.533 300.780 C 332.709 288.452,341.575 270.887,343.850 262.509 C 344.306 260.829,345.540 256.910,346.591 253.801 C 347.896 249.943,348.885 245.982,349.708 241.326 C 350.371 237.573,351.169 233.363,351.482 231.969 C 354.110 220.255,354.239 205.145,351.818 192.398 C 351.289 189.610,350.595 185.224,350.276 182.651 C 349.210 174.049,348.909 172.608,347.307 168.456 C 346.430 166.185,345.101 162.310,344.353 159.844 C 343.239 156.170,335.296 137.540,332.549 132.154 C 331.464 130.029,319.955 114.057,316.964 110.526 C 306.169 97.786,306.845 98.505,301.754 94.321 C 300.361 93.175,297.723 90.903,295.894 89.272 C 288.494 82.674,276.751 74.603,269.396 71.059 C 260.427 66.737,249.736 62.198,246.199 61.210 C 244.483 60.730,241.093 59.562,238.665 58.615 C 233.862 56.739,230.678 55.990,224.913 55.378 C 222.855 55.159,217.504 54.345,213.022 53.568 C 204.057 52.014,190.833 51.447,183.041 52.283 M221.962 69.423 C 222.998 69.625,225.805 70.653,228.200 71.706 C 230.594 72.759,234.396 74.182,236.647 74.869 C 238.899 75.555,243.460 77.166,246.784 78.447 C 250.107 79.729,255.097 81.549,257.873 82.492 C 263.399 84.370,264.570 85.032,269.201 88.895 C 270.916 90.327,274.250 92.875,276.608 94.558 C 278.967 96.241,282.827 99.135,285.185 100.989 C 287.544 102.842,290.526 105.024,291.813 105.837 C 295.860 108.394,296.933 109.452,299.842 113.749 C 301.401 116.051,304.112 119.776,305.868 122.027 C 307.623 124.279,310.554 128.256,312.382 130.865 C 314.210 133.474,316.876 136.951,318.307 138.592 C 321.116 141.812,321.890 143.295,323.200 147.964 C 323.666 149.626,325.159 153.820,326.518 157.283 C 327.876 160.746,329.800 166.204,330.794 169.412 C 331.788 172.619,333.295 176.872,334.144 178.862 C 336.552 184.512,336.537 184.326,336.333 206.534 C 336.023 240.264,335.711 242.998,330.819 254.776 C 311.983 300.128,287.226 325.464,243.080 344.567 C 227.674 351.234,224.764 351.643,190.711 351.932 C 168.929 352.117,169.312 352.150,163.228 349.552 C 161.002 348.601,157.268 347.213,154.931 346.469 C 152.594 345.724,147.349 343.896,143.275 342.405 C 139.201 340.915,134.288 339.209,132.359 338.616 C 127.690 337.179,125.838 336.178,122.770 333.434 C 121.356 332.169,118.637 330.014,116.727 328.645 C 114.818 327.276,110.838 324.341,107.884 322.123 C 104.929 319.906,100.806 316.978,98.722 315.617 C 94.294 312.725,92.693 311.139,90.435 307.407 C 89.527 305.906,87.097 302.486,85.035 299.807 C 82.974 297.128,79.815 292.917,78.015 290.450 C 76.216 287.983,73.633 284.782,72.274 283.336 C 69.330 280.202,68.614 278.886,67.223 274.043 C 66.643 272.023,65.071 267.563,63.730 264.133 C 62.389 260.702,60.555 255.526,59.654 252.632 C 58.753 249.737,57.122 245.263,56.029 242.690 L 54.042 238.012 53.697 227.485 C 53.190 211.984,54.047 181.695,55.099 177.916 C 57.787 168.268,67.590 147.095,74.445 136.131 C 91.526 108.813,113.045 91.088,146.589 76.709 C 161.925 70.134,162.439 70.015,178.168 69.394 C 184.279 69.152,189.981 68.920,190.838 68.878 C 195.207 68.665,220.333 69.104,221.962 69.423 M178.947 82.469 C 90.499 96.407,40.717 188.380,79.459 266.276 C 95.881 299.294,121.638 321.794,155.964 333.109 C 203.078 348.639,256.810 334.294,290.161 297.280 C 328.816 254.382,334.822 195.298,305.717 144.250 C 289.696 116.149,257.305 92.262,225.341 84.975 C 213.487 82.273,188.693 80.933,178.947 82.469 M205.068 84.242 C 225.369 85.419,243.331 91.111,261.863 102.240 C 282.943 114.900,308.305 144.612,308.370 156.725 C 308.402 162.557,306.489 163.951,291.813 168.795 C 276.308 173.912,273.724 175.464,273.400 179.853 C 272.920 186.358,278.007 187.515,288.304 183.242 C 308.835 174.721,309.242 174.600,312.781 175.987 C 319.067 178.449,321.311 186.664,321.895 209.357 C 323.504 271.871,275.234 327.771,212.086 336.524 C 206.511 337.296,184.886 337.154,178.558 336.303 C 130.122 329.789,89.646 296.174,74.273 249.696 C 65.672 223.694,66.276 192.059,75.856 166.819 C 91.937 124.448,128.949 93.508,173.294 85.366 C 184.065 83.388,187.957 83.250,205.068 84.242 M168.988 129.612 C 167.727 130.873,167.756 132.168,169.173 137.887 C 170.516 143.306,174.501 161.825,176.122 170.175 C 176.746 173.392,177.926 178.216,178.743 180.897 C 180.037 185.136,180.235 186.302,180.271 189.864 C 180.314 194.126,180.262 194.342,178.051 199.220 C 172.519 211.427,174.646 221.123,184.431 228.305 C 189.611 232.107,190.780 233.823,192.412 240.017 C 194.578 248.238,195.760 248.697,206.823 245.621 C 216.138 243.031,216.796 241.945,213.994 233.798 C 211.583 226.790,211.588 225.654,214.058 216.764 C 217.127 205.723,213.138 196.808,202.729 191.446 C 195.977 187.967,194.416 185.379,188.360 167.628 C 186.863 163.240,184.769 157.807,183.706 155.556 C 182.643 153.304,180.237 147.602,178.358 142.885 C 174.040 132.042,173.025 130.008,171.559 129.249 C 170.086 128.488,170.117 128.483,168.988 129.612 M200.181 195.140 C 206.579 196.806,209.785 200.522,210.912 207.576 C 214.076 227.384,183.585 234.451,179.388 214.882 C 176.639 202.062,187.429 191.818,200.181 195.140 " stroke="none" fill="#6a5e6e" fill-rule="evenodd"></path><path id="path3" d="M0.000 194.932 L 0.000 389.864 200.000 389.864 L 400.000 389.864 400.000 194.932 L 400.000 0.000 200.000 0.000 L 0.000 0.000 0.000 194.932 M208.772 42.891 C 223.676 43.680,236.627 46.412,251.852 51.978 C 272.555 59.547,285.662 66.954,300.544 79.493 C 302.988 81.551,306.672 84.612,308.731 86.293 C 314.873 91.308,321.207 98.521,332.063 112.865 C 339.372 122.524,339.969 123.496,344.694 133.438 C 359.039 163.621,362.717 179.337,362.736 210.526 C 362.750 232.875,361.898 239.124,356.105 259.157 C 344.288 300.021,315.580 336.095,277.778 357.582 C 264.937 364.881,241.727 373.162,225.146 376.360 C 210.028 379.276,176.651 378.988,162.016 375.814 C 144.281 371.968,117.237 361.327,106.239 353.866 C 101.978 350.976,92.087 343.531,88.413 340.449 C 86.423 338.780,83.041 335.994,80.897 334.257 C 75.226 329.664,68.684 322.208,57.193 307.243 C 46.189 292.912,36.785 271.872,30.990 248.617 C 25.442 226.352,25.698 192.793,31.588 170.350 C 40.720 135.550,53.303 113.559,77.654 89.847 C 100.509 67.592,121.413 55.943,154.329 47.121 C 169.961 42.931,185.995 41.686,208.772 42.891 " stroke="none" fill="#fbfbfb" fill-rule="evenodd"></path><path id="path4" d="M180.117 47.986 C 100.368 55.809,37.521 120.420,32.322 199.928 C 29.477 243.431,44.025 285.039,74.015 319.175 C 90.425 337.852,111.440 352.284,137.232 362.588 C 197.863 386.810,270.905 369.446,315.480 320.214 C 338.073 295.261,351.597 265.684,356.988 229.435 C 357.974 222.806,357.985 199.386,357.006 192.159 C 350.804 146.376,329.869 109.526,293.933 81.134 C 272.203 63.965,245.023 52.869,214.035 48.516 C 208.712 47.769,185.959 47.413,180.117 47.986 M207.074 49.914 C 242.900 53.478,273.749 66.308,298.859 88.088 C 308.059 96.068,309.475 97.438,314.222 102.946 C 331.448 122.937,340.122 137.998,347.908 161.437 C 351.668 172.755,351.389 171.609,353.404 184.016 C 356.210 201.289,356.776 217.177,354.986 228.396 C 353.472 237.882,350.795 250.207,349.113 255.436 C 348.126 258.504,346.789 262.658,346.142 264.667 C 341.887 277.881,330.544 298.596,320.970 310.638 C 299.590 337.529,272.156 355.265,235.283 366.034 C 232.299 366.905,218.870 369.611,212.671 370.589 C 195.816 373.250,166.146 370.263,147.962 364.074 C 109.422 350.956,85.170 332.845,60.862 299.025 C 52.065 286.787,40.233 258.794,37.956 244.834 C 37.624 242.797,36.763 237.622,36.043 233.333 C 32.881 214.487,33.127 201.973,37.061 181.623 C 44.781 141.691,62.915 111.279,95.206 84.110 C 114.948 67.500,153.622 52.248,182.261 49.778 C 186.024 49.454,203.402 49.549,207.074 49.914 M179.142 86.386 C 140.273 92.369,109.397 112.690,88.402 146.104 C 65.909 181.904,63.992 226.506,83.271 265.521 C 90.903 280.967,94.563 286.068,106.783 298.283 C 120.791 312.287,128.383 317.378,148.642 326.352 C 169.371 335.534,201.789 337.964,225.666 332.125 C 280.536 318.706,322.896 263.668,320.303 209.162 C 319.129 184.502,317.356 178.781,310.526 177.616 L 308.967 177.350 310.160 178.098 C 315.888 181.689,318.365 194.982,317.620 218.129 C 316.681 247.291,301.210 280.095,279.142 299.713 C 254.268 321.826,230.995 331.846,204.288 331.942 C 175.573 332.044,162.530 329.820,147.405 322.241 C 144.567 320.819,141.338 319.298,140.229 318.860 C 133.365 316.155,125.707 311.394,119.512 305.982 C 113.049 300.336,100.079 287.341,97.743 284.170 C 93.630 278.588,90.846 274.159,89.034 270.317 C 88.037 268.202,85.587 263.051,83.591 258.869 C 78.950 249.154,75.667 238.016,74.510 228.070 C 70.213 191.133,78.101 162.615,100.336 134.698 C 104.026 130.065,115.437 118.627,118.728 116.264 C 120.007 115.346,123.722 112.626,126.984 110.221 C 144.502 97.307,167.490 89.122,186.160 89.152 C 204.546 89.181,216.280 89.547,219.688 90.197 C 243.575 94.751,264.254 105.992,282.303 124.235 C 299.445 141.562,306.863 154.838,303.049 161.369 L 302.005 163.158 303.342 162.155 C 307.771 158.830,307.329 153.718,301.826 144.646 C 285.227 117.281,254.630 95.211,223.782 88.352 C 213.675 86.105,188.244 84.984,179.142 86.386 M192.983 96.324 C 189.074 97.963,187.592 102.345,188.310 110.136 C 188.527 112.495,188.857 117.354,189.044 120.933 C 189.328 126.380,189.522 127.729,190.236 129.203 C 192.627 134.144,198.394 133.513,200.282 128.105 C 201.469 124.705,201.306 103.179,200.069 100.106 C 198.725 96.764,195.737 95.170,192.983 96.324 M129.692 117.760 C 126.473 120.292,127.327 123.976,133.116 132.526 C 135.521 136.079,138.408 140.516,139.531 142.385 C 143.191 148.477,147.248 150.167,150.880 147.112 C 154.731 143.871,154.168 139.108,149.275 133.528 C 147.959 132.027,145.915 129.483,144.732 127.875 C 137.536 118.092,136.291 116.959,132.734 116.959 C 131.282 116.959,130.422 117.186,129.692 117.760 M253.002 119.285 C 250.507 120.604,241.780 132.103,238.791 138.010 C 235.360 144.789,240.445 150.187,246.489 146.184 C 249.358 144.283,259.169 130.233,260.269 126.449 C 261.972 120.589,257.980 116.653,253.002 119.285 M167.446 123.155 C 162.476 125.451,161.284 131.061,164.666 136.236 C 165.368 137.310,167.024 142.327,167.633 145.224 C 168.111 147.499,168.491 149.144,169.748 154.386 C 170.867 159.051,171.491 163.509,171.716 168.425 C 171.838 171.108,172.024 173.740,172.128 174.273 C 172.232 174.807,172.427 175.826,172.562 176.538 C 172.696 177.251,173.199 178.654,173.678 179.657 C 175.777 184.052,175.880 186.409,174.155 190.556 C 173.644 191.784,172.833 193.928,172.352 195.322 C 171.871 196.715,170.852 199.610,170.086 201.754 C 166.239 212.537,170.018 226.255,178.473 232.201 C 179.913 233.214,181.881 234.792,182.846 235.709 C 183.811 236.625,185.426 238.104,186.436 238.995 C 187.828 240.224,188.750 241.605,190.257 244.722 C 193.520 251.470,194.964 252.026,205.263 250.503 C 219.453 248.405,223.525 244.404,219.657 236.362 C 217.733 232.361,218.086 225.608,220.628 217.833 C 224.206 206.885,218.777 192.696,209.021 187.505 C 207.229 186.551,205.123 185.233,204.343 184.578 C 203.562 183.922,202.222 182.971,201.365 182.466 C 195.583 179.056,193.358 175.056,191.447 164.639 C 190.252 158.127,189.810 156.965,187.101 153.216 C 184.455 149.556,184.073 148.772,180.723 140.156 C 179.055 135.867,177.360 131.615,176.955 130.706 C 176.550 129.797,176.218 128.907,176.218 128.729 C 176.218 128.197,174.912 125.747,174.067 124.692 C 172.460 122.688,169.798 122.070,167.446 123.155 M173.560 126.983 C 175.166 128.536,176.276 130.904,180.741 142.300 C 182.379 146.481,184.658 151.883,185.805 154.303 C 186.952 156.723,188.798 161.460,189.908 164.829 C 195.685 182.365,197.583 185.378,205.759 189.995 C 212.400 193.745,215.729 198.166,217.314 205.340 C 218.356 210.057,218.182 212.283,216.176 219.883 C 214.662 225.622,214.756 228.471,216.624 233.438 C 220.455 243.630,219.065 245.279,203.387 249.140 C 194.776 251.260,193.060 250.324,190.407 242.057 C 188.236 235.293,187.386 234.069,182.016 229.981 C 172.046 222.391,169.579 210.871,175.282 198.526 C 178.228 192.147,178.381 188.736,176.082 180.679 C 174.318 174.501,174.069 173.391,173.110 167.446 C 172.247 162.100,168.379 144.673,166.447 137.427 C 164.591 130.468,165.031 127.332,168.079 125.799 C 169.930 124.868,171.789 125.269,173.560 126.983 M289.864 166.727 C 278.706 169.083,269.348 173.635,266.636 178.023 C 264.801 180.992,267.602 189.238,271.077 191.098 C 274.022 192.674,282.903 190.155,290.134 185.692 C 292.688 184.115,292.928 183.646,290.613 184.752 C 278.766 190.417,271.702 189.363,270.549 181.761 C 269.576 175.349,274.020 171.915,289.084 167.440 C 291.783 166.638,292.233 166.226,289.864 166.727 M90.981 169.169 C 88.564 170.643,87.788 173.322,89.064 175.790 C 92.152 181.761,113.762 189.544,119.298 186.678 C 125.820 183.302,121.873 175.546,112.401 173.124 C 110.512 172.641,106.192 171.385,102.801 170.333 C 95.846 168.176,93.059 167.902,90.981 169.169 M112.183 178.897 C 114.063 179.856,114.505 180.722,113.413 181.307 C 111.384 182.392,104.974 179.395,106.335 177.997 C 106.832 177.487,110.537 178.058,112.183 178.897 M111.501 226.520 C 108.533 227.040,91.648 231.938,90.100 232.727 C 84.616 235.525,84.271 241.503,89.479 243.493 C 93.395 244.988,106.942 242.468,114.680 238.805 C 124.847 233.991,122.419 224.606,111.501 226.520 M274.659 226.873 C 266.869 228.753,269.873 237.594,279.290 240.503 C 283.659 241.852,294.609 242.814,297.661 242.116 C 306.813 240.024,298.859 229.871,286.657 228.070 C 285.204 227.856,282.612 227.423,280.897 227.109 C 277.492 226.486,276.430 226.445,274.659 226.873 M110.549 233.736 C 110.133 234.050,109.344 234.302,108.795 234.296 C 107.834 234.284,107.825 234.262,108.554 233.711 C 108.970 233.396,109.760 233.144,110.308 233.151 C 111.270 233.163,111.279 233.184,110.549 233.736 M287.888 234.262 C 291.698 235.512,289.926 237.002,285.780 236.035 C 282.923 235.368,281.769 234.810,281.974 234.195 C 282.343 233.087,284.377 233.110,287.888 234.262 M138.886 268.419 C 136.227 269.574,130.748 275.463,122.507 286.023 C 114.885 295.790,124.017 303.088,132.617 294.102 C 136.491 290.055,144.300 280.396,145.469 278.205 C 148.820 271.930,144.745 265.872,138.886 268.419 M245.184 269.111 C 240.541 272.213,241.468 276.959,248.050 283.784 C 250.463 286.285,253.786 289.836,255.435 291.675 C 264.806 302.126,272.840 294.703,264.147 283.626 C 262.969 282.125,260.682 279.142,259.064 276.998 C 252.950 268.894,252.165 268.230,248.693 268.228 C 247.070 268.226,246.169 268.453,245.184 269.111 " stroke="none" fill="#7c929c" fill-rule="evenodd"></path><path id="path5" d="M182.261 49.778 C 153.622 52.248,114.948 67.500,95.206 84.110 C 62.915 111.279,44.781 141.691,37.061 181.623 C 33.127 201.973,32.881 214.487,36.043 233.333 C 36.763 237.622,37.624 242.797,37.956 244.834 C 40.233 258.794,52.065 286.787,60.862 299.025 C 85.170 332.845,109.422 350.956,147.962 364.074 C 166.146 370.263,195.816 373.250,212.671 370.589 C 218.870 369.611,232.299 366.905,235.283 366.034 C 272.156 355.265,299.590 337.529,320.970 310.638 C 330.544 298.596,341.887 277.881,346.142 264.667 C 346.789 262.658,348.126 258.504,349.113 255.436 C 350.795 250.207,353.472 237.882,354.986 228.396 C 355.839 223.049,356.202 205.723,355.593 199.394 C 355.118 194.449,351.954 174.360,351.237 171.735 C 346.546 154.559,336.832 132.803,328.866 121.637 C 320.961 110.556,311.781 99.510,306.704 94.969 C 284.124 74.773,270.520 66.567,245.224 57.882 C 226.367 51.407,201.094 48.154,182.261 49.778 M213.022 53.568 C 217.504 54.345,222.855 55.159,224.913 55.378 C 230.678 55.990,233.862 56.739,238.665 58.615 C 241.093 59.562,244.483 60.730,246.199 61.210 C 249.736 62.198,260.427 66.737,269.396 71.059 C 276.751 74.603,288.494 82.674,295.894 89.272 C 297.723 90.903,300.361 93.175,301.754 94.321 C 306.040 97.844,307.078 98.868,310.761 103.210 C 312.719 105.519,315.511 108.811,316.964 110.526 C 319.955 114.057,331.464 130.029,332.549 132.154 C 335.296 137.540,343.239 156.170,344.353 159.844 C 345.101 162.310,346.430 166.185,347.307 168.456 C 348.909 172.608,349.210 174.049,350.276 182.651 C 350.595 185.224,351.289 189.610,351.818 192.398 C 354.239 205.145,354.110 220.255,351.482 231.969 C 351.169 233.363,350.371 237.573,349.708 241.326 C 348.885 245.982,347.896 249.943,346.591 253.801 C 345.540 256.910,344.306 260.829,343.850 262.509 C 341.575 270.887,332.709 288.452,324.533 300.780 C 307.614 326.288,274.287 351.419,246.724 359.454 C 245.149 359.913,240.965 361.227,237.427 362.373 C 233.326 363.701,228.857 364.824,225.098 365.471 C 221.855 366.029,217.644 366.818,215.741 367.226 C 209.553 368.551,205.027 368.955,196.101 368.978 C 187.076 369.002,184.618 368.774,175.210 367.041 C 172.403 366.524,167.667 365.823,164.683 365.483 C 158.187 364.744,157.320 364.539,152.047 362.495 C 149.795 361.622,146.345 360.404,144.378 359.787 C 139.837 358.364,118.586 349.178,115.792 347.431 C 114.535 346.644,103.592 338.892,99.874 336.154 C 98.303 334.998,95.038 332.355,92.618 330.281 C 90.198 328.207,87.154 325.634,85.853 324.561 C 83.293 322.451,72.436 309.965,68.224 304.288 C 59.909 293.081,58.426 290.822,55.920 285.546 C 51.703 276.665,46.911 265.167,45.788 261.236 C 45.211 259.214,44.053 255.913,43.215 253.900 C 41.381 249.492,40.760 246.847,40.172 240.936 C 39.927 238.470,39.224 233.821,38.610 230.604 C 36.996 222.152,37.020 222.337,36.659 215.596 C 36.159 206.260,36.704 197.975,38.355 189.829 C 39.112 186.095,40.100 180.848,40.551 178.168 C 41.055 175.169,42.175 170.895,43.462 167.057 C 44.612 163.626,45.858 159.678,46.231 158.285 C 48.404 150.162,57.637 131.584,64.808 120.903 C 73.807 107.499,91.693 89.377,103.899 81.295 C 115.932 73.327,135.026 63.638,142.713 61.599 C 143.665 61.347,147.602 60.120,151.462 58.874 C 155.511 57.567,160.541 56.254,163.353 55.769 C 166.033 55.308,170.770 54.419,173.879 53.795 C 186.204 51.319,199.600 51.242,213.022 53.568 M183.821 83.824 C 111.647 89.830,58.102 158.877,69.807 230.849 C 77.437 277.762,110.785 316.448,156.530 331.454 C 180.144 339.201,210.950 339.177,234.308 331.395 C 287.060 313.821,323.285 263.348,321.895 209.357 C 321.311 186.664,319.067 178.449,312.781 175.987 C 309.242 174.600,308.835 174.721,288.304 183.242 C 278.007 187.515,272.920 186.358,273.400 179.853 C 273.724 175.464,276.308 173.912,291.813 168.795 C 309.525 162.949,311.556 160.063,305.984 148.658 C 291.129 118.251,252.077 90.410,217.270 85.410 C 208.366 84.131,190.380 83.279,183.821 83.824 M203.578 86.158 C 225.345 87.131,243.294 92.702,261.938 104.271 C 281.417 116.359,304.911 143.347,306.321 155.256 C 306.960 160.652,303.803 163.155,292.005 166.606 C 273.836 171.919,269.518 174.969,270.549 181.761 C 271.870 190.468,279.010 190.609,295.574 182.256 C 313.597 173.167,318.048 176.158,319.662 198.441 C 320.769 213.725,320.572 220.366,318.683 231.576 C 309.227 287.670,259.486 332.746,204.401 335.140 C 183.754 336.037,163.190 332.796,148.642 326.352 C 128.383 317.378,120.791 312.287,106.783 298.283 C 74.279 265.790,62.303 219.358,75.083 175.375 C 87.474 132.730,126.669 96.569,169.685 88.097 C 182.124 85.647,186.524 85.396,203.578 86.158 M168.079 125.799 C 165.031 127.332,164.591 130.468,166.447 137.427 C 168.379 144.673,172.247 162.100,173.110 167.446 C 174.069 173.391,174.318 174.501,176.082 180.679 C 178.381 188.736,178.228 192.147,175.282 198.526 C 169.579 210.871,172.046 222.391,182.016 229.981 C 187.386 234.069,188.236 235.293,190.407 242.057 C 193.060 250.324,194.776 251.260,203.387 249.140 C 219.065 245.279,220.455 243.630,216.624 233.438 C 214.756 228.471,214.662 225.622,216.176 219.883 C 218.182 212.283,218.356 210.057,217.314 205.340 C 215.729 198.166,212.400 193.745,205.759 189.995 C 197.583 185.378,195.685 182.365,189.908 164.829 C 188.798 161.460,186.952 156.723,185.805 154.303 C 184.658 151.883,182.379 146.481,180.741 142.300 C 174.343 125.969,172.504 123.574,168.079 125.799 M171.559 129.249 C 173.025 130.008,174.040 132.042,178.358 142.885 C 180.237 147.602,182.643 153.304,183.706 155.556 C 184.769 157.807,186.863 163.240,188.360 167.628 C 194.416 185.379,195.977 187.967,202.729 191.446 C 213.138 196.808,217.127 205.723,214.058 216.764 C 211.588 225.654,211.583 226.790,213.994 233.798 C 216.796 241.945,216.138 243.031,206.823 245.621 C 195.760 248.697,194.578 248.238,192.412 240.017 C 190.780 233.823,189.611 232.107,184.431 228.305 C 174.646 221.123,172.519 211.427,178.051 199.220 C 180.262 194.342,180.314 194.126,180.271 189.864 C 180.235 186.302,180.037 185.136,178.743 180.897 C 177.926 178.216,176.746 173.392,176.122 170.175 C 174.501 161.825,170.516 143.306,169.173 137.887 C 167.756 132.168,167.727 130.873,168.988 129.612 C 170.117 128.483,170.086 128.488,171.559 129.249 M106.335 177.997 C 105.381 178.978,107.886 180.695,111.381 181.457 C 112.879 181.784,114.300 181.143,113.972 180.289 C 113.441 178.905,107.258 177.049,106.335 177.997 M108.554 233.711 C 107.825 234.262,107.834 234.284,108.795 234.296 C 109.344 234.302,110.133 234.050,110.549 233.736 C 111.279 233.184,111.270 233.163,110.308 233.151 C 109.760 233.144,108.970 233.396,108.554 233.711 M283.070 233.490 C 280.790 234.104,281.878 235.124,285.780 236.035 C 289.926 237.002,291.698 235.512,287.888 234.262 C 285.143 233.361,284.144 233.201,283.070 233.490 " stroke="none" fill="#747e8c" fill-rule="evenodd"></path><path id="path6" d="M179.188 42.940 C 148.358 44.698,111.935 59.763,87.329 80.934 C 57.386 106.698,41.679 131.894,31.588 170.350 C 25.698 192.793,25.442 226.352,30.990 248.617 C 36.785 271.872,46.189 292.912,57.193 307.243 C 68.684 322.208,75.226 329.664,80.897 334.257 C 83.041 335.994,86.423 338.780,88.413 340.449 C 92.087 343.531,101.978 350.976,106.239 353.866 C 117.237 361.327,144.281 371.968,162.016 375.814 C 176.651 378.988,210.028 379.276,225.146 376.360 C 241.727 373.162,264.937 364.881,277.778 357.582 C 315.580 336.095,344.288 300.021,356.105 259.157 C 361.898 239.124,362.750 232.875,362.736 210.526 C 362.717 179.337,359.039 163.621,344.694 133.438 C 339.969 123.496,339.372 122.524,332.063 112.865 C 321.207 98.521,314.873 91.308,308.731 86.293 C 306.672 84.612,302.988 81.551,300.544 79.493 C 280.694 62.768,257.312 51.654,228.460 45.230 C 217.803 42.857,197.331 41.906,179.188 42.940 M214.230 43.660 C 229.411 45.056,249.207 50.525,264.357 57.510 C 272.627 61.323,282.764 66.551,284.600 67.950 C 285.565 68.685,289.074 71.295,292.398 73.750 C 295.721 76.205,300.553 80.046,303.134 82.285 C 305.716 84.523,308.651 86.969,309.656 87.719 C 314.383 91.249,328.873 108.720,338.340 122.304 C 341.140 126.322,350.292 146.254,353.554 155.440 C 361.287 177.213,364.293 204.047,361.843 229.435 C 359.961 248.926,350.965 276.815,340.902 294.347 C 337.132 300.917,328.601 312.910,323.596 318.677 C 318.694 324.325,310.559 332.577,305.859 336.670 C 304.149 338.158,302.160 339.903,301.438 340.546 C 299.207 342.533,288.044 350.777,285.575 352.260 C 284.288 353.032,282.096 354.379,280.702 355.252 C 264.125 365.641,233.418 375.686,213.060 377.380 C 201.877 378.311,178.046 377.783,168.226 376.386 C 148.021 373.512,117.595 361.467,101.949 350.148 C 94.028 344.418,91.364 342.368,86.937 338.596 C 84.671 336.667,82.147 334.561,81.326 333.918 C 80.505 333.275,79.459 332.421,79.001 332.021 C 78.543 331.621,77.780 331.036,77.307 330.720 C 76.833 330.404,75.432 328.890,74.194 327.354 C 72.955 325.818,69.918 322.193,67.446 319.298 C 64.973 316.404,60.854 311.228,58.293 307.797 C 55.731 304.366,53.541 301.472,53.426 301.365 C 51.049 299.154,41.132 278.406,37.121 267.251 C 28.799 244.109,26.013 221.483,28.073 193.762 C 29.898 169.211,40.238 139.472,54.304 118.324 C 69.851 94.948,95.103 72.174,117.739 61.113 C 148.647 46.011,179.366 40.454,214.230 43.660 M249.705 107.216 C 249.207 108.023,249.981 109.108,251.485 109.710 C 253.419 110.484,255.595 110.520,255.877 109.783 C 256.436 108.328,250.535 105.873,249.705 107.216 M267.516 118.012 C 266.244 120.434,268.474 126.198,271.780 129.039 C 274.960 131.771,274.877 131.653,276.388 135.623 C 279.694 144.313,286.400 156.517,288.807 158.223 C 290.415 159.363,296.533 157.607,298.585 155.416 C 301.259 152.563,291.821 137.974,282.092 129.921 C 280.168 128.329,277.736 125.946,276.686 124.624 C 272.066 118.808,268.462 116.210,267.516 118.012 M305.746 186.751 C 299.016 189.143,297.541 190.717,298.060 194.955 C 298.151 195.693,298.406 198.577,298.627 201.365 C 299.061 206.837,299.489 209.828,300.190 212.281 C 301.161 215.682,301.374 217.523,301.274 221.645 L 301.170 225.941 302.605 227.883 C 312.400 241.129,314.018 237.388,313.403 202.924 C 313.097 185.802,312.423 184.378,305.746 186.751 M300.906 247.732 C 292.747 249.966,292.702 250.004,289.885 256.920 C 287.356 263.132,283.706 270.279,279.484 277.292 C 274.721 285.202,274.760 285.092,274.918 289.963 C 275.158 297.392,277.125 296.801,286.089 286.609 C 299.867 270.944,312.276 245.801,305.914 246.439 C 305.663 246.465,303.410 247.046,300.906 247.732 M189.474 284.389 C 184.756 284.967,184.165 285.158,183.896 286.187 C 183.787 286.601,183.409 286.940,183.054 286.940 C 182.700 286.940,182.507 287.097,182.626 287.289 C 182.744 287.481,182.568 287.742,182.234 287.871 C 181.900 287.999,181.728 288.268,181.852 288.468 C 181.976 288.669,181.722 288.946,181.287 289.084 C 180.844 289.224,180.612 289.523,180.760 289.763 C 180.930 290.037,180.793 290.102,180.381 289.944 C 180.026 289.808,179.777 289.822,179.826 289.975 C 179.992 290.491,178.624 292.095,178.227 291.849 C 178.011 291.716,177.721 291.963,177.583 292.398 C 177.445 292.833,177.182 293.096,176.998 292.982 C 176.815 292.869,176.549 293.139,176.409 293.582 C 176.214 294.194,176.030 294.286,175.642 293.964 C 175.251 293.640,175.144 293.704,175.187 294.236 C 175.220 294.639,175.019 294.884,174.709 294.818 C 174.369 294.747,174.257 294.923,174.402 295.301 C 174.528 295.629,174.440 295.855,174.206 295.804 C 173.122 295.567,173.653 296.581,175.022 297.363 C 182.584 301.681,209.851 301.014,217.233 296.330 C 221.964 293.329,221.821 287.422,216.959 284.990 C 214.602 283.811,197.282 283.433,189.474 284.389 M177.778 303.432 C 168.335 305.874,165.431 313.200,172.350 317.125 C 175.698 319.024,196.120 319.011,197.699 317.109 C 197.945 316.812,198.388 316.569,198.683 316.569 C 198.979 316.569,199.220 316.235,199.220 315.826 C 199.220 315.258,199.427 315.128,200.097 315.275 C 200.806 315.430,200.862 315.386,200.390 315.044 C 199.894 314.684,199.937 314.584,200.678 314.381 C 201.158 314.249,201.455 313.986,201.337 313.796 C 201.220 313.606,201.339 313.450,201.601 313.450 C 201.864 313.450,201.969 313.340,201.835 313.206 C 201.701 313.072,202.154 312.585,202.842 312.124 C 203.530 311.664,204.267 310.896,204.478 310.419 C 204.690 309.942,205.085 309.552,205.356 309.552 C 205.626 309.552,205.848 309.376,205.848 309.162 C 205.848 308.947,206.111 308.772,206.433 308.772 C 206.754 308.772,206.997 308.640,206.971 308.480 C 206.835 307.615,207.095 307.306,207.803 307.491 C 208.414 307.651,208.533 307.552,208.340 307.049 C 208.203 306.692,208.245 306.429,208.432 306.463 C 209.199 306.603,209.779 306.411,209.577 306.084 C 209.458 305.892,209.623 305.634,209.944 305.511 C 211.548 304.896,208.225 303.864,201.559 302.908 C 196.506 302.183,181.313 302.517,177.778 303.432 M256.543 305.311 C 255.586 305.735,252.779 307.706,250.306 309.690 C 247.832 311.674,244.652 314.111,243.237 315.105 C 241.823 316.099,240.376 317.356,240.021 317.897 L 239.376 318.881 241.407 318.662 C 246.504 318.112,261.454 310.017,263.234 306.843 C 264.552 304.492,260.488 303.561,256.543 305.311 M218.091 308.442 C 217.907 308.740,217.986 308.786,218.324 308.577 C 218.671 308.362,218.740 308.413,218.539 308.738 C 218.377 309.000,218.001 309.122,217.704 309.007 C 217.407 308.893,217.182 308.925,217.205 309.078 C 217.327 309.897,217.103 310.346,216.698 310.096 C 216.394 309.908,216.322 310.024,216.483 310.442 C 216.642 310.857,216.466 311.153,215.965 311.312 C 215.547 311.445,215.205 311.809,215.205 312.120 C 215.205 312.432,214.759 312.890,214.215 313.138 C 213.650 313.396,213.310 313.810,213.423 314.105 C 213.555 314.448,213.292 314.620,212.635 314.620 C 212.093 314.620,211.751 314.783,211.873 314.982 C 211.996 315.181,211.741 315.456,211.306 315.595 C 210.871 315.733,210.604 315.990,210.713 316.167 C 210.822 316.343,210.638 316.592,210.304 316.721 C 208.692 317.339,210.397 317.832,213.485 317.640 C 218.179 317.347,220.261 315.916,220.874 312.563 C 221.272 310.386,218.984 306.998,218.091 308.442 " stroke="none" fill="#b5e5ea" fill-rule="evenodd"></path><path id="path7" d="M186.160 45.662 C 153.705 46.719,115.133 61.417,91.228 81.836 C 68.440 101.300,55.043 118.698,44.483 142.541 C 25.502 185.398,25.016 232.487,43.116 275.140 C 46.026 281.998,52.949 295.479,55.280 298.830 C 77.316 330.501,99.761 349.241,132.060 362.939 C 195.074 389.662,269.545 373.326,316.433 322.494 C 360.586 274.627,372.605 203.344,346.391 144.811 C 337.289 124.489,323.926 104.986,310.477 92.398 C 274.349 58.582,235.689 44.048,186.160 45.662 M214.035 48.516 C 245.023 52.869,272.203 63.965,293.933 81.134 C 329.869 109.526,350.804 146.376,357.006 192.159 C 357.985 199.386,357.974 222.806,356.988 229.435 C 351.597 265.684,338.073 295.261,315.480 320.214 C 273.093 367.029,203.878 385.473,145.456 365.521 C 111.341 353.870,85.044 335.032,64.330 307.407 C 44.322 280.724,33.266 248.920,32.135 214.795 C 29.589 137.966,82.875 69.315,158.729 51.696 C 176.009 47.682,198.778 46.373,214.035 48.516 M167.934 119.112 C 159.215 121.282,157.555 126.714,161.083 141.520 C 164.397 155.424,167.294 168.121,168.419 173.663 C 169.804 180.492,171.217 186.133,172.417 189.631 L 173.341 192.323 174.216 190.289 C 175.880 186.422,175.758 184.011,173.678 179.657 C 173.199 178.654,172.696 177.251,172.562 176.538 C 172.427 175.826,172.232 174.807,172.128 174.273 C 172.024 173.740,171.838 171.108,171.716 168.425 C 171.491 163.509,170.867 159.051,169.748 154.386 C 168.491 149.144,168.111 147.499,167.633 145.224 C 167.024 142.327,165.368 137.310,164.666 136.236 C 159.954 129.026,165.579 119.754,172.507 123.314 C 173.757 123.956,176.218 127.547,176.218 128.729 C 176.218 128.907,176.550 129.797,176.955 130.706 C 177.360 131.615,179.055 135.867,180.723 140.156 C 184.073 148.772,184.455 149.556,187.101 153.216 C 189.810 156.965,190.252 158.127,191.447 164.639 C 192.352 169.573,194.151 175.225,195.494 177.352 C 196.769 179.373,202.757 184.035,202.717 182.975 C 202.669 181.760,193.403 156.920,190.160 149.318 C 189.200 147.066,186.615 140.708,184.417 135.188 C 178.348 119.950,175.546 117.218,167.934 119.112 M301.657 153.785 C 301.067 154.496,300.585 155.355,300.585 155.694 C 300.585 157.816,296.138 160.097,291.228 160.492 C 289.511 160.630,287.363 161.117,286.024 161.672 C 284.770 162.191,281.613 163.408,279.010 164.377 C 268.447 168.307,265.887 170.708,265.887 176.686 L 265.887 179.128 266.821 177.753 C 269.849 173.297,281.492 167.875,290.643 166.658 C 301.350 165.235,305.739 160.942,303.642 153.944 C 303.101 152.140,303.027 152.134,301.657 153.785 M304.094 178.307 C 300.705 179.515,296.512 181.669,292.011 184.514 C 283.601 189.831,274.170 192.887,271.306 191.224 C 271.006 191.050,271.194 191.383,271.724 191.965 C 274.765 195.301,278.888 195.327,288.756 192.071 C 292.435 190.857,295.680 189.862,295.968 189.860 C 296.256 189.858,297.131 189.251,297.912 188.510 C 302.312 184.339,308.933 182.262,311.237 184.330 C 312.504 185.467,315.470 186.021,315.166 185.063 C 313.115 178.602,309.484 176.386,304.094 178.307 M218.978 225.731 C 217.658 229.338,217.869 232.644,219.657 236.362 C 223.525 244.404,219.453 248.405,205.263 250.503 C 194.953 252.028,193.522 251.474,190.242 244.690 C 188.273 240.620,184.109 235.781,183.681 237.066 C 183.223 238.439,185.487 248.206,186.916 251.026 C 190.488 258.074,195.893 258.391,213.060 252.559 C 225.930 248.188,227.766 242.808,221.085 229.045 C 219.935 226.676,219.108 225.376,218.978 225.731 " stroke="none" fill="#b4b4bc" fill-rule="evenodd"></path><path id="path8" d="M181.141 43.272 C 161.478 44.391,139.041 50.705,117.739 61.113 C 95.103 72.174,69.851 94.948,54.304 118.324 C 40.238 139.472,29.898 169.211,28.073 193.762 C 26.013 221.483,28.799 244.109,37.121 267.251 C 41.132 278.406,51.049 299.154,53.426 301.365 C 53.541 301.472,55.731 304.366,58.293 307.797 C 60.854 311.228,64.973 316.404,67.446 319.298 C 69.918 322.193,72.955 325.818,74.194 327.354 C 75.432 328.890,76.833 330.404,77.307 330.720 C 77.780 331.036,78.543 331.621,79.001 332.021 C 79.459 332.421,80.505 333.275,81.326 333.918 C 82.147 334.561,84.671 336.667,86.937 338.596 C 103.351 352.579,116.643 360.246,139.005 368.629 C 159.948 376.479,186.373 379.602,213.060 377.380 C 233.418 375.686,264.125 365.641,280.702 355.252 C 282.096 354.379,284.288 353.032,285.575 352.260 C 288.044 350.777,299.207 342.533,301.438 340.546 C 302.160 339.903,304.149 338.158,305.859 336.670 C 310.559 332.577,318.694 324.325,323.596 318.677 C 327.826 313.803,333.781 305.613,339.018 297.466 C 349.440 281.256,359.830 250.285,361.843 229.435 C 364.293 204.047,361.287 177.213,353.554 155.440 C 350.292 146.254,341.140 126.322,338.340 122.304 C 328.873 108.720,314.383 91.249,309.656 87.719 C 308.651 86.969,305.716 84.523,303.134 82.285 C 300.553 80.046,295.721 76.205,292.398 73.750 C 289.074 71.295,285.565 68.685,284.600 67.950 C 283.635 67.214,279.776 65.067,276.023 63.178 C 242.860 46.482,217.658 41.195,181.141 43.272 M210.331 46.024 C 246.033 48.607,280.983 64.792,310.477 92.398 C 332.782 113.276,351.276 147.827,357.471 180.197 C 360.477 195.898,360.747 221.179,358.078 236.945 C 343.568 322.658,268.088 381.635,181.287 375.082 C 134.607 371.558,90.360 346.522,61.336 307.212 C 54.472 297.915,53.185 295.861,49.004 287.524 C 21.326 232.342,23.836 171.406,55.861 121.053 C 66.987 103.558,85.385 84.854,103.137 72.990 C 134.070 52.318,170.533 43.145,210.331 46.024 M298.613 155.387 C 297.488 156.588,295.849 157.352,292.416 158.279 C 290.716 158.738,289.707 159.249,289.304 159.855 L 288.708 160.753 291.443 160.498 C 296.498 160.029,300.830 157.618,300.510 155.453 C 300.334 154.261,299.689 154.239,298.613 155.387 M305.282 184.075 C 304.112 184.534,302.325 185.399,301.309 185.998 C 296.034 189.108,295.979 191.324,301.242 188.694 C 306.005 186.313,309.484 185.484,311.094 186.345 C 312.198 186.937,312.405 185.438,311.356 184.452 C 310.066 183.241,307.772 183.098,305.282 184.075 M178.202 285.426 C 171.311 286.225,168.437 290.253,171.702 294.534 C 172.741 295.896,174.838 296.438,174.373 295.224 C 174.257 294.924,174.399 294.753,174.709 294.818 C 175.019 294.884,175.220 294.639,175.187 294.236 C 175.144 293.704,175.251 293.640,175.642 293.964 C 176.030 294.286,176.214 294.194,176.409 293.582 C 176.549 293.139,176.815 292.869,176.998 292.982 C 177.182 293.096,177.445 292.833,177.583 292.398 C 177.721 291.963,178.011 291.716,178.227 291.849 C 178.624 292.095,179.992 290.491,179.826 289.975 C 179.777 289.822,180.026 289.808,180.381 289.944 C 180.793 290.102,180.930 290.037,180.760 289.763 C 180.612 289.523,180.844 289.224,181.287 289.084 C 181.722 288.946,181.976 288.669,181.852 288.468 C 181.728 288.268,181.900 287.999,182.234 287.871 C 182.568 287.742,182.744 287.481,182.626 287.289 C 182.507 287.097,182.689 286.940,183.030 286.940 C 183.371 286.940,183.763 286.633,183.902 286.257 C 184.040 285.882,184.342 285.446,184.572 285.289 C 185.104 284.924,181.943 284.993,178.202 285.426 M210.045 305.412 C 209.673 305.694,209.483 306.039,209.623 306.179 C 209.866 306.422,209.146 306.593,208.432 306.463 C 208.245 306.429,208.203 306.692,208.340 307.049 C 208.533 307.552,208.414 307.651,207.803 307.491 C 207.095 307.306,206.835 307.615,206.971 308.480 C 206.997 308.640,206.754 308.772,206.433 308.772 C 206.111 308.772,205.848 308.947,205.848 309.162 C 205.848 309.376,205.626 309.552,205.356 309.552 C 205.085 309.552,204.690 309.942,204.478 310.419 C 204.267 310.896,203.530 311.664,202.842 312.124 C 202.154 312.585,201.701 313.072,201.835 313.206 C 201.969 313.340,201.864 313.450,201.601 313.450 C 201.339 313.450,201.220 313.606,201.337 313.796 C 201.455 313.986,201.158 314.249,200.678 314.381 C 199.937 314.584,199.894 314.684,200.390 315.044 C 200.862 315.386,200.806 315.430,200.097 315.275 C 199.427 315.128,199.220 315.258,199.220 315.826 C 199.220 316.235,198.979 316.569,198.683 316.569 C 198.388 316.569,197.964 316.788,197.741 317.057 C 197.419 317.444,198.553 317.521,203.249 317.431 C 208.734 317.327,211.171 316.907,210.702 316.149 C 210.599 315.982,210.871 315.733,211.306 315.595 C 211.741 315.456,211.996 315.181,211.873 314.982 C 211.751 314.783,212.093 314.620,212.635 314.620 C 213.292 314.620,213.555 314.448,213.423 314.105 C 213.310 313.810,213.650 313.396,214.215 313.138 C 214.759 312.890,215.205 312.432,215.205 312.120 C 215.205 311.809,215.547 311.445,215.965 311.312 C 216.466 311.153,216.642 310.857,216.483 310.442 C 216.322 310.024,216.394 309.908,216.698 310.096 C 217.103 310.346,217.327 309.897,217.205 309.078 C 217.182 308.925,217.407 308.893,217.704 309.007 C 218.001 309.122,218.377 309.000,218.539 308.738 C 218.745 308.405,218.669 308.361,218.286 308.592 C 217.839 308.861,217.827 308.813,218.218 308.329 C 219.338 306.945,211.643 304.198,210.045 305.412 " stroke="none" fill="#c4c4cc" fill-rule="evenodd"></path></g></svg>