<svg id="svg" version="1.1" xmlns="http://www.w3.org/2000/svg" xmlns:xlink="http://www.w3.org/1999/xlink" width="400" height="347.36842105263156" viewBox="0, 0, 400,347.36842105263156"><g id="svgg"><path id="path0" d="M233.189 21.455 C 231.205 22.220,230.030 23.411,228.657 26.050 C 225.512 32.096,221.002 34.042,214.858 32.004 C 210.412 30.530,208.049 30.783,206.757 32.873 C 205.930 34.211,205.935 34.425,206.951 40.916 C 208.094 48.221,206.255 51.717,200.145 53.856 C 196.791 55.030,196.581 55.244,196.030 58.041 C 195.470 60.888,196.064 62.137,198.618 63.483 C 206.563 67.668,208.690 72.029,206.446 79.535 C 204.219 86.986,208.428 90.300,215.764 86.872 C 218.610 85.542,218.543 85.535,222.870 87.561 C 226.736 89.371,227.121 89.735,228.170 92.569 C 230.097 97.774,234.868 100.056,237.075 96.826 C 237.482 96.230,238.334 95.193,238.967 94.522 C 239.601 93.851,240.554 92.443,241.085 91.394 C 242.119 89.353,242.357 89.189,247.694 86.844 L 250.209 85.739 252.733 87.004 C 260.212 90.753,264.019 87.587,262.006 79.292 C 260.946 74.927,261.835 69.383,263.822 67.965 C 265.330 66.888,268.449 65.018,269.852 64.349 C 272.444 63.114,273.357 61.395,272.796 58.802 C 272.088 55.530,271.980 55.412,268.429 54.036 C 262.135 51.597,260.609 47.711,262.417 38.727 C 263.811 31.800,262.307 30.477,254.971 32.178 C 247.456 33.921,242.663 31.812,240.678 25.891 C 239.540 22.495,235.972 20.382,233.189 21.455 M240.920 39.576 C 243.453 40.508,245.871 41.377,246.292 41.506 C 247.128 41.761,248.316 43.081,249.247 44.790 C 249.574 45.389,250.382 46.199,251.043 46.589 C 253.219 47.873,254.916 52.419,255.308 58.018 C 256.092 69.191,248.332 79.005,237.692 80.298 C 226.278 81.686,216.185 74.991,214.222 64.729 C 212.849 57.554,214.471 49.246,217.731 46.760 C 218.430 46.227,219.529 44.967,220.173 43.959 C 221.341 42.134,223.989 40.803,231.798 38.114 C 233.646 37.479,236.439 37.926,240.920 39.576 M281.147 67.932 C 280.669 68.200,279.237 68.677,277.965 68.991 C 274.220 69.918,272.569 73.441,273.502 78.517 C 274.440 83.621,273.750 85.452,268.914 90.702 C 263.569 96.505,260.667 97.626,253.599 96.623 C 249.804 96.084,248.835 96.381,246.533 98.787 C 244.110 101.320,244.093 101.349,243.290 104.346 C 241.988 109.204,243.048 112.580,246.443 114.389 C 248.016 115.228,248.742 115.882,249.436 117.088 C 249.941 117.963,250.872 119.297,251.506 120.051 C 253.135 121.988,253.464 123.547,253.230 128.236 C 252.925 134.374,251.857 136.273,246.047 141.001 C 243.334 143.209,242.156 145.041,242.428 146.627 C 244.345 157.833,244.565 158.044,254.071 157.832 C 260.314 157.693,261.560 157.981,263.249 159.956 C 263.941 160.764,265.159 161.863,265.956 162.399 C 268.197 163.905,268.625 164.385,269.893 166.811 C 270.542 168.054,271.395 169.618,271.787 170.287 C 272.518 171.532,272.566 175.774,271.902 180.350 C 271.691 181.802,271.752 181.965,272.878 182.956 C 273.539 183.538,274.578 184.666,275.188 185.463 C 278.265 189.486,286.123 189.796,288.074 185.971 C 288.448 185.237,289.327 184.184,290.026 183.630 C 290.725 183.077,292.102 181.809,293.086 180.812 C 295.573 178.293,296.051 178.159,302.520 178.177 C 309.029 178.196,310.134 178.502,311.582 180.690 C 312.132 181.521,313.226 182.496,314.213 183.033 C 315.566 183.769,316.076 184.320,316.778 185.805 C 318.053 188.499,318.712 188.820,322.591 188.635 C 326.535 188.447,328.980 187.500,330.359 185.627 C 330.871 184.931,331.815 183.861,332.457 183.250 C 333.795 181.974,333.889 181.213,333.060 178.361 C 332.183 175.346,332.529 171.723,333.872 169.842 C 334.448 169.035,335.271 167.672,335.701 166.811 C 336.705 164.800,337.649 163.779,339.275 162.945 C 339.994 162.577,341.167 161.644,341.881 160.872 C 344.244 158.321,347.401 157.623,352.848 158.451 C 357.957 159.227,360.855 157.634,361.983 153.432 C 364.008 145.884,363.977 145.748,359.318 141.594 C 354.290 137.112,353.068 134.885,352.826 129.760 C 352.571 124.345,352.841 122.925,354.462 121.162 C 355.191 120.370,356.242 118.946,356.798 117.997 C 357.533 116.744,358.349 115.957,359.785 115.118 C 365.626 111.705,363.810 99.742,357.111 97.500 C 355.657 97.014,355.018 96.987,352.812 97.322 C 347.595 98.112,342.434 96.725,340.403 93.985 C 339.828 93.210,338.693 92.072,337.882 91.456 C 334.906 89.199,333.358 84.055,334.213 79.270 C 335.254 73.451,334.143 71.428,328.866 69.524 C 327.182 68.917,325.457 68.195,325.034 67.920 C 323.356 66.830,318.788 68.448,317.342 70.643 C 315.858 72.896,314.183 74.367,311.034 76.185 L 308.080 77.889 303.527 77.772 C 297.182 77.609,295.306 76.698,290.090 71.247 L 286.428 67.420 284.222 67.432 C 282.997 67.439,281.629 67.661,281.147 67.932 M139.181 78.028 C 138.607 78.312,137.252 79.365,136.171 80.367 C 134.027 82.355,134.085 82.213,132.285 89.818 C 131.617 92.636,131.072 94.078,130.181 95.378 C 129.519 96.343,128.649 98.017,128.247 99.097 C 126.571 103.604,124.921 105.042,119.356 106.846 C 117.315 107.507,114.608 108.670,113.339 109.429 C 107.562 112.889,100.286 112.953,95.596 109.585 C 93.681 108.211,92.100 107.450,88.525 106.182 C 86.892 105.603,85.038 104.610,83.833 103.670 L 81.842 102.115 79.266 102.240 C 76.868 102.356,76.639 102.436,75.964 103.396 C 75.565 103.963,74.613 105.013,73.849 105.728 C 71.082 108.316,70.011 109.414,69.208 110.486 C 68.759 111.086,67.798 111.880,67.074 112.249 C 66.258 112.666,65.358 113.569,64.710 114.622 C 64.134 115.557,63.062 116.681,62.327 117.120 C 59.382 118.877,59.290 122.374,62.107 125.493 C 63.081 126.570,63.598 127.698,64.483 130.676 C 65.409 133.792,65.872 134.774,67.040 136.101 C 71.153 140.775,71.085 149.745,66.894 155.244 C 65.885 156.567,65.129 158.543,63.954 162.932 C 63.240 165.600,59.177 169.324,56.125 170.109 C 54.787 170.453,52.171 171.479,50.312 172.390 C 48.453 173.301,45.717 174.316,44.231 174.646 C 39.351 175.731,38.964 175.857,37.967 176.696 C 37.424 177.153,36.539 178.336,36.001 179.324 L 35.024 181.120 34.967 191.923 C 34.913 202.087,34.949 202.762,35.563 203.334 C 37.087 204.755,45.554 208.520,49.601 209.577 C 54.614 210.886,56.014 211.489,58.094 213.235 C 58.985 213.984,60.374 215.130,61.179 215.783 C 62.916 217.190,63.681 218.785,64.663 223.053 C 65.197 225.372,65.771 226.805,66.806 228.401 C 70.637 234.311,70.616 241.194,66.756 244.820 C 65.935 245.592,65.437 246.603,64.787 248.817 C 63.658 252.658,63.120 253.830,61.680 255.588 C 58.188 259.849,58.377 262.972,62.329 266.348 C 63.403 267.266,64.615 268.556,65.022 269.214 C 65.429 269.872,66.606 271.034,67.638 271.796 C 68.670 272.559,69.928 273.808,70.434 274.572 C 71.401 276.035,76.435 280.104,77.275 280.104 C 78.409 280.104,87.673 276.836,88.709 276.071 C 90.457 274.778,93.602 273.379,98.416 271.751 L 102.827 270.260 105.540 271.314 C 107.033 271.894,109.296 272.643,110.571 272.978 C 111.845 273.314,113.956 274.196,115.262 274.939 C 116.568 275.682,118.262 276.555,119.027 276.879 C 125.434 279.598,126.245 280.449,127.735 286.017 C 128.197 287.743,129.340 290.610,130.275 292.386 C 131.514 294.741,132.088 296.317,132.393 298.199 C 133.555 305.377,132.918 305.099,148.678 305.313 C 162.680 305.503,161.818 305.826,163.358 299.808 C 163.592 298.890,164.387 297.140,165.123 295.920 C 166.078 294.336,166.769 292.476,167.539 289.422 C 168.699 284.818,168.893 284.411,171.450 281.221 C 173.069 279.200,174.476 278.296,177.237 277.501 C 177.715 277.364,179.396 276.556,180.973 275.706 C 190.412 270.617,198.938 270.657,205.718 275.820 C 206.570 276.468,208.134 277.248,209.194 277.552 C 211.716 278.277,214.989 279.794,216.488 280.932 C 218.154 282.198,218.995 282.082,220.991 280.309 C 221.940 279.466,223.032 278.676,223.417 278.553 C 223.802 278.431,224.910 277.323,225.879 276.090 C 226.847 274.857,227.788 273.849,227.969 273.849 C 228.530 273.849,230.764 271.714,231.312 270.655 C 231.598 270.101,232.682 269.105,233.721 268.440 C 238.004 265.700,237.845 258.687,233.367 252.729 C 231.975 250.878,231.332 249.381,230.421 245.873 C 230.222 245.109,229.675 243.858,229.204 243.093 C 226.822 239.226,226.821 238.609,229.188 233.403 C 229.806 232.043,230.575 229.855,230.896 228.542 C 231.531 225.946,232.357 224.129,233.985 221.753 C 234.562 220.911,235.335 219.425,235.703 218.451 C 236.586 216.113,237.441 215.257,239.581 214.570 C 240.557 214.256,242.676 213.295,244.291 212.434 C 246.352 211.335,248.598 210.521,251.830 209.699 C 258.436 208.021,260.243 207.225,261.496 205.443 L 262.526 203.976 262.574 192.779 C 262.624 180.904,262.590 180.620,260.937 179.089 C 259.713 177.955,255.003 176.012,251.063 175.015 C 247.098 174.012,246.421 173.746,243.250 171.945 C 241.999 171.234,240.286 170.410,239.445 170.113 C 237.381 169.385,236.796 168.784,236.108 166.684 C 235.384 164.471,233.700 161.073,232.639 159.681 C 231.793 158.572,229.964 152.393,229.205 148.079 L 228.752 145.505 230.284 140.827 C 231.511 137.078,232.125 135.755,233.371 134.169 C 234.425 132.827,235.255 131.216,235.948 129.166 C 236.510 127.503,237.292 125.690,237.686 125.137 C 238.967 123.338,237.485 118.547,235.043 116.594 C 234.326 116.021,233.107 114.872,232.334 114.040 C 222.327 103.272,219.859 101.699,216.761 104.112 C 215.767 104.887,213.715 105.867,211.339 106.705 C 209.139 107.479,206.865 108.547,205.985 109.219 C 200.035 113.761,191.573 113.617,183.567 108.837 C 182.284 108.070,180.217 107.175,178.975 106.846 C 173.525 105.405,169.937 100.316,167.636 90.763 C 166.211 84.846,164.832 81.909,162.314 79.429 L 160.614 77.755 157.718 78.061 C 154.754 78.374,141.687 78.117,140.747 77.727 C 140.460 77.608,139.756 77.744,139.181 78.028 M306.433 94.509 C 310.303 94.884,312.546 95.576,315.552 97.327 C 316.794 98.050,318.511 98.846,319.368 99.096 C 320.442 99.409,321.523 100.144,322.856 101.469 C 323.918 102.525,325.285 103.652,325.894 103.975 C 326.503 104.297,327.537 105.392,328.192 106.408 C 328.848 107.423,329.943 108.789,330.626 109.443 C 331.465 110.246,332.114 111.369,332.623 112.898 C 333.037 114.144,333.979 116.645,334.716 118.455 C 336.408 122.614,336.893 125.398,336.661 129.615 C 336.470 133.075,336.609 132.613,332.472 143.527 C 332.026 144.704,331.057 146.174,329.952 147.350 C 328.964 148.401,327.734 149.939,327.218 150.768 C 326.702 151.596,325.801 152.535,325.217 152.853 C 324.633 153.171,323.222 154.136,322.081 154.996 C 320.940 155.856,319.530 156.910,318.948 157.339 C 317.772 158.205,316.074 158.755,310.686 160.015 C 304.526 161.457,302.621 161.484,296.499 160.216 C 288.824 158.627,288.045 158.347,285.774 156.359 C 284.679 155.401,282.939 154.134,281.907 153.544 C 280.812 152.917,279.649 151.891,279.112 151.077 C 278.607 150.311,277.260 148.680,276.119 147.454 C 274.178 145.365,273.942 144.920,272.420 140.465 C 271.525 137.849,270.441 134.770,270.010 133.623 C 268.927 130.741,268.930 125.513,270.017 122.497 C 270.429 121.353,271.460 118.306,272.307 115.725 C 273.710 111.457,273.986 110.908,275.372 109.644 C 276.210 108.879,277.226 107.596,277.630 106.792 C 278.034 105.988,278.934 104.894,279.630 104.360 C 280.326 103.825,281.906 102.489,283.141 101.390 C 284.376 100.291,285.584 99.392,285.825 99.392 C 286.066 99.392,287.963 98.528,290.041 97.472 C 294.349 95.283,295.576 94.890,299.218 94.532 C 302.940 94.167,302.893 94.167,306.433 94.509 M156.152 135.559 C 161.604 136.039,166.536 137.031,167.952 137.934 C 169.725 139.063,171.628 139.955,174.805 141.147 C 177.091 142.004,178.191 142.663,179.670 144.062 C 180.721 145.056,182.320 146.192,183.222 146.586 C 184.337 147.073,185.218 147.806,185.970 148.872 C 186.578 149.735,187.813 150.899,188.715 151.460 C 189.809 152.140,190.660 153.041,191.276 154.172 C 191.783 155.103,192.733 156.231,193.386 156.678 C 194.753 157.613,195.290 158.370,196.140 160.556 C 196.475 161.416,197.353 162.745,198.093 163.510 C 199.561 165.027,200.420 166.810,201.357 170.287 C 201.692 171.529,202.657 174.041,203.502 175.868 C 206.916 183.253,207.013 201.391,203.669 207.315 C 203.096 208.331,202.169 210.704,201.609 212.589 C 200.208 217.305,199.803 218.176,198.090 220.155 C 197.270 221.102,196.160 222.857,195.623 224.053 C 194.886 225.696,194.262 226.500,193.078 227.335 C 192.215 227.943,191.249 229.000,190.932 229.685 C 190.149 231.372,189.465 232.098,187.915 232.890 C 187.193 233.258,186.057 234.319,185.389 235.248 C 184.489 236.501,183.588 237.229,181.896 238.070 C 180.641 238.694,178.884 239.816,177.991 240.563 C 175.891 242.322,175.080 242.736,171.352 243.954 C 169.652 244.510,167.310 245.444,166.148 246.031 C 158.775 249.753,139.129 249.734,131.919 245.998 C 130.791 245.413,128.149 244.390,126.047 243.725 C 122.708 242.667,122.002 242.302,120.443 240.828 C 119.462 239.900,117.926 238.858,117.029 238.511 C 114.494 237.531,105.833 229.362,104.014 226.238 C 103.514 225.378,102.521 224.049,101.807 223.284 C 100.368 221.741,99.761 220.659,98.655 217.665 C 98.243 216.551,97.355 214.879,96.681 213.950 C 93.951 210.191,91.986 196.552,92.794 186.968 C 93.582 177.619,94.688 172.530,96.509 169.884 C 97.212 168.863,98.282 166.835,98.889 165.377 C 101.175 159.877,110.525 149.005,115.455 146.116 C 116.634 145.425,118.368 144.168,119.308 143.323 C 120.469 142.279,121.646 141.605,122.976 141.221 C 124.053 140.910,126.537 139.833,128.496 138.826 C 134.562 135.710,144.512 134.535,156.152 135.559 " stroke="none" fill="#353535" fill-rule="evenodd"></path><path id="path1" d="M0.000 173.762 L 0.000 347.524 200.000 347.524 L 400.000 347.524 400.000 173.762 L 400.000 0.000 200.000 0.000 L 0.000 0.000 0.000 173.762 M238.183 16.211 C 240.694 17.032,242.381 18.899,243.276 21.848 C 244.123 24.634,244.479 25.022,247.658 26.622 C 250.072 27.836,251.062 28.056,251.431 27.459 C 251.955 26.611,256.476 25.643,259.311 25.772 L 262.132 25.900 263.385 27.434 C 264.075 28.277,265.578 29.874,266.725 30.982 L 268.810 32.997 268.783 35.445 C 268.759 37.660,268.601 38.191,267.132 41.001 C 264.956 45.165,264.768 44.595,270.093 49.986 C 270.534 50.432,271.740 51.136,272.774 51.550 C 275.563 52.667,276.605 54.147,277.115 57.720 C 277.684 61.706,278.036 61.945,283.691 62.193 C 288.609 62.409,289.150 62.642,290.835 65.269 C 291.445 66.218,292.552 67.398,293.297 67.891 C 294.042 68.384,295.135 69.490,295.725 70.348 C 297.084 72.322,298.118 72.628,303.453 72.631 C 308.931 72.633,311.401 71.156,315.760 65.272 C 318.456 61.633,326.086 61.225,329.842 64.519 C 330.152 64.791,331.868 65.750,333.655 66.651 C 338.338 69.011,338.270 68.845,338.496 78.367 C 338.699 86.896,338.737 87.045,341.065 88.409 C 341.918 88.909,343.061 89.981,343.605 90.793 C 345.144 93.086,345.777 93.259,352.911 93.337 C 361.783 93.435,363.333 94.025,364.713 97.828 C 365.714 100.584,366.894 102.923,368.084 104.506 C 369.482 106.366,369.758 108.810,368.904 111.767 C 368.199 114.209,368.042 114.398,364.023 117.632 C 359.286 121.446,358.803 122.492,358.872 128.805 C 358.906 131.988,359.079 134.006,359.362 134.539 C 359.836 135.429,366.943 142.485,367.366 142.485 C 368.228 142.485,369.070 144.943,369.070 147.455 C 369.070 150.611,368.873 151.192,367.048 153.399 C 366.215 154.407,365.480 155.757,365.252 156.701 C 363.698 163.114,361.804 164.204,352.215 164.207 C 344.371 164.209,343.843 164.350,342.068 166.911 C 341.561 167.642,340.705 168.556,340.164 168.941 C 338.449 170.162,338.326 170.707,338.141 177.932 C 337.893 187.603,337.013 189.253,331.364 190.643 C 328.694 191.300,327.124 192.006,325.302 193.370 C 322.261 195.646,318.517 194.567,314.656 190.302 C 309.389 184.485,307.532 183.516,301.616 183.501 C 298.475 183.493,298.198 183.552,296.881 184.506 C 296.111 185.064,294.876 185.831,294.135 186.211 C 293.395 186.591,292.493 187.425,292.132 188.064 C 290.633 190.715,288.449 192.399,285.008 193.558 C 282.221 194.497,281.870 194.464,280.074 193.104 C 279.231 192.464,278.071 191.776,277.498 191.574 C 268.918 188.547,268.549 188.805,268.288 198.026 C 268.100 204.655,268.153 204.446,265.738 208.082 C 264.035 210.646,262.289 211.666,258.140 212.521 C 256.668 212.824,254.792 213.455,253.970 213.922 C 251.045 215.587,248.796 216.505,246.436 216.997 C 240.418 218.251,239.378 219.299,237.554 225.934 C 237.259 227.010,236.488 228.658,235.842 229.598 C 231.920 235.299,231.783 241.921,235.500 246.106 C 236.950 247.739,237.566 249.249,238.774 254.140 C 239.065 255.317,239.587 256.180,240.560 257.094 C 243.831 260.165,243.754 266.309,240.415 268.687 C 239.796 269.128,235.861 272.890,231.670 277.049 C 222.802 285.850,222.211 286.219,217.507 285.910 C 214.475 285.711,212.249 284.856,210.029 283.037 C 208.971 282.169,207.418 281.458,204.709 280.600 C 201.740 279.660,200.628 279.130,199.746 278.233 C 196.803 275.238,192.599 275.098,188.563 277.862 C 187.120 278.850,185.492 279.616,184.109 279.958 C 177.263 281.647,176.696 281.991,174.954 285.517 C 174.264 286.913,173.091 288.870,172.347 289.868 C 170.752 292.006,170.876 291.658,169.782 297.043 C 168.756 302.093,168.523 302.586,165.150 306.864 C 161.390 311.634,162.948 311.208,149.262 311.208 C 132.924 311.208,132.426 311.019,129.683 303.801 C 129.311 302.821,128.542 301.428,127.976 300.705 C 126.739 299.128,126.012 296.978,125.299 292.789 C 124.512 288.166,124.222 287.415,122.559 285.681 C 121.726 284.812,120.697 283.517,120.272 282.804 C 119.717 281.872,119.141 281.411,118.221 281.164 C 112.055 279.507,111.567 279.311,109.411 277.617 C 107.289 275.950,103.506 275.166,100.556 275.783 C 99.247 276.057,98.071 276.281,97.943 276.281 C 97.816 276.281,96.878 276.992,95.861 277.861 C 94.073 279.387,92.752 279.941,88.071 281.129 C 87.289 281.327,85.683 282.268,84.486 283.229 C 83.293 284.186,82.210 284.973,82.080 284.976 C 81.949 284.980,80.770 285.138,79.460 285.328 C 76.030 285.824,74.793 285.401,72.782 283.047 C 71.886 281.999,70.541 280.797,69.793 280.377 C 69.006 279.935,68.004 278.915,67.415 277.957 C 66.854 277.045,65.729 275.883,64.910 275.368 C 63.383 274.408,62.794 273.752,61.828 271.937 C 61.523 271.364,60.512 270.477,59.583 269.966 C 57.560 268.854,57.167 268.318,55.499 264.398 C 53.942 260.737,53.947 261.064,55.398 258.440 C 56.050 257.263,56.837 255.282,57.147 254.040 C 57.517 252.558,58.299 250.905,59.420 249.234 C 60.359 247.833,61.384 245.956,61.697 245.063 C 62.010 244.171,62.647 242.412,63.112 241.155 C 64.237 238.117,64.333 234.912,63.356 233.015 C 62.962 232.250,62.461 230.765,62.241 229.713 C 61.535 226.324,60.758 224.365,59.417 222.589 C 58.695 221.633,57.864 220.268,57.570 219.556 C 57.028 218.242,55.262 216.859,54.124 216.856 C 53.788 216.855,51.746 215.932,49.586 214.803 C 46.488 213.185,45.004 212.630,42.552 212.175 C 38.763 211.473,36.616 210.510,33.884 208.289 C 30.338 205.406,30.427 205.863,30.531 191.138 C 30.652 173.970,30.645 173.990,37.441 172.089 C 38.824 171.702,40.857 170.845,41.959 170.185 C 44.265 168.803,46.237 168.136,50.391 167.337 C 54.349 166.576,55.512 165.946,57.023 163.747 C 57.722 162.731,58.788 161.389,59.392 160.765 C 60.614 159.504,61.550 157.304,62.372 153.763 C 62.673 152.466,63.641 149.959,64.524 148.192 L 66.130 144.979 65.397 143.819 C 63.656 141.061,62.491 138.466,61.981 136.210 C 61.585 134.454,61.077 133.340,60.130 132.143 C 56.747 127.874,55.018 120.543,56.566 117.042 C 57.194 115.622,59.081 113.640,59.805 113.640 C 59.984 113.640,60.666 112.803,61.321 111.779 C 62.055 110.631,63.179 109.489,64.252 108.801 C 65.290 108.135,66.354 107.067,66.889 106.154 C 67.431 105.229,68.395 104.266,69.325 103.721 C 70.172 103.225,71.414 102.053,72.087 101.117 C 73.846 98.668,75.360 98.002,79.164 98.002 C 83.474 98.002,87.577 99.352,90.445 101.715 C 91.637 102.698,92.995 103.332,95.691 104.166 C 98.165 104.932,99.854 105.693,100.975 106.549 C 102.962 108.066,103.772 108.022,107.620 106.195 C 109.028 105.526,111.780 104.561,113.735 104.050 C 117.733 103.006,118.725 102.579,119.723 101.475 C 120.105 101.052,121.121 100.350,121.981 99.913 C 124.446 98.662,124.792 98.074,125.477 93.976 C 125.959 91.086,126.323 89.941,127.162 88.672 C 128.841 86.134,129.561 84.431,130.513 80.747 C 132.496 73.078,133.542 72.643,149.982 72.637 C 162.880 72.632,163.253 72.697,166.315 75.496 C 168.764 77.734,168.754 77.713,169.952 83.292 C 170.745 86.988,171.174 88.271,171.929 89.215 C 173.682 91.406,174.093 92.286,174.661 95.070 C 175.643 99.887,178.512 102.536,184.402 104.066 C 188.334 105.088,188.934 105.339,190.577 106.652 C 193.517 109.002,197.476 109.053,199.950 106.773 C 201.221 105.602,202.189 105.131,205.375 104.133 C 208.260 103.229,209.727 102.552,211.104 101.490 C 214.325 99.005,217.196 98.305,221.946 98.845 C 225.504 99.249,225.911 98.347,224.087 94.103 C 222.958 91.477,219.379 90.412,215.607 91.579 C 209.661 93.420,206.781 92.898,203.306 89.347 C 199.249 85.200,198.778 81.450,201.916 78.264 C 203.351 76.807,203.381 76.728,203.157 75.035 C 202.785 72.233,202.424 71.791,198.924 69.852 C 195.167 67.771,194.108 66.692,192.374 63.183 L 191.117 60.640 191.637 57.923 C 192.421 53.826,193.273 52.530,196.063 51.186 C 197.504 50.492,198.743 49.595,199.336 48.817 C 199.861 48.128,200.897 47.256,201.637 46.879 C 204.093 45.626,204.070 43.356,201.555 38.774 C 199.586 35.185,199.626 33.754,201.754 31.801 C 202.623 31.003,203.835 29.594,204.447 28.669 C 206.624 25.383,210.998 24.554,216.295 26.424 C 220.138 27.781,223.832 26.460,225.074 23.284 C 226.474 19.703,226.669 19.406,228.625 17.862 C 231.864 15.304,234.182 14.904,238.183 16.211 M227.802 44.273 C 225.204 45.508,219.676 51.673,218.376 54.784 C 217.054 57.949,218.021 64.754,220.123 67.081 C 220.807 67.838,221.694 69.153,222.093 70.003 C 222.892 71.702,223.629 72.306,225.717 72.969 C 226.481 73.211,227.889 73.846,228.844 74.379 C 233.181 76.797,234.874 76.791,240.059 74.339 C 241.639 73.592,243.125 72.979,243.360 72.979 C 244.331 72.976,246.067 71.521,246.764 70.127 C 247.174 69.307,248.120 68.003,248.867 67.229 C 250.911 65.111,251.761 60.428,250.914 55.960 C 250.271 52.573,243.861 45.106,240.658 44.015 C 237.826 43.050,230.046 43.206,227.802 44.273 M265.564 74.560 C 265.001 75.796,265.061 77.001,265.719 77.659 C 266.854 78.794,267.660 76.821,267.027 74.457 C 266.748 73.417,266.063 73.466,265.564 74.560 M299.566 100.294 C 299.088 100.382,297.211 100.705,295.395 101.013 C 291.322 101.702,288.355 103.017,286.533 104.941 C 285.769 105.748,284.361 106.759,283.406 107.188 C 281.653 107.974,281.433 108.250,280.158 111.269 C 279.780 112.162,278.853 113.570,278.097 114.396 C 275.290 117.465,274.722 120.293,274.980 129.917 C 275.172 137.089,275.604 138.924,277.532 140.757 C 278.230 141.420,279.167 142.777,279.615 143.771 C 280.893 146.612,285.769 151.299,288.265 152.086 C 289.421 152.450,290.908 153.295,291.934 154.171 C 296.321 157.916,309.940 157.755,314.465 153.905 C 315.220 153.262,316.775 152.378,317.921 151.939 C 320.173 151.077,323.909 147.655,325.630 144.878 C 326.108 144.107,327.157 142.708,327.961 141.769 C 330.025 139.359,330.846 135.406,330.840 127.898 C 330.834 120.077,329.967 116.371,327.505 113.646 C 326.790 112.854,325.722 111.239,325.132 110.056 C 324.252 108.291,323.763 107.745,322.394 107.006 C 321.477 106.511,319.993 105.383,319.095 104.500 C 316.273 101.724,304.993 99.295,299.566 100.294 M228.555 102.056 C 227.937 102.674,228.439 103.601,229.832 104.417 C 230.850 105.014,231.649 105.867,232.286 107.037 C 233.831 109.876,235.651 110.222,236.293 107.798 C 237.744 102.313,238.115 103.047,233.552 102.365 C 229.515 101.761,228.889 101.722,228.555 102.056 M243.806 118.940 C 243.732 119.179,243.592 120.782,243.496 122.502 C 243.285 126.237,242.979 127.132,241.175 129.287 C 239.755 130.983,238.063 134.221,238.057 135.254 C 238.050 136.586,236.190 140.814,235.378 141.346 C 232.324 143.347,232.363 151.470,235.433 152.753 C 236.443 153.175,236.567 153.430,237.312 156.620 C 239.230 164.833,240.485 166.356,246.592 167.882 C 248.039 168.243,250.506 169.238,252.073 170.092 C 253.933 171.106,256.006 171.895,258.043 172.362 C 262.114 173.297,262.760 173.577,264.141 175.002 C 266.077 177.000,266.990 176.220,267.042 172.522 L 267.072 170.408 264.690 167.828 C 260.934 163.761,261.216 163.863,253.696 163.822 C 243.793 163.768,243.001 163.334,240.999 156.868 C 240.117 154.019,239.646 153.351,238.034 152.668 C 237.206 152.317,237.117 152.043,236.729 148.691 C 236.023 142.592,236.231 141.442,238.039 141.442 C 239.202 141.442,240.818 140.201,241.867 138.503 C 242.266 137.859,243.352 136.843,244.282 136.247 C 246.617 134.748,247.430 132.267,247.435 126.627 C 247.438 123.162,245.715 118.506,244.430 118.506 C 244.160 118.506,243.880 118.701,243.806 118.940 M142.311 139.834 C 140.369 140.116,138.504 140.635,137.392 141.202 C 136.407 141.704,134.296 142.437,132.701 142.830 C 126.523 144.353,125.325 144.835,123.294 146.615 C 122.667 147.165,121.123 148.081,119.861 148.653 C 118.344 149.340,117.236 150.127,116.587 150.978 C 116.047 151.686,114.918 152.738,114.077 153.316 C 113.236 153.895,112.002 155.128,111.335 156.057 C 110.667 156.986,109.562 158.092,108.879 158.514 C 107.965 159.079,107.366 159.888,106.617 161.570 C 105.958 163.048,105.053 164.349,104.059 165.248 C 102.585 166.580,102.475 166.819,101.429 170.982 C 100.739 173.728,99.788 176.413,98.843 178.280 C 95.578 184.735,95.609 198.525,98.903 205.213 C 99.774 206.981,100.674 209.473,100.974 210.947 C 101.772 214.862,102.487 216.444,104.458 218.654 C 105.507 219.829,106.521 221.415,106.904 222.480 C 107.411 223.888,107.947 224.591,109.276 225.596 C 110.221 226.310,111.217 227.333,111.491 227.869 C 112.212 229.287,113.298 230.388,114.683 231.109 C 115.352 231.456,116.594 232.456,117.444 233.329 C 118.536 234.451,119.687 235.184,121.368 235.826 C 122.676 236.326,124.483 237.266,125.383 237.915 C 126.283 238.564,127.382 239.354,127.824 239.671 C 131.202 242.094,151.481 244.292,156.907 242.824 C 158.054 242.513,160.791 241.947,162.989 241.566 C 168.201 240.661,170.332 239.943,171.977 238.535 C 172.717 237.901,174.477 236.853,175.888 236.206 C 177.571 235.434,179.350 234.218,181.060 232.672 C 182.493 231.376,184.268 229.914,185.003 229.425 C 185.738 228.935,186.949 227.636,187.694 226.539 C 188.440 225.442,189.887 223.635,190.910 222.524 C 193.031 220.222,193.420 219.574,194.142 217.142 C 194.453 216.094,195.207 214.806,196.030 213.912 C 201.494 207.985,201.511 174.891,196.054 169.849 C 195.483 169.321,194.746 168.148,194.416 167.242 C 192.859 162.963,192.059 161.561,190.359 160.138 C 189.402 159.337,188.310 158.000,187.890 157.115 C 187.419 156.123,186.683 155.265,185.928 154.827 C 185.263 154.442,183.857 153.247,182.803 152.173 C 181.632 150.978,179.940 149.743,178.454 148.997 C 177.116 148.325,175.118 147.032,174.015 146.124 C 172.177 144.610,171.660 144.389,167.853 143.485 C 165.567 142.943,162.756 142.103,161.607 141.620 C 156.978 139.671,148.708 138.906,142.311 139.834 " stroke="none" fill="#fbfbfb" fill-rule="evenodd"></path><path id="path2" d="M232.146 15.813 C 230.209 16.437,226.813 19.071,226.245 20.390 C 226.012 20.930,225.485 22.233,225.074 23.284 C 223.832 26.460,220.138 27.781,216.295 26.424 C 210.998 24.554,206.624 25.383,204.447 28.669 C 203.835 29.594,202.623 31.003,201.754 31.801 C 199.626 33.754,199.586 35.185,201.555 38.774 C 204.070 43.356,204.093 45.626,201.637 46.879 C 200.897 47.256,199.861 48.128,199.336 48.817 C 198.743 49.595,197.504 50.492,196.063 51.186 C 193.273 52.530,192.421 53.826,191.637 57.923 L 191.117 60.640 192.374 63.183 C 194.108 66.692,195.167 67.771,198.924 69.852 C 202.424 71.791,202.785 72.233,203.157 75.035 C 203.381 76.728,203.351 76.807,201.916 78.264 C 198.778 81.450,199.249 85.200,203.306 89.347 C 206.781 92.898,209.661 93.420,215.607 91.579 C 219.379 90.412,222.958 91.477,224.087 94.103 C 225.911 98.347,225.504 99.249,221.946 98.845 C 217.196 98.305,214.325 99.005,211.104 101.490 C 209.727 102.552,208.260 103.229,205.375 104.133 C 202.189 105.131,201.221 105.602,199.950 106.773 C 197.476 109.053,193.517 109.002,190.577 106.652 C 188.934 105.339,188.334 105.088,184.402 104.066 C 178.512 102.536,175.643 99.887,174.661 95.070 C 174.093 92.286,173.682 91.406,171.929 89.215 C 171.174 88.271,170.745 86.988,169.952 83.292 C 168.754 77.713,168.764 77.734,166.315 75.496 C 163.253 72.697,162.880 72.632,149.982 72.637 C 133.542 72.643,132.496 73.078,130.513 80.747 C 129.561 84.431,128.841 86.134,127.162 88.672 C 126.323 89.941,125.959 91.086,125.477 93.976 C 124.792 98.074,124.446 98.662,121.981 99.913 C 121.121 100.350,120.105 101.052,119.723 101.475 C 118.725 102.579,117.733 103.006,113.735 104.050 C 111.780 104.561,109.028 105.526,107.620 106.195 C 103.772 108.022,102.962 108.066,100.975 106.549 C 99.854 105.693,98.165 104.932,95.691 104.166 C 92.995 103.332,91.637 102.698,90.445 101.715 C 87.577 99.352,83.474 98.002,79.164 98.002 C 75.360 98.002,73.846 98.668,72.087 101.117 C 71.414 102.053,70.172 103.225,69.325 103.721 C 68.395 104.266,67.431 105.229,66.889 106.154 C 66.354 107.067,65.290 108.135,64.252 108.801 C 63.179 109.489,62.055 110.631,61.321 111.779 C 60.666 112.803,59.984 113.640,59.805 113.640 C 59.081 113.640,57.194 115.622,56.566 117.042 C 55.018 120.543,56.747 127.874,60.130 132.143 C 61.077 133.340,61.585 134.454,61.981 136.210 C 62.491 138.466,63.656 141.061,65.397 143.819 L 66.130 144.979 64.524 148.192 C 63.641 149.959,62.673 152.466,62.372 153.763 C 61.550 157.304,60.614 159.504,59.392 160.765 C 58.788 161.389,57.722 162.731,57.023 163.747 C 55.512 165.946,54.349 166.576,50.391 167.337 C 46.237 168.136,44.265 168.803,41.959 170.185 C 40.857 170.845,38.824 171.702,37.441 172.089 C 30.645 173.990,30.652 173.970,30.531 191.138 C 30.427 205.863,30.338 205.406,33.884 208.289 C 36.616 210.510,38.763 211.473,42.552 212.175 C 45.004 212.630,46.488 213.185,49.586 214.803 C 51.746 215.932,53.788 216.855,54.124 216.856 C 55.262 216.859,57.028 218.242,57.570 219.556 C 57.864 220.268,58.695 221.633,59.417 222.589 C 60.758 224.365,61.535 226.324,62.241 229.713 C 62.461 230.765,62.962 232.250,63.356 233.015 C 64.333 234.912,64.237 238.117,63.112 241.155 C 62.647 242.412,62.010 244.171,61.697 245.063 C 61.384 245.956,60.359 247.833,59.420 249.234 C 58.299 250.905,57.517 252.558,57.147 254.040 C 56.837 255.282,56.050 257.263,55.398 258.440 C 53.947 261.064,53.942 260.737,55.499 264.398 C 57.167 268.318,57.560 268.854,59.583 269.966 C 60.512 270.477,61.523 271.364,61.828 271.937 C 62.794 273.752,63.383 274.408,64.910 275.368 C 65.729 275.883,66.854 277.045,67.415 277.957 C 68.004 278.915,69.006 279.935,69.793 280.377 C 70.541 280.797,71.886 281.999,72.782 283.047 C 74.793 285.401,76.030 285.824,79.460 285.328 C 80.770 285.138,81.949 284.980,82.080 284.976 C 82.210 284.973,83.293 284.186,84.486 283.229 C 85.683 282.268,87.289 281.327,88.071 281.129 C 92.752 279.941,94.073 279.387,95.861 277.861 C 96.878 276.992,97.816 276.281,97.943 276.281 C 98.071 276.281,99.247 276.057,100.556 275.783 C 103.506 275.166,107.289 275.950,109.411 277.617 C 111.567 279.311,112.055 279.507,118.221 281.164 C 119.141 281.411,119.717 281.872,120.272 282.804 C 120.697 283.517,121.726 284.812,122.559 285.681 C 124.222 287.415,124.512 288.166,125.299 292.789 C 126.012 296.978,126.739 299.128,127.976 300.705 C 128.542 301.428,129.311 302.821,129.683 303.801 C 132.426 311.019,132.924 311.208,149.262 311.208 C 162.948 311.208,161.390 311.634,165.150 306.864 C 168.523 302.586,168.756 302.093,169.782 297.043 C 170.876 291.658,170.752 292.006,172.347 289.868 C 173.091 288.870,174.264 286.913,174.954 285.517 C 176.696 281.991,177.263 281.647,184.109 279.958 C 185.492 279.616,187.120 278.850,188.563 277.862 C 192.599 275.098,196.803 275.238,199.746 278.233 C 200.628 279.130,201.740 279.660,204.709 280.600 C 207.418 281.458,208.971 282.169,210.029 283.037 C 212.249 284.856,214.475 285.711,217.507 285.910 C 222.211 286.219,222.802 285.850,231.670 277.049 C 235.861 272.890,239.796 269.128,240.415 268.687 C 243.754 266.309,243.831 260.165,240.560 257.094 C 239.587 256.180,239.065 255.317,238.774 254.140 C 237.566 249.249,236.950 247.739,235.500 246.106 C 231.783 241.921,231.920 235.299,235.842 229.598 C 236.488 228.658,237.259 227.010,237.554 225.934 C 239.378 219.299,240.418 218.251,246.436 216.997 C 248.796 216.505,251.045 215.587,253.970 213.922 C 254.792 213.455,256.668 212.824,258.140 212.521 C 262.289 211.666,264.035 210.646,265.738 208.082 C 268.153 204.446,268.100 204.655,268.288 198.026 C 268.549 188.805,268.918 188.547,277.498 191.574 C 278.071 191.776,279.231 192.464,280.074 193.104 C 281.870 194.464,282.221 194.497,285.008 193.558 C 288.449 192.399,290.633 190.715,292.132 188.064 C 292.493 187.425,293.395 186.591,294.135 186.211 C 294.876 185.831,296.111 185.064,296.881 184.506 C 298.198 183.552,298.475 183.493,301.616 183.501 C 307.532 183.516,309.389 184.485,314.656 190.302 C 318.517 194.567,322.261 195.646,325.302 193.370 C 327.124 192.006,328.694 191.300,331.364 190.643 C 337.013 189.253,337.893 187.603,338.141 177.932 C 338.326 170.707,338.449 170.162,340.164 168.941 C 340.705 168.556,341.561 167.642,342.068 166.911 C 343.843 164.350,344.371 164.209,352.215 164.207 C 361.804 164.204,363.698 163.114,365.252 156.701 C 365.480 155.757,366.215 154.407,367.048 153.399 C 368.873 151.192,369.070 150.611,369.070 147.455 C 369.070 144.943,368.228 142.485,367.366 142.485 C 366.943 142.485,359.836 135.429,359.362 134.539 C 359.079 134.006,358.906 131.988,358.872 128.805 C 358.803 122.492,359.286 121.446,364.023 117.632 C 368.042 114.398,368.199 114.209,368.904 111.767 C 369.758 108.810,369.482 106.366,368.084 104.506 C 366.894 102.923,365.714 100.584,364.713 97.828 C 363.333 94.025,361.783 93.435,352.911 93.337 C 345.777 93.259,345.144 93.086,343.605 90.793 C 343.061 89.981,341.918 88.909,341.065 88.409 C 338.737 87.045,338.699 86.896,338.496 78.367 C 338.270 68.845,338.338 69.011,333.655 66.651 C 331.868 65.750,330.152 64.791,329.842 64.519 C 326.086 61.225,318.456 61.633,315.760 65.272 C 311.401 71.156,308.931 72.633,303.453 72.631 C 298.118 72.628,297.084 72.322,295.725 70.348 C 295.135 69.490,294.042 68.384,293.297 67.891 C 292.552 67.398,291.445 66.218,290.835 65.269 C 289.150 62.642,288.609 62.409,283.691 62.193 C 278.036 61.945,277.684 61.706,277.115 57.720 C 276.605 54.147,275.563 52.667,272.774 51.550 C 271.740 51.136,270.534 50.432,270.093 49.986 C 264.768 44.595,264.956 45.165,267.132 41.001 C 268.601 38.191,268.759 37.660,268.783 35.445 L 268.810 32.997 266.725 30.982 C 265.578 29.874,264.075 28.277,263.385 27.434 L 262.132 25.900 259.311 25.772 C 256.476 25.643,251.955 26.611,251.431 27.459 C 251.062 28.056,250.072 27.836,247.658 26.622 C 244.479 25.022,244.123 24.634,243.276 21.848 C 241.829 17.081,236.752 14.329,232.146 15.813 M237.628 19.252 C 240.455 20.681,241.197 21.445,242.387 24.149 C 243.524 26.735,244.168 27.427,247.077 29.184 C 249.845 30.857,250.432 30.891,253.284 29.542 C 255.552 28.469,259.535 27.624,260.654 27.979 C 261.187 28.148,265.549 33.009,266.307 34.279 C 266.437 34.496,265.919 36.553,265.157 38.850 C 262.725 46.175,264.027 49.430,270.621 52.513 C 272.759 53.513,273.612 54.114,274.024 54.912 C 274.741 56.297,275.113 62.249,274.598 64.095 C 273.913 66.553,275.763 67.160,278.684 65.436 C 280.057 64.624,280.753 64.474,283.701 64.351 L 287.125 64.208 288.914 66.216 C 296.075 74.248,296.559 74.526,303.402 74.536 L 308.802 74.544 311.171 73.002 C 312.700 72.007,314.382 70.452,315.915 68.617 C 319.725 64.055,323.047 63.190,327.150 65.691 C 328.464 66.492,330.639 67.601,331.983 68.155 C 336.483 70.010,336.551 70.169,336.577 78.888 C 336.598 85.763,337.223 88.966,338.543 88.966 C 338.730 88.966,340.092 90.215,341.571 91.742 C 344.771 95.048,345.483 95.274,352.389 95.186 C 360.663 95.079,361.690 95.563,363.539 100.447 C 364.223 102.256,365.298 104.643,365.927 105.751 C 367.648 108.784,366.626 112.516,363.333 115.223 C 360.513 117.541,358.878 119.323,357.428 121.655 L 356.038 123.892 356.060 128.236 C 356.089 134.181,357.147 136.292,362.487 141.066 C 366.600 144.744,367.387 147.507,365.421 151.375 C 364.944 152.315,364.137 154.179,363.630 155.517 C 361.676 160.668,357.982 162.821,352.755 161.858 C 346.230 160.656,340.538 163.381,337.144 169.332 L 336.003 171.332 336.116 177.152 C 336.278 185.489,335.122 187.295,328.024 189.793 C 321.333 192.148,317.973 191.627,315.357 187.829 C 314.647 186.798,313.501 185.576,312.811 185.114 C 312.120 184.651,310.805 183.559,309.888 182.685 C 308.125 181.006,307.462 180.798,303.388 180.640 C 298.549 180.453,297.626 180.625,295.995 182.016 C 295.154 182.732,293.745 183.819,292.862 184.430 C 291.979 185.041,290.864 186.164,290.383 186.925 C 288.671 189.637,287.368 190.387,283.348 190.977 C 280.977 191.325,274.475 188.950,272.806 187.128 C 272.328 186.606,271.136 185.820,270.157 185.381 C 268.110 184.463,266.760 182.977,267.029 181.937 C 267.128 181.550,267.613 180.098,268.107 178.709 C 270.207 172.798,268.872 167.420,264.556 164.398 C 263.455 163.627,262.061 162.595,261.458 162.105 C 259.858 160.804,256.530 160.321,252.948 160.869 C 247.159 161.755,243.863 159.812,241.957 154.389 C 238.529 144.631,238.617 145.157,240.165 143.679 C 240.753 143.118,241.806 141.910,242.505 140.996 C 243.204 140.081,244.667 138.632,245.757 137.776 C 252.235 132.687,251.681 119.908,244.822 116.198 C 243.026 115.226,242.698 114.872,241.837 112.974 C 241.304 111.802,240.548 110.393,240.157 109.842 C 239.252 108.573,239.259 107.720,240.185 105.904 C 242.488 101.391,241.340 98.201,237.980 99.773 C 233.137 102.039,228.652 99.978,226.352 94.427 C 224.394 89.705,221.320 88.357,215.475 89.659 C 207.788 91.371,205.642 90.461,203.468 84.569 L 202.551 82.082 203.795 79.738 C 206.177 75.248,205.480 71.232,201.911 68.893 C 194.800 64.232,193.763 62.998,193.858 59.304 C 193.969 55.014,194.996 53.330,198.137 52.286 C 200.195 51.603,203.702 48.509,204.752 46.449 C 205.614 44.761,205.453 42.513,204.149 38.015 C 203.040 34.188,203.026 34.289,205.077 31.349 C 207.478 27.909,207.851 27.703,211.401 27.853 C 213.884 27.958,214.513 28.117,215.785 28.959 C 219.475 31.402,224.652 29.076,226.868 23.979 C 227.681 22.111,228.834 20.974,231.604 19.311 C 234.155 17.779,234.703 17.774,237.628 19.252 M230.972 41.374 C 219.595 43.281,212.159 57.383,217.421 67.072 C 222.824 77.021,234.456 81.178,242.547 76.051 C 243.803 75.255,245.341 74.278,245.965 73.879 C 248.659 72.157,252.081 66.836,252.670 63.452 C 253.709 57.489,252.508 52.093,249.385 48.689 C 248.403 47.618,247.152 46.154,246.605 45.436 C 244.242 42.327,236.808 40.395,230.972 41.374 M240.658 44.015 C 243.861 45.106,250.271 52.573,250.914 55.960 C 251.761 60.428,250.911 65.111,248.867 67.229 C 248.120 68.003,247.174 69.307,246.764 70.127 C 246.067 71.521,244.331 72.976,243.360 72.979 C 243.125 72.979,241.639 73.592,240.059 74.339 C 234.874 76.791,233.181 76.797,228.844 74.379 C 227.889 73.846,226.481 73.211,225.717 72.969 C 223.629 72.306,222.892 71.702,222.093 70.003 C 221.694 69.153,220.807 67.838,220.123 67.081 C 218.021 64.754,217.054 57.949,218.376 54.784 C 219.676 51.673,225.204 45.508,227.802 44.273 C 230.046 43.206,237.826 43.050,240.658 44.015 M265.221 70.433 C 263.325 72.330,262.967 75.940,264.323 79.488 C 265.114 81.558,265.197 82.167,265.009 84.542 C 264.621 89.460,266.839 90.304,267.962 85.665 C 268.193 84.709,268.674 83.439,269.030 82.843 C 269.541 81.990,269.679 81.062,269.679 78.470 C 269.679 76.661,269.859 74.284,270.079 73.187 C 270.736 69.916,267.547 68.108,265.221 70.433 M267.027 74.457 C 267.660 76.821,266.854 78.794,265.719 77.659 C 265.061 77.001,265.001 75.796,265.564 74.560 C 266.063 73.466,266.748 73.417,267.027 74.457 M161.146 75.054 C 161.848 75.073,165.730 78.497,166.685 79.939 C 167.255 80.801,168.016 83.059,168.757 86.089 C 169.412 88.769,170.454 91.948,171.122 93.310 C 171.779 94.648,172.852 96.916,173.505 98.349 C 175.563 102.865,176.228 103.414,182.107 105.455 C 184.111 106.151,186.612 107.229,187.663 107.852 C 190.521 109.543,192.114 110.076,194.613 110.177 C 198.231 110.323,198.445 110.265,202.281 108.133 C 204.291 107.015,206.946 105.761,208.181 105.346 C 209.416 104.931,211.286 104.100,212.337 103.498 C 218.247 100.114,218.606 100.025,222.027 101.090 C 223.956 101.690,224.434 102.063,227.705 105.521 C 229.670 107.597,233.337 111.329,235.854 113.814 C 242.128 120.008,243.278 123.865,239.791 127.020 C 238.781 127.935,238.161 129.178,236.991 132.642 C 236.433 134.290,235.364 136.439,234.477 137.694 C 230.304 143.599,230.330 150.049,234.555 157.042 C 235.338 158.337,236.441 160.877,237.006 162.687 C 238.323 166.898,239.655 168.032,245.526 169.933 C 246.290 170.180,247.932 170.891,249.175 171.511 C 250.417 172.132,253.232 173.148,255.430 173.769 C 263.238 175.976,266.336 179.364,265.538 184.824 C 265.321 186.310,265.157 191.073,265.174 195.408 C 265.220 207.176,264.346 208.748,256.585 210.850 C 254.134 211.514,250.643 212.728,248.827 213.549 C 247.011 214.370,244.244 215.459,242.677 215.971 C 238.801 217.235,238.321 217.686,237.025 221.285 C 236.423 222.958,235.310 225.357,234.553 226.617 C 230.006 234.179,229.817 242.268,234.044 248.413 C 235.667 250.772,236.494 252.504,237.192 255.001 C 237.527 256.199,238.327 257.918,238.970 258.823 C 241.455 262.318,240.482 265.144,234.854 270.779 C 219.322 286.330,220.169 285.975,210.773 280.864 C 210.009 280.448,208.288 279.696,206.950 279.193 C 205.613 278.690,203.259 277.515,201.720 276.581 C 196.042 273.134,192.442 273.172,185.324 276.755 C 184.030 277.406,181.564 278.429,179.844 279.027 C 175.382 280.579,175.333 280.615,172.925 284.093 C 169.999 288.320,170.070 288.162,168.740 293.440 C 167.572 298.078,165.206 303.239,162.801 306.391 C 161.413 308.211,160.533 308.320,148.393 308.172 C 133.189 307.988,133.060 307.940,130.988 301.733 C 130.397 299.963,129.378 297.504,128.723 296.270 C 128.040 294.983,127.159 292.451,126.660 290.337 C 125.041 283.486,122.733 280.611,117.463 278.885 C 116.412 278.540,114.144 277.514,112.424 276.605 C 105.064 272.714,100.066 272.673,93.566 276.450 C 92.049 277.331,89.397 278.577,87.672 279.218 C 85.947 279.859,83.906 280.801,83.136 281.311 C 79.490 283.723,76.684 283.803,74.262 281.564 C 73.270 280.647,71.937 279.473,71.300 278.955 C 70.663 278.438,69.594 277.360,68.926 276.561 C 68.258 275.761,67.035 274.580,66.207 273.935 C 65.380 273.290,64.308 272.166,63.825 271.436 C 63.342 270.707,62.038 269.420,60.926 268.576 C 58.796 266.959,57.479 264.577,57.081 261.625 C 56.812 259.627,58.927 254.022,60.861 251.607 C 61.396 250.938,62.410 248.827,63.112 246.916 C 63.815 245.004,64.953 242.585,65.641 241.540 C 67.621 238.535,67.659 235.432,65.756 232.230 C 64.905 230.798,63.926 228.362,63.236 225.962 C 60.841 217.631,56.576 214.042,45.178 210.769 C 39.976 209.274,34.413 206.320,33.091 204.349 L 32.279 203.138 32.408 191.317 C 32.581 175.425,32.374 175.921,39.860 173.423 C 42.307 172.606,45.057 171.562,45.970 171.102 C 46.883 170.642,49.463 169.735,51.704 169.087 C 57.079 167.534,56.588 167.802,59.014 165.092 C 61.690 162.104,62.310 161.029,63.237 157.776 C 64.219 154.332,64.587 153.430,65.896 151.256 C 68.608 146.751,68.559 144.031,65.682 139.357 C 64.918 138.115,63.820 135.691,63.243 133.970 C 62.209 130.883,61.591 129.668,59.656 126.908 C 58.437 125.171,58.055 123.598,58.045 120.275 L 58.036 117.700 59.465 116.452 C 60.250 115.766,61.462 114.601,62.158 113.863 C 62.854 113.125,64.016 111.952,64.742 111.256 C 65.467 110.561,68.125 107.941,70.649 105.435 C 75.844 100.278,75.869 100.261,78.719 99.951 C 81.457 99.653,83.307 100.225,87.345 102.621 C 89.097 103.660,91.390 104.786,92.441 105.123 C 93.493 105.460,95.883 106.596,97.754 107.647 C 102.728 110.441,105.249 110.461,110.523 107.747 C 111.962 107.007,114.229 106.066,115.562 105.657 C 122.665 103.475,125.321 101.231,126.881 96.097 C 127.463 94.182,128.478 91.726,129.138 90.639 C 129.911 89.364,130.716 87.206,131.405 84.558 C 132.919 78.736,134.537 76.531,138.316 75.133 C 138.862 74.931,154.634 74.876,161.146 75.054 M247.695 89.857 C 243.858 90.786,242.692 92.027,243.699 94.109 C 244.217 95.181,244.289 95.186,250.217 94.572 C 252.224 94.364,255.481 94.056,257.454 93.888 C 263.433 93.378,264.017 91.457,258.347 90.947 C 256.647 90.794,254.057 90.364,252.592 89.992 C 251.127 89.619,249.875 89.327,249.812 89.343 C 249.748 89.359,248.795 89.590,247.695 89.857 M298.523 97.301 C 294.148 98.427,286.883 101.540,285.347 102.949 C 284.457 103.764,282.988 104.938,282.083 105.558 C 281.168 106.185,280.016 107.403,279.489 108.302 C 278.967 109.191,277.805 110.772,276.906 111.814 C 272.653 116.749,271.445 130.885,274.508 139.878 C 275.657 143.252,281.234 150.132,284.553 152.269 C 286.140 153.291,288.245 154.717,289.232 155.439 C 294.857 159.552,311.195 159.569,316.652 155.468 C 317.671 154.701,319.632 153.419,321.008 152.618 C 330.442 147.129,335.378 133.142,332.433 120.243 C 330.695 112.628,327.905 108.706,319.429 101.958 C 318.921 101.553,317.333 100.801,315.899 100.285 C 314.466 99.770,312.042 98.867,310.513 98.278 C 307.509 97.121,301.216 96.609,298.523 97.301 M310.860 101.093 C 315.756 102.055,317.228 102.664,319.095 104.500 C 319.993 105.383,321.477 106.511,322.394 107.006 C 323.763 107.745,324.252 108.291,325.132 110.056 C 325.722 111.239,326.790 112.854,327.505 113.646 C 329.967 116.371,330.834 120.077,330.840 127.898 C 330.846 135.406,330.025 139.359,327.961 141.769 C 327.157 142.708,326.108 144.107,325.630 144.878 C 323.909 147.655,320.173 151.077,317.921 151.939 C 316.775 152.378,315.220 153.262,314.465 153.905 C 309.940 157.755,296.321 157.916,291.934 154.171 C 290.908 153.295,289.421 152.450,288.265 152.086 C 285.769 151.299,280.893 146.612,279.615 143.771 C 279.167 142.777,278.230 141.420,277.532 140.757 C 275.604 138.924,275.172 137.089,274.980 129.917 C 274.722 120.293,275.290 117.465,278.097 114.396 C 278.853 113.570,279.780 112.162,280.158 111.269 C 281.433 108.250,281.653 107.974,283.406 107.188 C 284.361 106.759,285.769 105.748,286.533 104.941 C 288.355 103.017,291.322 101.702,295.395 101.013 C 297.211 100.705,299.088 100.382,299.566 100.294 C 301.258 99.982,307.433 100.419,310.860 101.093 M233.552 102.365 C 237.843 103.006,237.603 102.835,237.064 104.877 C 236.827 105.778,236.479 107.093,236.293 107.798 C 235.651 110.222,233.831 109.876,232.286 107.037 C 231.649 105.867,230.850 105.014,229.832 104.417 C 228.439 103.601,227.937 102.674,228.555 102.056 C 228.889 101.722,229.515 101.761,233.552 102.365 M245.280 118.940 C 248.645 122.996,248.019 133.849,244.282 136.247 C 243.352 136.843,242.266 137.859,241.867 138.503 C 240.818 140.201,239.202 141.442,238.039 141.442 C 236.231 141.442,236.023 142.592,236.729 148.691 C 237.117 152.043,237.206 152.317,238.034 152.668 C 239.646 153.351,240.117 154.019,240.999 156.868 C 243.001 163.334,243.793 163.768,253.696 163.822 C 261.216 163.863,260.934 163.761,264.690 167.828 L 267.072 170.408 267.042 172.522 C 266.990 176.220,266.077 177.000,264.141 175.002 C 262.760 173.577,262.114 173.297,258.043 172.362 C 256.006 171.895,253.933 171.106,252.073 170.092 C 250.506 169.238,248.039 168.243,246.592 167.882 C 240.485 166.356,239.230 164.833,237.312 156.620 C 236.567 153.430,236.443 153.175,235.433 152.753 C 232.363 151.470,232.324 143.347,235.378 141.346 C 236.190 140.814,238.050 136.586,238.057 135.254 C 238.063 134.221,239.755 130.983,241.175 129.287 C 242.979 127.132,243.285 126.237,243.496 122.502 C 243.702 118.837,243.779 118.506,244.430 118.506 C 244.699 118.506,245.081 118.701,245.280 118.940 M140.400 137.969 C 137.634 138.342,134.259 139.289,132.431 140.203 C 131.558 140.640,129.748 141.357,128.410 141.795 C 124.706 143.008,123.007 143.805,121.471 145.051 C 120.700 145.677,119.212 146.645,118.164 147.203 C 115.770 148.479,106.528 157.568,105.116 160.035 C 104.569 160.990,103.488 162.489,102.712 163.364 C 101.736 164.468,101.050 165.748,100.477 167.535 C 100.022 168.953,98.897 171.617,97.977 173.456 C 93.954 181.492,93.721 201.946,97.570 209.170 C 98.243 210.434,99.476 213.260,100.309 215.450 C 101.357 218.202,102.190 219.812,103.010 220.663 C 103.662 221.340,104.695 222.754,105.306 223.805 C 107.563 227.691,115.381 235.082,119.793 237.503 C 121.283 238.320,123.440 239.567,124.587 240.273 C 125.734 240.979,127.533 241.799,128.584 242.094 C 129.635 242.389,132.661 243.319,135.308 244.159 C 143.377 246.721,153.368 247.016,160.382 244.899 C 171.725 241.475,172.629 241.134,174.805 239.450 C 175.474 238.932,177.194 237.898,178.627 237.152 C 180.061 236.406,181.937 235.076,182.798 234.196 C 183.658 233.316,185.104 232.096,186.012 231.485 C 186.932 230.866,188.181 229.566,188.833 228.546 C 189.476 227.541,190.636 226.216,191.410 225.603 C 192.415 224.807,193.333 223.484,194.621 220.978 C 195.612 219.048,197.017 216.684,197.742 215.726 C 198.936 214.148,199.245 213.241,201.016 206.099 C 203.910 194.425,204.173 189.505,202.277 182.450 C 201.892 181.017,201.096 177.824,200.508 175.356 C 199.354 170.517,199.055 169.785,196.962 166.694 C 196.207 165.578,195.072 163.532,194.440 162.146 C 193.626 160.359,192.873 159.295,191.852 158.485 C 191.059 157.858,189.887 156.525,189.246 155.524 C 188.606 154.523,187.558 153.342,186.917 152.899 C 186.276 152.457,184.809 151.204,183.656 150.115 C 182.504 149.026,180.783 147.720,179.833 147.213 C 178.883 146.706,177.149 145.612,175.979 144.781 C 174.809 143.951,173.088 143.000,172.156 142.667 C 171.223 142.335,168.427 141.282,165.943 140.327 C 159.434 137.826,148.755 136.840,140.400 137.969 M157.343 140.226 C 158.539 140.509,160.458 141.136,161.607 141.620 C 162.756 142.103,165.567 142.943,167.853 143.485 C 171.660 144.389,172.177 144.610,174.015 146.124 C 175.118 147.032,177.116 148.325,178.454 148.997 C 179.940 149.743,181.632 150.978,182.803 152.173 C 183.857 153.247,185.263 154.442,185.928 154.827 C 186.683 155.265,187.419 156.123,187.890 157.115 C 188.310 158.000,189.402 159.337,190.359 160.138 C 192.059 161.561,192.859 162.963,194.416 167.242 C 194.746 168.148,195.483 169.321,196.054 169.849 C 201.511 174.891,201.494 207.985,196.030 213.912 C 195.207 214.806,194.453 216.094,194.142 217.142 C 193.420 219.574,193.031 220.222,190.910 222.524 C 189.887 223.635,188.440 225.442,187.694 226.539 C 186.949 227.636,185.738 228.935,185.003 229.425 C 184.268 229.914,182.493 231.376,181.060 232.672 C 179.350 234.218,177.571 235.434,175.888 236.206 C 174.477 236.853,172.717 237.901,171.977 238.535 C 170.332 239.943,168.201 240.661,162.989 241.566 C 160.791 241.947,158.054 242.513,156.907 242.824 C 151.481 244.292,131.202 242.094,127.824 239.671 C 127.382 239.354,126.283 238.564,125.383 237.915 C 124.483 237.266,122.676 236.326,121.368 235.826 C 119.687 235.184,118.536 234.451,117.444 233.329 C 116.594 232.456,115.352 231.456,114.683 231.109 C 113.298 230.388,112.212 229.287,111.491 227.869 C 111.217 227.333,110.221 226.310,109.276 225.596 C 107.947 224.591,107.411 223.888,106.904 222.480 C 106.521 221.415,105.507 219.829,104.458 218.654 C 102.487 216.444,101.772 214.862,100.974 210.947 C 100.674 209.473,99.774 206.981,98.903 205.213 C 95.609 198.525,95.578 184.735,98.843 178.280 C 99.788 176.413,100.739 173.728,101.429 170.982 C 102.475 166.819,102.585 166.580,104.059 165.248 C 105.053 164.349,105.958 163.048,106.617 161.570 C 107.366 159.888,107.965 159.079,108.879 158.514 C 109.562 158.092,110.667 156.986,111.335 156.057 C 112.002 155.128,113.236 153.895,114.077 153.316 C 114.918 152.738,116.047 151.686,116.587 150.978 C 117.236 150.127,118.344 149.340,119.861 148.653 C 121.123 148.081,122.667 147.165,123.294 146.615 C 125.325 144.835,126.523 144.353,132.701 142.830 C 134.296 142.437,136.407 141.704,137.392 141.202 C 140.890 139.418,151.691 138.890,157.343 140.226 " stroke="none" fill="#aeaeae" fill-rule="evenodd"></path><path id="path3" d="M231.604 19.311 C 228.834 20.974,227.681 22.111,226.868 23.979 C 224.652 29.076,219.475 31.402,215.785 28.959 C 214.513 28.117,213.884 27.958,211.401 27.853 C 207.851 27.703,207.478 27.909,205.077 31.349 C 203.026 34.289,203.040 34.188,204.149 38.015 C 205.453 42.513,205.614 44.761,204.752 46.449 C 203.702 48.509,200.195 51.603,198.137 52.286 C 194.996 53.330,193.969 55.014,193.858 59.304 C 193.763 62.998,194.800 64.232,201.911 68.893 C 205.480 71.232,206.177 75.248,203.795 79.738 L 202.551 82.082 203.468 84.569 C 205.642 90.461,207.788 91.371,215.475 89.659 C 221.320 88.357,224.394 89.705,226.352 94.427 C 228.652 99.978,233.137 102.039,237.980 99.773 C 241.340 98.201,242.488 101.391,240.185 105.904 C 239.259 107.720,239.252 108.573,240.157 109.842 C 240.548 110.393,241.304 111.802,241.837 112.974 C 242.698 114.872,243.026 115.226,244.822 116.198 C 251.681 119.908,252.235 132.687,245.757 137.776 C 244.667 138.632,243.204 140.081,242.505 140.996 C 241.806 141.910,240.753 143.118,240.165 143.679 C 238.878 144.909,238.849 145.509,239.931 148.608 C 243.718 159.453,243.468 159.060,247.464 160.391 C 250.053 161.253,250.297 161.275,252.948 160.869 C 256.530 160.321,259.858 160.804,261.458 162.105 C 262.061 162.595,263.455 163.627,264.556 164.398 C 268.872 167.420,270.207 172.798,268.107 178.709 C 267.613 180.098,267.128 181.550,267.029 181.937 C 266.760 182.977,268.110 184.463,270.157 185.381 C 271.136 185.820,272.328 186.606,272.806 187.128 C 274.475 188.950,280.977 191.325,283.348 190.977 C 287.368 190.387,288.671 189.637,290.383 186.925 C 290.864 186.164,291.979 185.041,292.862 184.430 C 293.745 183.819,295.154 182.732,295.995 182.016 C 297.626 180.625,298.549 180.453,303.388 180.640 C 307.462 180.798,308.125 181.006,309.888 182.685 C 310.805 183.559,312.120 184.651,312.811 185.114 C 313.501 185.576,314.647 186.798,315.357 187.829 C 317.973 191.627,321.333 192.148,328.024 189.793 C 335.122 187.295,336.278 185.489,336.116 177.152 L 336.003 171.332 337.144 169.332 C 340.538 163.381,346.230 160.656,352.755 161.858 C 357.982 162.821,361.676 160.668,363.630 155.517 C 364.137 154.179,364.944 152.315,365.421 151.375 C 367.387 147.507,366.600 144.744,362.487 141.066 C 357.147 136.292,356.089 134.181,356.060 128.236 L 356.038 123.892 357.428 121.655 C 358.878 119.323,360.513 117.541,363.333 115.223 C 366.626 112.516,367.648 108.784,365.927 105.751 C 365.298 104.643,364.223 102.256,363.539 100.447 C 361.690 95.563,360.663 95.079,352.389 95.186 C 345.483 95.274,344.771 95.048,341.571 91.742 C 340.092 90.215,338.730 88.966,338.543 88.966 C 337.223 88.966,336.598 85.763,336.577 78.888 C 336.551 70.169,336.483 70.010,331.983 68.155 C 330.639 67.601,328.464 66.492,327.150 65.691 C 323.047 63.190,319.725 64.055,315.915 68.617 C 314.382 70.452,312.700 72.007,311.171 73.002 L 308.802 74.544 303.402 74.536 C 296.559 74.526,296.075 74.248,288.914 66.216 L 287.125 64.208 283.701 64.351 C 280.753 64.474,280.057 64.624,278.684 65.436 C 275.763 67.160,273.913 66.553,274.598 64.095 C 275.113 62.249,274.741 56.297,274.024 54.912 C 273.612 54.114,272.759 53.513,270.621 52.513 C 264.027 49.430,262.725 46.175,265.157 38.850 C 265.919 36.553,266.437 34.496,266.307 34.279 C 265.549 33.009,261.187 28.148,260.654 27.979 C 259.535 27.624,255.552 28.469,253.284 29.542 C 250.432 30.891,249.845 30.857,247.077 29.184 C 244.168 27.427,243.524 26.735,242.387 24.149 C 241.197 21.445,240.455 20.681,237.628 19.252 C 234.703 17.774,234.155 17.779,231.604 19.311 M238.054 20.637 C 240.280 21.705,240.334 21.763,241.762 24.711 C 244.612 30.592,248.934 32.509,254.387 30.311 C 258.403 28.693,260.312 28.548,261.431 29.775 C 265.523 34.264,265.495 34.190,264.449 37.533 C 263.263 41.320,262.718 44.625,263.073 45.864 C 263.999 49.092,266.695 51.929,269.975 53.125 C 276.730 55.588,275.137 66.423,267.767 68.136 C 263.355 69.162,261.566 73.829,263.433 79.439 C 264.412 82.380,264.043 88.682,262.840 89.591 C 261.884 90.314,255.200 89.934,252.352 88.995 L 250.142 88.267 247.319 89.041 C 243.768 90.014,242.594 90.982,242.355 93.136 C 242.040 95.966,241.912 96.240,240.658 96.764 C 239.994 97.041,238.850 97.752,238.115 98.342 C 234.158 101.522,229.786 99.797,227.093 93.995 C 225.437 90.425,224.986 89.995,221.787 88.930 C 219.386 88.132,218.222 88.161,214.075 89.123 C 208.300 90.462,206.166 89.571,204.771 85.239 C 203.792 82.199,203.800 81.833,204.906 79.418 C 207.227 74.348,205.861 70.296,200.679 66.879 C 195.312 63.341,194.612 62.472,194.615 59.357 C 194.620 55.379,195.472 54.134,199.212 52.644 C 205.346 50.201,207.103 45.759,205.019 37.963 C 204.102 34.533,204.136 34.251,205.785 31.721 C 208.045 28.252,211.240 27.715,215.662 30.061 C 220.022 32.373,224.640 30.263,227.456 24.672 C 228.661 22.278,230.145 20.984,233.189 19.671 C 234.576 19.073,234.945 19.146,238.054 20.637 M230.362 40.647 C 219.576 42.922,213.625 52.105,215.489 63.595 C 216.394 69.173,220.882 74.396,227.822 77.945 C 234.030 81.121,244.011 78.177,249.408 71.577 C 253.234 66.898,254.166 63.750,253.671 57.168 C 252.832 46.012,241.845 38.225,230.362 40.647 M238.451 41.506 C 241.957 42.131,245.328 43.756,246.605 45.436 C 247.152 46.154,248.403 47.618,249.385 48.689 C 252.508 52.093,253.709 57.489,252.670 63.452 C 252.081 66.836,248.659 72.157,245.965 73.879 C 240.828 77.163,240.128 77.524,238.203 77.886 C 235.639 78.367,230.242 78.084,228.649 77.384 C 222.279 74.586,217.010 68.442,216.171 62.832 C 214.149 49.331,224.857 39.081,238.451 41.506 M286.624 65.358 C 287.209 65.561,288.109 66.336,288.623 67.079 C 290.307 69.509,295.798 74.521,297.307 75.006 C 298.071 75.252,300.693 75.545,303.133 75.657 L 307.570 75.861 310.254 74.534 C 312.038 73.652,313.463 72.632,314.505 71.491 C 318.662 66.939,319.203 66.476,321.267 65.712 C 323.656 64.826,324.116 64.894,326.581 66.487 C 327.582 67.135,329.814 68.250,331.542 68.966 C 335.877 70.763,335.831 70.653,335.869 79.235 C 335.905 87.258,336.237 88.448,338.961 90.323 C 339.837 90.925,341.020 92.097,341.590 92.926 C 343.295 95.403,344.249 95.677,352.042 95.928 C 361.087 96.219,360.971 96.159,363.132 101.704 C 363.874 103.608,364.809 105.704,365.211 106.362 C 366.132 107.873,366.127 108.578,365.180 110.901 C 364.053 113.668,363.597 114.250,361.387 115.751 C 358.120 117.970,354.943 123.026,354.635 126.499 C 354.111 132.395,355.192 134.821,361.014 140.817 L 365.032 144.955 365.172 146.934 C 365.260 148.175,365.116 149.433,364.788 150.304 C 361.592 158.790,361.439 158.998,357.230 160.597 C 355.451 161.273,355.316 161.277,352.992 160.707 C 346.000 158.994,338.660 163.234,335.506 170.808 C 335.013 171.993,334.963 172.952,335.169 177.301 C 335.348 181.084,335.299 182.612,334.980 183.209 C 331.287 190.134,319.595 192.773,316.079 187.475 C 315.404 186.458,314.373 185.264,313.788 184.820 C 313.203 184.377,311.737 183.128,310.530 182.046 C 307.974 179.753,307.015 179.523,300.861 179.724 C 297.814 179.823,297.034 179.963,296.324 180.539 C 295.852 180.921,294.420 182.080,293.142 183.113 C 291.864 184.147,290.203 185.826,289.451 186.844 C 286.160 191.298,278.237 191.118,273.655 186.486 C 272.689 185.509,271.164 184.204,270.267 183.587 C 268.421 182.316,268.375 182.094,269.335 179.031 C 271.301 172.761,269.539 166.941,264.558 163.247 C 263.074 162.146,261.417 160.895,260.877 160.466 C 259.951 159.732,259.565 159.686,254.100 159.669 C 245.347 159.640,243.970 158.949,242.588 153.891 C 242.206 152.492,241.578 150.330,241.192 149.088 C 239.923 144.995,240.653 143.481,246.340 138.405 C 250.134 135.019,251.882 130.767,251.526 125.790 C 251.362 123.509,250.991 122.676,247.891 117.637 C 247.538 117.063,246.399 116.086,245.360 115.464 C 243.627 114.429,243.343 114.070,241.955 111.161 L 240.440 107.988 241.290 105.688 C 241.758 104.423,242.255 102.372,242.396 101.129 C 242.906 96.617,244.920 95.611,254.275 95.197 C 261.326 94.885,261.750 94.763,263.974 92.390 C 264.754 91.558,265.961 90.445,266.655 89.916 C 267.350 89.387,268.335 88.214,268.845 87.310 C 269.354 86.405,270.219 85.014,270.767 84.218 C 271.912 82.555,272.005 81.389,271.210 78.654 C 270.671 76.800,270.682 76.648,271.618 72.931 C 272.712 68.586,273.184 67.993,275.835 67.635 C 276.750 67.512,278.202 67.000,279.062 66.499 C 281.571 65.036,284.454 64.601,286.624 65.358 M269.782 70.497 C 270.423 71.137,270.447 71.356,270.079 73.187 C 269.859 74.284,269.679 76.661,269.679 78.470 C 269.679 81.062,269.541 81.990,269.030 82.843 C 268.674 83.439,268.193 84.709,267.962 85.665 C 266.839 90.304,264.621 89.460,265.009 84.542 C 265.197 82.167,265.114 81.558,264.323 79.488 C 261.909 73.172,265.894 66.609,269.782 70.497 M138.316 75.133 C 134.537 76.531,132.919 78.736,131.405 84.558 C 130.716 87.206,129.911 89.364,129.138 90.639 C 128.478 91.726,127.463 94.182,126.881 96.097 C 125.321 101.231,122.665 103.475,115.562 105.657 C 114.229 106.066,111.962 107.007,110.523 107.747 C 105.249 110.461,102.728 110.441,97.754 107.647 C 95.883 106.596,93.493 105.460,92.441 105.123 C 91.390 104.786,89.097 103.660,87.345 102.621 C 83.307 100.225,81.457 99.653,78.719 99.951 C 75.869 100.261,75.844 100.278,70.649 105.435 C 68.125 107.941,65.467 110.561,64.742 111.256 C 64.016 111.952,62.854 113.125,62.158 113.863 C 61.462 114.601,60.250 115.766,59.465 116.452 L 58.036 117.700 58.045 120.275 C 58.055 123.598,58.437 125.171,59.656 126.908 C 61.591 129.668,62.209 130.883,63.243 133.970 C 63.820 135.691,64.918 138.115,65.682 139.357 C 68.559 144.031,68.608 146.751,65.896 151.256 C 64.587 153.430,64.219 154.332,63.237 157.776 C 62.310 161.029,61.690 162.104,59.014 165.092 C 56.588 167.802,57.079 167.534,51.704 169.087 C 49.463 169.735,46.883 170.642,45.970 171.102 C 45.057 171.562,42.307 172.606,39.860 173.423 C 32.374 175.921,32.581 175.425,32.408 191.317 L 32.279 203.138 33.091 204.349 C 34.413 206.320,39.976 209.274,45.178 210.769 C 56.576 214.042,60.841 217.631,63.236 225.962 C 63.926 228.362,64.905 230.798,65.756 232.230 C 67.659 235.432,67.621 238.535,65.641 241.540 C 64.953 242.585,63.815 245.004,63.112 246.916 C 62.410 248.827,61.396 250.938,60.861 251.607 C 58.927 254.022,56.812 259.627,57.081 261.625 C 57.479 264.577,58.796 266.959,60.926 268.576 C 62.038 269.420,63.342 270.707,63.825 271.436 C 64.308 272.166,65.380 273.290,66.207 273.935 C 67.035 274.580,68.258 275.761,68.926 276.561 C 69.594 277.360,70.663 278.438,71.300 278.955 C 71.937 279.473,73.270 280.647,74.262 281.564 C 76.684 283.803,79.490 283.723,83.136 281.311 C 83.906 280.801,85.947 279.859,87.672 279.218 C 89.397 278.577,92.049 277.331,93.566 276.450 C 100.066 272.673,105.064 272.714,112.424 276.605 C 114.144 277.514,116.412 278.540,117.463 278.885 C 122.733 280.611,125.041 283.486,126.660 290.337 C 127.159 292.451,128.040 294.983,128.723 296.270 C 129.378 297.504,130.397 299.963,130.988 301.733 C 133.060 307.940,133.189 307.988,148.393 308.172 C 160.533 308.320,161.413 308.211,162.801 306.391 C 165.206 303.239,167.572 298.078,168.740 293.440 C 170.070 288.162,169.999 288.320,172.925 284.093 C 175.333 280.615,175.382 280.579,179.844 279.027 C 181.564 278.429,184.030 277.406,185.324 276.755 C 192.442 273.172,196.042 273.134,201.720 276.581 C 203.259 277.515,205.613 278.690,206.950 279.193 C 208.288 279.696,210.009 280.448,210.773 280.864 C 220.169 285.975,219.322 286.330,234.854 270.779 C 240.482 265.144,241.455 262.318,238.970 258.823 C 238.327 257.918,237.527 256.199,237.192 255.001 C 236.494 252.504,235.667 250.772,234.044 248.413 C 229.817 242.268,230.006 234.179,234.553 226.617 C 235.310 225.357,236.423 222.958,237.025 221.285 C 238.321 217.686,238.801 217.235,242.677 215.971 C 244.244 215.459,247.011 214.370,248.827 213.549 C 250.643 212.728,254.134 211.514,256.585 210.850 C 264.346 208.748,265.220 207.176,265.174 195.408 C 265.157 191.073,265.321 186.310,265.538 184.824 C 266.336 179.364,263.238 175.976,255.430 173.769 C 253.232 173.148,250.417 172.132,249.175 171.511 C 247.932 170.891,246.290 170.180,245.526 169.933 C 239.655 168.032,238.323 166.898,237.006 162.687 C 236.441 160.877,235.338 158.337,234.555 157.042 C 230.330 150.049,230.304 143.599,234.477 137.694 C 235.364 136.439,236.433 134.290,236.991 132.642 C 238.161 129.178,238.781 127.935,239.791 127.020 C 243.278 123.865,242.128 120.008,235.854 113.814 C 233.337 111.329,229.670 107.597,227.705 105.521 C 224.434 102.063,223.956 101.690,222.027 101.090 C 218.606 100.025,218.247 100.114,212.337 103.498 C 211.286 104.100,209.416 104.931,208.181 105.346 C 206.946 105.761,204.291 107.015,202.281 108.133 C 198.445 110.265,198.231 110.323,194.613 110.177 C 192.114 110.076,190.521 109.543,187.663 107.852 C 186.612 107.229,184.111 106.151,182.107 105.455 C 176.228 103.414,175.563 102.865,173.505 98.349 C 172.852 96.916,171.779 94.648,171.122 93.310 C 170.454 91.948,169.412 88.769,168.757 86.089 C 168.016 83.059,167.255 80.801,166.685 79.939 C 165.730 78.497,161.848 75.073,161.146 75.054 C 154.634 74.876,138.862 74.931,138.316 75.133 M161.936 76.548 C 165.310 78.912,166.779 81.491,168.401 87.899 C 170.926 97.875,174.782 103.883,179.670 105.456 C 181.295 105.978,184.657 107.409,187.142 108.635 C 194.468 112.251,197.139 112.167,204.344 108.095 C 205.969 107.177,208.158 106.151,209.209 105.815 C 211.520 105.077,213.400 104.158,215.397 102.790 C 217.647 101.248,218.606 101.081,221.147 101.785 C 223.556 102.454,222.333 101.353,234.710 113.988 C 240.844 120.250,241.920 123.199,239.199 126.290 C 238.124 127.512,237.510 128.701,236.798 130.935 C 236.234 132.707,235.239 134.818,234.371 136.087 C 229.545 143.136,229.426 151.761,234.067 158.126 C 234.695 158.987,235.630 161.020,236.145 162.643 C 237.631 167.325,238.089 167.842,242.279 169.577 C 244.256 170.396,246.740 171.502,247.800 172.036 C 248.860 172.569,251.430 173.501,253.512 174.107 C 259.337 175.805,260.843 176.456,262.010 177.785 C 264.347 180.447,264.341 180.410,264.242 192.622 L 264.152 203.663 263.017 205.792 C 261.589 208.470,260.978 208.830,255.245 210.372 C 252.674 211.063,249.612 212.113,248.440 212.705 C 247.268 213.296,244.725 214.329,242.790 214.999 C 238.488 216.489,237.724 217.177,236.353 220.797 C 235.763 222.356,234.652 224.648,233.883 225.891 C 228.928 233.899,229.002 243.039,234.079 250.265 C 234.979 251.547,235.945 253.499,236.376 254.909 C 236.786 256.247,237.580 258.223,238.141 259.301 C 239.745 262.380,238.475 266.905,235.353 269.229 C 234.640 269.760,231.868 272.396,229.192 275.086 C 219.866 284.465,219.162 284.746,213.553 281.321 C 212.215 280.504,209.976 279.426,208.577 278.926 C 207.178 278.426,204.317 277.056,202.220 275.881 C 195.658 272.207,192.192 272.282,184.188 276.273 C 182.754 276.988,180.299 277.996,178.733 278.514 C 175.296 279.648,174.648 280.131,172.247 283.343 C 169.780 286.644,169.779 286.646,168.358 291.987 C 167.590 294.869,166.627 297.528,165.800 299.044 C 165.071 300.382,164.279 302.079,164.041 302.814 C 163.803 303.549,162.948 304.839,162.141 305.681 L 160.675 307.211 149.929 307.198 C 133.670 307.179,133.040 306.959,131.544 300.782 C 131.220 299.444,130.270 296.991,129.434 295.331 C 128.597 293.671,127.516 290.748,127.031 288.835 C 125.377 282.311,123.733 280.366,118.027 278.183 C 116.857 277.736,114.570 276.682,112.945 275.843 C 111.321 275.003,108.378 273.869,106.406 273.322 L 102.821 272.327 99.638 273.103 C 97.416 273.645,95.192 274.545,92.276 276.083 C 89.978 277.295,87.706 278.397,87.228 278.532 C 86.751 278.667,84.810 279.492,82.916 280.366 C 76.404 283.370,77.345 283.830,65.300 271.749 C 58.874 265.303,58.834 265.253,58.214 262.963 L 57.590 260.659 58.558 258.006 C 59.090 256.547,60.066 254.550,60.728 253.567 C 62.328 251.193,63.002 249.809,63.919 247.020 C 64.340 245.739,65.372 243.644,66.212 242.365 C 68.724 238.541,68.788 235.138,66.415 231.468 C 65.648 230.280,64.772 228.422,64.468 227.339 C 64.165 226.256,63.611 224.333,63.238 223.065 C 61.539 217.295,56.657 213.361,47.958 210.750 C 40.886 208.627,35.737 206.136,33.895 203.947 L 32.991 202.873 33.146 191.532 C 33.359 175.864,33.393 175.796,42.104 173.586 C 43.317 173.279,45.560 172.431,47.089 171.702 C 48.619 170.973,51.199 170.028,52.824 169.602 C 58.722 168.056,61.824 164.928,63.799 158.536 C 64.563 156.062,65.574 153.659,66.385 152.389 C 69.571 147.401,69.502 143.806,66.110 138.188 C 65.318 136.876,64.251 134.531,63.739 132.975 C 62.582 129.466,62.058 128.416,60.628 126.739 C 58.288 123.996,57.949 118.726,60.000 116.980 C 60.698 116.385,62.019 115.117,62.935 114.162 C 63.851 113.206,64.846 112.189,65.145 111.903 C 65.445 111.616,67.942 109.166,70.695 106.457 C 77.914 99.355,79.166 99.079,86.186 103.039 C 88.384 104.279,91.111 105.608,92.245 105.991 C 93.379 106.374,95.349 107.317,96.622 108.086 C 102.114 111.405,105.201 111.481,111.208 108.447 C 113.023 107.529,115.838 106.372,117.463 105.875 C 123.205 104.118,125.762 101.818,127.510 96.837 C 128.103 95.145,129.137 92.782,129.806 91.585 C 130.598 90.169,131.403 87.862,132.108 84.989 C 133.333 80.001,133.850 79.165,136.945 77.165 L 138.886 75.909 150.047 75.973 C 159.230 76.026,161.336 76.128,161.936 76.548 M252.592 89.992 C 254.057 90.364,256.647 90.794,258.347 90.947 C 264.017 91.457,263.433 93.378,257.454 93.888 C 255.481 94.056,252.224 94.364,250.217 94.572 C 244.289 95.186,244.217 95.181,243.699 94.109 C 242.692 92.027,243.858 90.786,247.695 89.857 C 248.795 89.590,249.748 89.359,249.812 89.343 C 249.875 89.327,251.127 89.619,252.592 89.992 M298.697 96.240 C 295.459 96.771,286.391 100.763,284.441 102.515 C 283.481 103.378,282.121 104.472,281.418 104.947 C 280.715 105.421,279.702 106.513,279.166 107.371 C 278.631 108.230,277.468 109.739,276.582 110.725 C 270.090 117.947,270.332 137.473,277.014 145.644 C 278.045 146.904,279.380 148.646,279.982 149.514 C 280.664 150.498,282.041 151.714,283.631 152.735 C 285.036 153.638,286.978 154.981,287.946 155.721 C 293.235 159.762,309.941 160.532,315.896 157.009 C 320.315 154.394,325.204 150.804,326.018 149.576 C 326.512 148.830,327.663 147.359,328.574 146.308 C 335.740 138.043,336.240 118.933,329.502 110.864 C 328.782 110.002,327.694 108.564,327.085 107.669 C 326.475 106.773,325.468 105.688,324.847 105.256 C 324.226 104.825,322.836 103.666,321.758 102.680 C 317.018 98.348,305.481 95.126,298.697 96.240 M310.513 98.278 C 312.042 98.867,314.466 99.770,315.899 100.285 C 317.333 100.801,318.921 101.553,319.429 101.958 C 327.905 108.706,330.695 112.628,332.433 120.243 C 335.378 133.142,330.442 147.129,321.008 152.618 C 319.632 153.419,317.671 154.701,316.652 155.468 C 311.195 159.569,294.857 159.552,289.232 155.439 C 288.245 154.717,286.140 153.291,284.553 152.269 C 281.234 150.132,275.657 143.252,274.508 139.878 C 271.445 130.885,272.653 116.749,276.906 111.814 C 277.805 110.772,278.967 109.191,279.489 108.302 C 280.016 107.403,281.168 106.185,282.083 105.558 C 282.988 104.938,284.457 103.764,285.347 102.949 C 286.883 101.540,294.148 98.427,298.523 97.301 C 301.216 96.609,307.509 97.121,310.513 98.278 M142.311 136.942 C 138.417 137.273,134.454 138.164,132.407 139.169 C 131.546 139.591,128.997 140.627,126.741 141.471 C 124.002 142.496,122.099 143.450,121.014 144.344 C 120.120 145.079,118.635 146.063,117.714 146.531 C 115.607 147.598,108.446 154.230,106.255 157.144 C 101.657 163.255,100.905 164.431,99.720 167.365 C 99.017 169.104,98.035 171.220,97.538 172.068 C 92.891 179.999,92.928 202.509,97.604 211.642 C 98.534 213.458,99.728 216.095,100.258 217.503 C 100.869 219.126,101.775 220.686,102.736 221.768 C 103.570 222.707,104.560 224.058,104.937 224.770 C 106.360 227.459,115.787 236.339,118.853 237.879 C 119.904 238.408,121.312 239.267,121.981 239.789 C 123.897 241.285,125.042 241.767,132.870 244.376 L 140.226 246.827 147.076 247.008 C 155.616 247.234,157.366 246.968,165.988 244.132 C 173.214 241.755,173.854 241.488,175.152 240.305 C 175.630 239.869,177.350 238.785,178.975 237.896 C 180.599 237.006,182.789 235.456,183.840 234.450 C 184.891 233.445,186.334 232.197,187.045 231.678 C 187.757 231.160,188.842 229.997,189.457 229.095 C 190.072 228.193,191.258 226.847,192.092 226.105 C 192.992 225.305,194.110 223.760,194.841 222.308 C 195.519 220.961,196.896 218.660,197.900 217.194 C 199.273 215.188,199.877 213.891,200.339 211.956 C 200.676 210.541,201.549 207.507,202.280 205.213 C 205.252 195.877,205.310 187.312,202.456 178.980 C 201.834 177.161,201.041 174.500,200.694 173.067 C 199.863 169.623,199.098 167.893,197.432 165.685 C 196.673 164.680,195.591 162.831,195.028 161.576 C 194.344 160.049,193.486 158.842,192.438 157.927 C 191.576 157.175,190.473 155.916,189.988 155.130 C 189.502 154.344,188.600 153.328,187.982 152.871 C 187.365 152.415,185.985 151.160,184.916 150.082 C 183.846 149.004,182.189 147.684,181.234 147.149 C 180.278 146.613,178.636 145.518,177.585 144.715 C 175.465 143.096,174.265 142.444,172.198 141.790 C 171.434 141.548,169.178 140.659,167.186 139.814 C 160.504 136.978,152.608 136.067,142.311 136.942 M158.123 138.112 C 160.373 138.439,162.865 139.145,165.943 140.327 C 168.427 141.282,171.223 142.335,172.156 142.667 C 173.088 143.000,174.809 143.951,175.979 144.781 C 177.149 145.612,178.883 146.706,179.833 147.213 C 180.783 147.720,182.504 149.026,183.656 150.115 C 184.809 151.204,186.276 152.457,186.917 152.899 C 187.558 153.342,188.606 154.523,189.246 155.524 C 189.887 156.525,191.059 157.858,191.852 158.485 C 192.873 159.295,193.626 160.359,194.440 162.146 C 195.072 163.532,196.207 165.578,196.962 166.694 C 199.055 169.785,199.354 170.517,200.508 175.356 C 201.096 177.824,201.892 181.017,202.277 182.450 C 204.173 189.505,203.910 194.425,201.016 206.099 C 199.245 213.241,198.936 214.148,197.742 215.726 C 197.017 216.684,195.612 219.048,194.621 220.978 C 193.333 223.484,192.415 224.807,191.410 225.603 C 190.636 226.216,189.476 227.541,188.833 228.546 C 188.181 229.566,186.932 230.866,186.012 231.485 C 185.104 232.096,183.658 233.316,182.798 234.196 C 181.937 235.076,180.061 236.406,178.627 237.152 C 177.194 237.898,175.474 238.932,174.805 239.450 C 172.629 241.134,171.725 241.475,160.382 244.899 C 153.368 247.016,143.377 246.721,135.308 244.159 C 132.661 243.319,129.635 242.389,128.584 242.094 C 127.533 241.799,125.734 240.979,124.587 240.273 C 123.440 239.567,121.283 238.320,119.793 237.503 C 115.381 235.082,107.563 227.691,105.306 223.805 C 104.695 222.754,103.662 221.340,103.010 220.663 C 102.190 219.812,101.357 218.202,100.309 215.450 C 99.476 213.260,98.243 210.434,97.570 209.170 C 93.721 201.946,93.954 181.492,97.977 173.456 C 98.897 171.617,100.022 168.953,100.477 167.535 C 101.050 165.748,101.736 164.468,102.712 163.364 C 103.488 162.489,104.569 160.990,105.116 160.035 C 106.528 157.568,115.770 148.479,118.164 147.203 C 119.212 146.645,120.700 145.677,121.471 145.051 C 123.007 143.805,124.706 143.008,128.410 141.795 C 129.748 141.357,131.558 140.640,132.431 140.203 C 137.178 137.828,149.346 136.838,158.123 138.112 " stroke="none" fill="#8c8c8c" fill-rule="evenodd"></path><path id="path4" d="M233.189 19.671 C 230.145 20.984,228.661 22.278,227.456 24.672 C 225.994 27.573,223.525 29.883,221.018 30.692 C 218.560 31.486,218.290 31.455,215.662 30.061 C 211.240 27.715,208.045 28.252,205.785 31.721 C 204.136 34.251,204.102 34.533,205.019 37.963 C 207.103 45.759,205.346 50.201,199.212 52.644 C 195.472 54.134,194.620 55.379,194.615 59.357 C 194.612 62.472,195.312 63.341,200.679 66.879 C 205.861 70.296,207.227 74.348,204.906 79.418 C 203.800 81.833,203.792 82.199,204.771 85.239 C 206.166 89.571,208.300 90.462,214.075 89.123 C 218.222 88.161,219.386 88.132,221.787 88.930 C 224.986 89.995,225.437 90.425,227.093 93.995 C 229.786 99.797,234.158 101.522,238.115 98.342 C 238.850 97.752,239.994 97.041,240.658 96.764 C 241.912 96.240,242.040 95.966,242.355 93.136 C 242.594 90.982,243.768 90.014,247.319 89.041 L 250.142 88.267 252.352 88.995 C 255.200 89.934,261.884 90.314,262.840 89.591 C 264.043 88.682,264.412 82.380,263.433 79.439 C 261.566 73.829,263.355 69.162,267.767 68.136 C 275.137 66.423,276.730 55.588,269.975 53.125 C 266.695 51.929,263.999 49.092,263.073 45.864 C 262.718 44.625,263.263 41.320,264.449 37.533 C 265.495 34.190,265.523 34.264,261.431 29.775 C 260.312 28.548,258.403 28.693,254.387 30.311 C 248.934 32.509,244.612 30.592,241.762 24.711 C 240.334 21.763,240.280 21.705,238.054 20.637 C 234.945 19.146,234.576 19.073,233.189 19.671 M237.186 21.954 C 239.350 22.783,239.810 23.301,240.678 25.891 C 242.663 31.812,247.456 33.921,254.971 32.178 C 262.307 30.477,263.811 31.800,262.417 38.727 C 260.609 47.711,262.135 51.597,268.429 54.036 C 271.980 55.412,272.088 55.530,272.796 58.802 C 273.357 61.395,272.444 63.114,269.852 64.349 C 268.449 65.018,265.330 66.888,263.822 67.965 C 261.835 69.383,260.946 74.927,262.006 79.292 C 264.019 87.587,260.212 90.753,252.733 87.004 L 250.209 85.739 247.694 86.844 C 242.357 89.189,242.119 89.353,241.085 91.394 C 240.554 92.443,239.601 93.851,238.967 94.522 C 238.334 95.193,237.482 96.230,237.075 96.826 C 234.868 100.056,230.097 97.774,228.170 92.569 C 227.121 89.735,226.736 89.371,222.870 87.561 C 218.543 85.535,218.610 85.542,215.764 86.872 C 208.428 90.300,204.219 86.986,206.446 79.535 C 208.690 72.029,206.563 67.668,198.618 63.483 C 196.064 62.137,195.470 60.888,196.030 58.041 C 196.581 55.244,196.791 55.030,200.145 53.856 C 206.255 51.717,208.094 48.221,206.951 40.916 C 205.935 34.425,205.930 34.211,206.757 32.873 C 208.049 30.783,210.412 30.530,214.858 32.004 C 221.002 34.042,225.512 32.096,228.657 26.050 C 230.990 21.566,233.288 20.463,237.186 21.954 M231.798 38.114 C 223.989 40.803,221.341 42.134,220.173 43.959 C 219.529 44.967,218.430 46.227,217.731 46.760 C 212.302 50.901,212.314 65.559,217.751 72.289 C 229.271 86.548,251.315 81.598,254.914 63.944 C 256.253 57.378,254.271 48.494,251.043 46.589 C 250.382 46.199,249.574 45.389,249.247 44.790 C 248.316 43.081,247.128 41.761,246.292 41.506 C 245.871 41.377,243.453 40.508,240.920 39.576 C 236.439 37.926,233.646 37.479,231.798 38.114 M237.533 40.485 C 243.370 41.576,244.889 42.376,248.460 46.237 C 253.337 51.509,254.571 55.743,253.456 63.376 C 252.394 70.642,244.865 77.798,237.153 78.870 C 231.948 79.594,229.028 78.874,224.035 75.634 C 209.373 66.120,213.330 44.240,230.362 40.647 C 234.110 39.856,234.163 39.855,237.533 40.485 M281.668 65.323 C 281.095 65.468,279.922 65.998,279.062 66.499 C 278.202 67.000,276.750 67.512,275.835 67.635 C 273.184 67.993,272.712 68.586,271.618 72.931 C 270.682 76.648,270.671 76.800,271.210 78.654 C 272.005 81.389,271.912 82.555,270.767 84.218 C 270.219 85.014,269.354 86.405,268.845 87.310 C 268.335 88.214,267.350 89.387,266.655 89.916 C 265.961 90.445,264.754 91.558,263.974 92.390 C 261.750 94.763,261.326 94.885,254.275 95.197 C 244.920 95.611,242.906 96.617,242.396 101.129 C 242.255 102.372,241.758 104.423,241.290 105.688 L 240.440 107.988 241.955 111.161 C 243.343 114.070,243.627 114.429,245.360 115.464 C 246.399 116.086,247.538 117.063,247.891 117.637 C 250.991 122.676,251.362 123.509,251.526 125.790 C 251.882 130.767,250.134 135.019,246.340 138.405 C 240.653 143.481,239.923 144.995,241.192 149.088 C 241.578 150.330,242.206 152.492,242.588 153.891 C 243.970 158.949,245.347 159.640,254.100 159.669 C 259.565 159.686,259.951 159.732,260.877 160.466 C 261.417 160.895,263.074 162.146,264.558 163.247 C 269.539 166.941,271.301 172.761,269.335 179.031 C 268.375 182.094,268.421 182.316,270.267 183.587 C 271.164 184.204,272.689 185.509,273.655 186.486 C 278.237 191.118,286.160 191.298,289.451 186.844 C 290.203 185.826,291.864 184.147,293.142 183.113 C 294.420 182.080,295.852 180.921,296.324 180.539 C 297.034 179.963,297.814 179.823,300.861 179.724 C 307.015 179.523,307.974 179.753,310.530 182.046 C 311.737 183.128,313.203 184.377,313.788 184.820 C 314.373 185.264,315.404 186.458,316.079 187.475 C 319.595 192.773,331.287 190.134,334.980 183.209 C 335.299 182.612,335.348 181.084,335.169 177.301 C 334.963 172.952,335.013 171.993,335.506 170.808 C 338.660 163.234,346.000 158.994,352.992 160.707 C 355.316 161.277,355.451 161.273,357.230 160.597 C 361.439 158.998,361.592 158.790,364.788 150.304 C 365.116 149.433,365.260 148.175,365.172 146.934 L 365.032 144.955 361.014 140.817 C 355.192 134.821,354.111 132.395,354.635 126.499 C 354.943 123.026,358.120 117.970,361.387 115.751 C 363.597 114.250,364.053 113.668,365.180 110.901 C 366.127 108.578,366.132 107.873,365.211 106.362 C 364.809 105.704,363.874 103.608,363.132 101.704 C 360.971 96.159,361.087 96.219,352.042 95.928 C 344.249 95.677,343.295 95.403,341.590 92.926 C 341.020 92.097,339.837 90.925,338.961 90.323 C 336.237 88.448,335.905 87.258,335.869 79.235 C 335.831 70.653,335.877 70.763,331.542 68.966 C 329.814 68.250,327.582 67.135,326.581 66.487 C 324.116 64.894,323.656 64.826,321.267 65.712 C 319.203 66.476,318.662 66.939,314.505 71.491 C 313.463 72.632,312.038 73.652,310.254 74.534 L 307.570 75.861 303.133 75.657 C 300.693 75.545,298.071 75.252,297.307 75.006 C 295.798 74.521,290.307 69.509,288.623 67.079 C 287.283 65.144,284.821 64.523,281.668 65.323 M290.090 71.247 C 295.306 76.698,297.182 77.609,303.527 77.772 L 308.080 77.889 311.034 76.185 C 314.183 74.367,315.858 72.896,317.342 70.643 C 318.788 68.448,323.356 66.830,325.034 67.920 C 325.457 68.195,327.182 68.917,328.866 69.524 C 334.143 71.428,335.254 73.451,334.213 79.270 C 333.358 84.055,334.906 89.199,337.882 91.456 C 338.693 92.072,339.828 93.210,340.403 93.985 C 342.434 96.725,347.595 98.112,352.812 97.322 C 358.350 96.482,360.595 98.278,362.799 105.308 C 363.731 108.281,363.733 108.304,363.146 110.386 C 362.298 113.393,361.986 113.832,359.785 115.118 C 358.349 115.957,357.533 116.744,356.798 117.997 C 356.242 118.946,355.191 120.370,354.462 121.162 C 352.841 122.925,352.571 124.345,352.826 129.760 C 353.068 134.885,354.290 137.112,359.318 141.594 C 363.462 145.288,363.827 146.171,362.844 150.130 C 361.267 156.483,360.978 156.949,357.917 158.069 C 355.807 158.840,355.542 158.860,352.848 158.451 C 347.401 157.623,344.244 158.321,341.881 160.872 C 341.167 161.644,339.994 162.577,339.275 162.945 C 337.649 163.779,336.705 164.800,335.701 166.811 C 335.271 167.672,334.448 169.035,333.872 169.842 C 332.529 171.723,332.183 175.346,333.060 178.361 C 333.889 181.213,333.795 181.974,332.457 183.250 C 331.815 183.861,330.871 184.931,330.359 185.627 C 328.980 187.500,326.535 188.447,322.591 188.635 C 318.712 188.820,318.053 188.499,316.778 185.805 C 316.076 184.320,315.566 183.769,314.213 183.033 C 313.226 182.496,312.132 181.521,311.582 180.690 C 310.134 178.502,309.029 178.196,302.520 178.177 C 296.051 178.159,295.573 178.293,293.086 180.812 C 292.102 181.809,290.725 183.077,290.026 183.630 C 289.327 184.184,288.448 185.237,288.074 185.971 C 286.123 189.796,278.265 189.486,275.188 185.463 C 274.578 184.666,273.539 183.538,272.878 182.956 C 271.752 181.965,271.691 181.802,271.902 180.350 C 272.566 175.774,272.518 171.532,271.787 170.287 C 271.395 169.618,270.542 168.054,269.893 166.811 C 268.625 164.385,268.197 163.905,265.956 162.399 C 265.159 161.863,263.941 160.764,263.249 159.956 C 261.560 157.981,260.314 157.693,254.071 157.832 C 244.565 158.044,244.345 157.833,242.428 146.627 C 242.156 145.041,243.334 143.209,246.047 141.001 C 251.857 136.273,252.925 134.374,253.230 128.236 C 253.464 123.547,253.135 121.988,251.506 120.051 C 250.872 119.297,249.941 117.963,249.436 117.088 C 248.742 115.882,248.016 115.228,246.443 114.389 C 243.048 112.580,241.988 109.204,243.290 104.346 C 244.093 101.349,244.110 101.320,246.533 98.787 C 248.835 96.381,249.804 96.084,253.599 96.623 C 260.667 97.626,263.569 96.505,268.914 90.702 C 273.750 85.452,274.440 83.621,273.502 78.517 C 272.569 73.441,274.220 69.918,277.965 68.991 C 279.237 68.677,280.669 68.200,281.147 67.932 C 281.629 67.661,282.997 67.439,284.222 67.432 L 286.428 67.420 290.090 71.247 M136.945 77.165 C 133.850 79.165,133.333 80.001,132.108 84.989 C 131.403 87.862,130.598 90.169,129.806 91.585 C 129.137 92.782,128.103 95.145,127.510 96.837 C 125.762 101.818,123.205 104.118,117.463 105.875 C 115.838 106.372,113.023 107.529,111.208 108.447 C 105.201 111.481,102.114 111.405,96.622 108.086 C 95.349 107.317,93.379 106.374,92.245 105.991 C 91.111 105.608,88.384 104.279,86.186 103.039 C 79.166 99.079,77.914 99.355,70.695 106.457 C 67.942 109.166,65.445 111.616,65.145 111.903 C 64.846 112.189,63.851 113.206,62.935 114.162 C 62.019 115.117,60.698 116.385,60.000 116.980 C 57.949 118.726,58.288 123.996,60.628 126.739 C 62.058 128.416,62.582 129.466,63.739 132.975 C 64.251 134.531,65.318 136.876,66.110 138.188 C 69.502 143.806,69.571 147.401,66.385 152.389 C 65.574 153.659,64.563 156.062,63.799 158.536 C 61.824 164.928,58.722 168.056,52.824 169.602 C 51.199 170.028,48.619 170.973,47.089 171.702 C 45.560 172.431,43.317 173.279,42.104 173.586 C 33.393 175.796,33.359 175.864,33.146 191.532 L 32.991 202.873 33.895 203.947 C 35.737 206.136,40.886 208.627,47.958 210.750 C 56.657 213.361,61.539 217.295,63.238 223.065 C 63.611 224.333,64.165 226.256,64.468 227.339 C 64.772 228.422,65.648 230.280,66.415 231.468 C 68.788 235.138,68.724 238.541,66.212 242.365 C 65.372 243.644,64.340 245.739,63.919 247.020 C 63.002 249.809,62.328 251.193,60.728 253.567 C 60.066 254.550,59.090 256.547,58.558 258.006 L 57.590 260.659 58.214 262.963 C 58.834 265.253,58.874 265.303,65.300 271.749 C 77.345 283.830,76.404 283.370,82.916 280.366 C 84.810 279.492,86.751 278.667,87.228 278.532 C 87.706 278.397,89.978 277.295,92.276 276.083 C 95.192 274.545,97.416 273.645,99.638 273.103 L 102.821 272.327 106.406 273.322 C 108.378 273.869,111.321 275.003,112.945 275.843 C 114.570 276.682,116.857 277.736,118.027 278.183 C 123.733 280.366,125.377 282.311,127.031 288.835 C 127.516 290.748,128.597 293.671,129.434 295.331 C 130.270 296.991,131.220 299.444,131.544 300.782 C 133.040 306.959,133.670 307.179,149.929 307.198 L 160.675 307.211 162.141 305.681 C 162.948 304.839,163.803 303.549,164.041 302.814 C 164.279 302.079,165.071 300.382,165.800 299.044 C 166.627 297.528,167.590 294.869,168.358 291.987 C 169.779 286.646,169.780 286.644,172.247 283.343 C 174.648 280.131,175.296 279.648,178.733 278.514 C 180.299 277.996,182.754 276.988,184.188 276.273 C 192.192 272.282,195.658 272.207,202.220 275.881 C 204.317 277.056,207.178 278.426,208.577 278.926 C 209.976 279.426,212.215 280.504,213.553 281.321 C 219.162 284.746,219.866 284.465,229.192 275.086 C 231.868 272.396,234.640 269.760,235.353 269.229 C 238.475 266.905,239.745 262.380,238.141 259.301 C 237.580 258.223,236.786 256.247,236.376 254.909 C 235.945 253.499,234.979 251.547,234.079 250.265 C 229.002 243.039,228.928 233.899,233.883 225.891 C 234.652 224.648,235.763 222.356,236.353 220.797 C 237.724 217.177,238.488 216.489,242.790 214.999 C 244.725 214.329,247.268 213.296,248.440 212.705 C 249.612 212.113,252.674 211.063,255.245 210.372 C 260.978 208.830,261.589 208.470,263.017 205.792 L 264.152 203.663 264.242 192.622 C 264.367 177.263,264.372 177.271,253.512 174.107 C 251.430 173.501,248.860 172.569,247.800 172.036 C 246.740 171.502,244.256 170.396,242.279 169.577 C 238.089 167.842,237.631 167.325,236.145 162.643 C 235.630 161.020,234.695 158.987,234.067 158.126 C 229.426 151.761,229.545 143.136,234.371 136.087 C 235.239 134.818,236.234 132.707,236.798 130.935 C 237.510 128.701,238.124 127.512,239.199 126.290 C 241.920 123.199,240.844 120.250,234.710 113.988 C 222.333 101.353,223.556 102.454,221.147 101.785 C 218.606 101.081,217.647 101.248,215.397 102.790 C 213.400 104.158,211.520 105.077,209.209 105.815 C 208.158 106.151,205.969 107.177,204.344 108.095 C 197.139 112.167,194.468 112.251,187.142 108.635 C 184.657 107.409,181.295 105.978,179.670 105.456 C 174.782 103.883,170.926 97.875,168.401 87.899 C 166.853 81.784,166.771 81.595,164.559 79.151 C 161.526 75.800,162.648 76.045,150.047 75.973 L 138.886 75.909 136.945 77.165 M148.045 78.155 C 151.772 78.271,156.125 78.229,157.718 78.061 L 160.614 77.755 162.314 79.429 C 164.832 81.909,166.211 84.846,167.636 90.763 C 169.937 100.316,173.525 105.405,178.975 106.846 C 180.217 107.175,182.284 108.070,183.567 108.837 C 191.573 113.617,200.035 113.761,205.985 109.219 C 206.865 108.547,209.139 107.479,211.339 106.705 C 213.715 105.867,215.767 104.887,216.761 104.112 C 219.859 101.699,222.327 103.272,232.334 114.040 C 233.107 114.872,234.326 116.021,235.043 116.594 C 237.485 118.547,238.967 123.338,237.686 125.137 C 237.292 125.690,236.510 127.503,235.948 129.166 C 235.255 131.216,234.425 132.827,233.371 134.169 C 232.125 135.755,231.511 137.078,230.284 140.827 L 228.752 145.505 229.205 148.079 C 229.964 152.393,231.793 158.572,232.639 159.681 C 233.700 161.073,235.384 164.471,236.108 166.684 C 236.796 168.784,237.381 169.385,239.445 170.113 C 240.286 170.410,241.999 171.234,243.250 171.945 C 246.421 173.746,247.098 174.012,251.063 175.015 C 255.003 176.012,259.713 177.955,260.937 179.089 C 262.590 180.620,262.624 180.904,262.574 192.779 L 262.526 203.976 261.496 205.443 C 260.243 207.225,258.436 208.021,251.830 209.699 C 248.598 210.521,246.352 211.335,244.291 212.434 C 242.676 213.295,240.557 214.256,239.581 214.570 C 237.441 215.257,236.586 216.113,235.703 218.451 C 235.335 219.425,234.562 220.911,233.985 221.753 C 232.357 224.129,231.531 225.946,230.896 228.542 C 230.575 229.855,229.806 232.043,229.188 233.403 C 226.821 238.609,226.822 239.226,229.204 243.093 C 229.675 243.858,230.222 245.109,230.421 245.873 C 231.332 249.381,231.975 250.878,233.367 252.729 C 237.845 258.687,238.004 265.700,233.721 268.440 C 232.682 269.105,231.598 270.101,231.312 270.655 C 230.764 271.714,228.530 273.849,227.969 273.849 C 227.788 273.849,226.847 274.857,225.879 276.090 C 224.910 277.323,223.802 278.431,223.417 278.553 C 223.032 278.676,221.940 279.466,220.991 280.309 C 218.995 282.082,218.154 282.198,216.488 280.932 C 214.989 279.794,211.716 278.277,209.194 277.552 C 208.134 277.248,206.570 276.468,205.718 275.820 C 198.938 270.657,190.412 270.617,180.973 275.706 C 179.396 276.556,177.715 277.364,177.237 277.501 C 174.476 278.296,173.069 279.200,171.450 281.221 C 168.893 284.411,168.699 284.818,167.539 289.422 C 166.769 292.476,166.078 294.336,165.123 295.920 C 164.387 297.140,163.592 298.890,163.358 299.808 C 161.818 305.826,162.680 305.503,148.678 305.313 C 132.918 305.099,133.555 305.377,132.393 298.199 C 132.088 296.317,131.514 294.741,130.275 292.386 C 129.340 290.610,128.197 287.743,127.735 286.017 C 126.245 280.449,125.434 279.598,119.027 276.879 C 118.262 276.555,116.568 275.682,115.262 274.939 C 113.956 274.196,111.845 273.314,110.571 272.978 C 109.296 272.643,107.033 271.894,105.540 271.314 L 102.827 270.260 98.416 271.751 C 93.602 273.379,90.457 274.778,88.709 276.071 C 87.673 276.836,78.409 280.104,77.275 280.104 C 76.435 280.104,71.401 276.035,70.434 274.572 C 69.928 273.808,68.670 272.559,67.638 271.796 C 66.606 271.034,65.429 269.872,65.022 269.214 C 64.615 268.556,63.403 267.266,62.329 266.348 C 58.377 262.972,58.188 259.849,61.680 255.588 C 63.120 253.830,63.658 252.658,64.787 248.817 C 65.437 246.603,65.935 245.592,66.756 244.820 C 70.616 241.194,70.637 234.311,66.806 228.401 C 65.771 226.805,65.197 225.372,64.663 223.053 C 63.681 218.785,62.916 217.190,61.179 215.783 C 60.374 215.130,58.985 213.984,58.094 213.235 C 56.014 211.489,54.614 210.886,49.601 209.577 C 45.554 208.520,37.087 204.755,35.563 203.334 C 34.949 202.762,34.913 202.087,34.967 191.923 L 35.024 181.120 36.001 179.324 C 36.539 178.336,37.424 177.153,37.967 176.696 C 38.964 175.857,39.351 175.731,44.231 174.646 C 45.717 174.316,48.453 173.301,50.312 172.390 C 52.171 171.479,54.787 170.453,56.125 170.109 C 59.177 169.324,63.240 165.600,63.954 162.932 C 65.129 158.543,65.885 156.567,66.894 155.244 C 71.085 149.745,71.153 140.775,67.040 136.101 C 65.872 134.774,65.409 133.792,64.483 130.676 C 63.598 127.698,63.081 126.570,62.107 125.493 C 59.290 122.374,59.382 118.877,62.327 117.120 C 63.062 116.681,64.134 115.557,64.710 114.622 C 65.358 113.569,66.258 112.666,67.074 112.249 C 67.798 111.880,68.759 111.086,69.208 110.486 C 70.011 109.414,71.082 108.316,73.849 105.728 C 74.613 105.013,75.565 103.963,75.964 103.396 C 76.639 102.436,76.868 102.356,79.266 102.240 L 81.842 102.115 83.833 103.670 C 85.038 104.610,86.892 105.603,88.525 106.182 C 92.100 107.450,93.681 108.211,95.596 109.585 C 100.286 112.953,107.562 112.889,113.339 109.429 C 114.608 108.670,117.315 107.507,119.356 106.846 C 124.921 105.042,126.571 103.604,128.247 99.097 C 128.649 98.017,129.519 96.343,130.181 95.378 C 131.072 94.078,131.617 92.636,132.285 89.818 C 134.085 82.213,134.027 82.355,136.171 80.367 C 138.373 78.326,139.970 77.405,140.747 77.727 C 141.034 77.846,144.318 78.039,148.045 78.155 M299.218 94.532 C 295.576 94.890,294.349 95.283,290.041 97.472 C 287.963 98.528,286.066 99.392,285.825 99.392 C 285.584 99.392,284.376 100.291,283.141 101.390 C 281.906 102.489,280.326 103.825,279.630 104.360 C 278.934 104.894,278.034 105.988,277.630 106.792 C 277.226 107.596,276.210 108.879,275.372 109.644 C 273.986 110.908,273.710 111.457,272.307 115.725 C 271.460 118.306,270.429 121.353,270.017 122.497 C 268.930 125.513,268.927 130.741,270.010 133.623 C 270.441 134.770,271.525 137.849,272.420 140.465 C 273.942 144.920,274.178 145.365,276.119 147.454 C 277.260 148.680,278.607 150.311,279.112 151.077 C 279.649 151.891,280.812 152.917,281.907 153.544 C 282.939 154.134,284.679 155.401,285.774 156.359 C 288.045 158.347,288.824 158.627,296.499 160.216 C 302.621 161.484,304.526 161.457,310.686 160.015 C 316.074 158.755,317.772 158.205,318.948 157.339 C 319.530 156.910,320.940 155.856,322.081 154.996 C 323.222 154.136,324.633 153.171,325.217 152.853 C 325.801 152.535,326.702 151.596,327.218 150.768 C 327.734 149.939,328.964 148.401,329.952 147.350 C 331.057 146.174,332.026 144.704,332.472 143.527 C 336.609 132.613,336.470 133.075,336.661 129.615 C 336.893 125.398,336.408 122.614,334.716 118.455 C 333.979 116.645,333.037 114.144,332.623 112.898 C 332.114 111.369,331.465 110.246,330.626 109.443 C 329.943 108.789,328.848 107.423,328.192 106.408 C 327.537 105.392,326.503 104.297,325.894 103.975 C 325.285 103.652,323.918 102.525,322.856 101.469 C 321.523 100.144,320.442 99.409,319.368 99.096 C 318.511 98.846,316.794 98.050,315.552 97.327 C 312.546 95.576,310.303 94.884,306.433 94.509 C 302.893 94.167,302.940 94.167,299.218 94.532 M313.965 98.560 C 319.006 100.573,320.064 101.132,321.758 102.680 C 322.836 103.666,324.226 104.825,324.847 105.256 C 325.468 105.688,326.475 106.773,327.085 107.669 C 327.694 108.564,328.782 110.002,329.502 110.864 C 336.240 118.933,335.740 138.043,328.574 146.308 C 327.663 147.359,326.512 148.830,326.018 149.576 C 325.204 150.804,320.315 154.394,315.896 157.009 C 309.941 160.532,293.235 159.762,287.946 155.721 C 286.978 154.981,285.036 153.638,283.631 152.735 C 282.041 151.714,280.664 150.498,279.982 149.514 C 279.380 148.646,278.045 146.904,277.014 145.644 C 270.332 137.473,270.090 117.947,276.582 110.725 C 277.468 109.739,278.631 108.230,279.166 107.371 C 279.702 106.513,280.715 105.421,281.418 104.947 C 282.121 104.472,283.481 103.378,284.441 102.515 C 286.391 100.763,295.459 96.771,298.697 96.240 C 303.610 95.433,307.681 96.052,313.965 98.560 M141.442 135.548 C 135.388 136.091,132.297 136.874,128.496 138.826 C 126.537 139.833,124.053 140.910,122.976 141.221 C 121.646 141.605,120.469 142.279,119.308 143.323 C 118.368 144.168,116.634 145.425,115.455 146.116 C 110.525 149.005,101.175 159.877,98.889 165.377 C 98.282 166.835,97.212 168.863,96.509 169.884 C 94.688 172.530,93.582 177.619,92.794 186.968 C 91.986 196.552,93.951 210.191,96.681 213.950 C 97.355 214.879,98.243 216.551,98.655 217.665 C 99.761 220.659,100.368 221.741,101.807 223.284 C 102.521 224.049,103.514 225.378,104.014 226.238 C 105.833 229.362,114.494 237.531,117.029 238.511 C 117.926 238.858,119.462 239.900,120.443 240.828 C 122.002 242.302,122.708 242.667,126.047 243.725 C 128.149 244.390,130.791 245.413,131.919 245.998 C 139.129 249.734,158.775 249.753,166.148 246.031 C 167.310 245.444,169.652 244.510,171.352 243.954 C 175.080 242.736,175.891 242.322,177.991 240.563 C 178.884 239.816,180.641 238.694,181.896 238.070 C 183.588 237.229,184.489 236.501,185.389 235.248 C 186.057 234.319,187.193 233.258,187.915 232.890 C 189.465 232.098,190.149 231.372,190.932 229.685 C 191.249 229.000,192.215 227.943,193.078 227.335 C 194.262 226.500,194.886 225.696,195.623 224.053 C 196.160 222.857,197.270 221.102,198.090 220.155 C 199.803 218.176,200.208 217.305,201.609 212.589 C 202.169 210.704,203.096 208.331,203.669 207.315 C 205.489 204.091,205.873 201.401,205.879 191.833 C 205.885 181.989,205.672 180.562,203.502 175.868 C 202.657 174.041,201.692 171.529,201.357 170.287 C 200.420 166.810,199.561 165.027,198.093 163.510 C 197.353 162.745,196.475 161.416,196.140 160.556 C 195.290 158.370,194.753 157.613,193.386 156.678 C 192.733 156.231,191.783 155.103,191.276 154.172 C 190.660 153.041,189.809 152.140,188.715 151.460 C 187.813 150.899,186.578 149.735,185.970 148.872 C 185.218 147.806,184.337 147.073,183.222 146.586 C 182.320 146.192,180.721 145.056,179.670 144.062 C 178.191 142.663,177.091 142.004,174.805 141.147 C 171.628 139.955,169.725 139.063,167.952 137.934 C 164.794 135.921,151.065 134.686,141.442 135.548 M154.858 136.939 C 160.518 137.396,162.673 137.899,167.186 139.814 C 169.178 140.659,171.434 141.548,172.198 141.790 C 174.265 142.444,175.465 143.096,177.585 144.715 C 178.636 145.518,180.278 146.613,181.234 147.149 C 182.189 147.684,183.846 149.004,184.916 150.082 C 185.985 151.160,187.365 152.415,187.982 152.871 C 188.600 153.328,189.502 154.344,189.988 155.130 C 190.473 155.916,191.576 157.175,192.438 157.927 C 193.486 158.842,194.344 160.049,195.028 161.576 C 195.591 162.831,196.673 164.680,197.432 165.685 C 199.098 167.893,199.863 169.623,200.694 173.067 C 201.041 174.500,201.834 177.161,202.456 178.980 C 205.310 187.312,205.252 195.877,202.280 205.213 C 201.549 207.507,200.676 210.541,200.339 211.956 C 199.877 213.891,199.273 215.188,197.900 217.194 C 196.896 218.660,195.519 220.961,194.841 222.308 C 194.110 223.760,192.992 225.305,192.092 226.105 C 191.258 226.847,190.072 228.193,189.457 229.095 C 188.842 229.997,187.757 231.160,187.045 231.678 C 186.334 232.197,184.891 233.445,183.840 234.450 C 182.789 235.456,180.599 237.006,178.975 237.896 C 177.350 238.785,175.630 239.869,175.152 240.305 C 173.854 241.488,173.214 241.755,165.988 244.132 C 157.366 246.968,155.616 247.234,147.076 247.008 L 140.226 246.827 132.870 244.376 C 125.042 241.767,123.897 241.285,121.981 239.789 C 121.312 239.267,119.904 238.408,118.853 237.879 C 115.787 236.339,106.360 227.459,104.937 224.770 C 104.560 224.058,103.570 222.707,102.736 221.768 C 101.775 220.686,100.869 219.126,100.258 217.503 C 99.728 216.095,98.534 213.458,97.604 211.642 C 92.928 202.509,92.891 179.999,97.538 172.068 C 98.035 171.220,99.017 169.104,99.720 167.365 C 100.905 164.431,101.657 163.255,106.255 157.144 C 108.446 154.230,115.607 147.598,117.714 146.531 C 118.635 146.063,120.120 145.079,121.014 144.344 C 122.099 143.450,124.002 142.496,126.741 141.471 C 128.997 140.627,131.546 139.591,132.407 139.169 C 136.680 137.071,145.565 136.188,154.858 136.939 " stroke="none" fill="#7c7c7c" fill-rule="evenodd"></path></g></svg>