<svg id="svg" version="1.1" xmlns="http://www.w3.org/2000/svg" xmlns:xlink="http://www.w3.org/1999/xlink" width="400" height="483.5820895522388" viewBox="0, 0, 400,483.5820895522388"><g id="svgg"><path id="path0" d="M195.600 44.426 C 186.865 45.732,182.058 50.974,180.195 61.227 C 179.062 67.465,178.251 69.095,173.959 73.771 C 170.835 77.174,169.345 79.539,168.393 82.600 C 168.042 83.732,167.804 90.513,167.581 105.800 C 167.047 142.454,164.952 147.270,139.577 170.176 C 112.744 194.399,101.856 209.442,95.556 231.000 C 79.544 285.785,105.466 345.310,156.200 370.259 C 164.183 374.185,178.137 379.131,184.221 380.193 C 224.422 387.203,260.784 377.334,288.945 351.770 C 298.160 343.405,308.504 330.122,313.529 320.200 C 330.772 286.158,332.000 245.991,316.732 215.455 C 309.511 201.012,300.489 190.066,281.800 173.074 C 262.981 155.964,257.399 149.074,253.655 138.334 C 251.128 131.086,251.069 130.445,250.964 109.400 C 250.821 80.864,250.781 80.649,244.244 73.648 C 240.094 69.202,239.080 67.140,238.002 60.958 C 236.307 51.230,230.909 45.505,222.400 44.411 C 218.808 43.949,198.718 43.960,195.600 44.426 M219.013 59.780 C 220.587 60.437,220.887 61.711,219.626 62.386 C 218.062 63.223,199.435 62.919,198.348 62.038 C 197.265 61.162,197.996 59.818,199.742 59.477 C 202.257 58.985,217.691 59.227,219.013 59.780 M222.449 81.204 C 232.154 82.124,236.863 84.478,235.607 87.781 C 234.536 90.599,228.452 91.626,210.800 91.969 C 198.909 92.200,196.779 92.334,195.400 92.939 C 189.127 95.690,188.961 102.661,195.098 105.630 C 196.924 106.513,197.536 106.562,210.482 106.838 C 229.384 107.241,235.400 108.535,235.400 112.197 C 235.400 116.468,228.611 117.597,203.000 117.587 C 176.930 117.577,178.200 118.498,178.200 99.600 C 178.200 80.685,177.895 80.916,203.000 80.844 C 211.360 80.820,220.112 80.982,222.449 81.204 M186.879 131.855 C 187.960 132.400,189.574 134.298,190.233 135.800 C 190.426 136.240,190.692 149.020,190.824 164.200 C 191.084 194.098,191.061 193.795,193.329 196.252 C 195.782 198.908,199.208 198.168,201.000 194.595 C 201.771 193.058,201.807 191.988,202.000 165.000 C 202.187 138.833,202.249 136.889,202.944 135.299 C 204.954 130.701,210.533 129.508,213.804 132.976 C 216.160 135.475,216.115 134.911,216.368 165.400 C 216.575 190.426,216.670 193.527,217.262 194.600 C 219.630 198.893,223.830 198.948,226.079 194.716 L 226.991 193.000 227.255 165.800 C 227.553 135.172,227.506 135.662,230.371 133.074 C 232.255 131.372,234.794 130.832,237.340 131.594 C 241.004 132.690,242.365 134.553,244.802 141.805 C 248.848 153.848,255.007 161.411,277.600 182.078 C 294.525 197.561,301.369 205.891,308.108 219.212 C 321.583 245.849,321.021 283.940,306.732 312.526 C 289.580 346.836,259.837 367.559,219.600 373.231 C 198.089 376.263,168.921 368.786,148.000 354.877 C 123.839 338.814,105.306 309.804,101.571 282.200 C 98.943 262.783,100.501 243.158,105.827 228.577 C 112.466 210.402,120.218 200.423,146.283 176.497 C 163.173 160.995,169.982 152.044,173.535 140.679 C 176.175 132.231,181.128 128.957,186.879 131.855 M76.889 187.423 C 74.727 188.937,76.448 192.296,80.425 194.324 C 83.432 195.858,85.978 196.106,87.216 194.985 C 90.706 191.827,80.877 184.630,76.889 187.423 M335.304 187.823 C 332.458 189.241,330.400 191.591,330.400 193.422 C 330.400 196.444,334.697 196.550,339.278 193.639 C 345.315 189.803,341.763 184.605,335.304 187.823 M195.400 216.750 C 189.266 218.668,190.872 230.872,197.124 229.857 C 203.022 228.900,203.086 217.861,197.200 216.697 C 196.650 216.589,195.840 216.612,195.400 216.750 M219.005 217.667 C 217.556 218.807,216.800 220.705,216.800 223.200 C 216.800 230.056,223.354 232.466,226.048 226.600 C 228.778 220.655,223.583 214.066,219.005 217.667 M60.110 261.567 C 57.290 262.284,55.923 263.962,56.810 265.619 C 58.309 268.419,67.563 268.246,68.657 265.397 C 69.669 262.759,64.511 260.447,60.110 261.567 M353.000 261.551 C 346.784 263.156,348.714 267.600,355.627 267.600 C 360.102 267.600,362.210 266.151,361.408 263.624 C 360.885 261.977,356.008 260.775,353.000 261.551 M81.147 334.706 C 76.913 337.090,75.600 338.444,75.600 340.427 C 75.600 343.801,80.308 343.578,85.076 339.978 C 91.321 335.263,88.021 330.836,81.147 334.706 M330.662 333.931 C 327.507 337.418,338.651 345.349,342.000 342.000 C 343.913 340.087,341.970 337.136,337.176 334.670 C 333.947 333.009,331.725 332.757,330.662 333.931 M136.559 385.372 C 135.091 386.011,134.040 387.397,132.404 390.857 C 128.578 398.945,135.736 399.619,139.822 391.556 C 141.988 387.282,140.154 383.807,136.559 385.372 M278.400 385.600 C 276.434 387.566,277.887 392.319,281.463 395.615 C 285.841 399.651,288.561 396.154,285.647 390.235 C 283.436 385.743,280.277 383.723,278.400 385.600 M207.500 403.632 C 204.143 405.587,204.613 417.027,208.120 418.722 C 210.925 420.077,212.973 416.998,212.989 411.400 C 213.008 404.950,210.742 401.744,207.500 403.632 " stroke="none" fill="#20231c" fill-rule="evenodd"></path><path id="path1" d="M180.369 134.910 C 178.480 136.182,177.520 137.765,176.030 142.068 C 173.241 150.117,169.160 156.779,162.104 164.800 C 157.806 169.686,156.369 171.076,142.800 183.470 C 112.829 210.846,103.065 230.474,103.040 263.400 C 102.968 354.918,207.577 404.097,277.479 345.408 C 317.074 312.164,326.857 250.845,299.094 209.925 C 293.501 201.681,288.185 195.903,274.600 183.301 C 251.367 161.747,247.020 156.382,241.793 142.800 C 238.829 135.096,235.605 132.733,232.413 135.925 C 230.431 137.907,230.311 139.502,230.016 167.600 C 229.721 195.759,229.776 195.120,227.346 198.307 C 223.955 202.753,217.874 202.020,215.205 196.844 C 213.906 194.325,213.842 193.060,213.622 165.400 C 213.365 132.977,213.520 134.000,208.870 134.000 C 204.613 134.000,204.632 133.862,204.392 166.400 C 204.205 191.786,204.117 194.745,203.507 196.052 C 199.767 204.067,190.752 202.530,188.826 193.548 C 188.570 192.353,188.306 181.166,188.155 165.090 C 187.986 147.079,187.761 138.157,187.453 137.215 C 186.512 134.339,182.940 133.177,180.369 134.910 M199.319 214.140 C 206.533 217.155,205.642 230.742,198.096 232.774 C 193.043 234.135,188.808 229.769,188.808 223.200 C 188.808 216.082,193.757 211.816,199.319 214.140 M225.182 214.391 C 231.726 217.729,230.703 230.892,223.754 232.759 C 218.465 234.181,214.000 229.802,214.000 223.191 C 214.000 216.073,219.694 211.591,225.182 214.391 " stroke="none" fill="#f7d704" fill-rule="evenodd"></path><path id="path2" d="M0.000 241.600 L 0.000 483.200 200.000 483.200 L 400.000 483.200 400.000 241.600 L 400.000 0.000 200.000 0.000 L 0.000 0.000 0.000 241.600 M229.370 38.547 C 237.967 41.011,243.849 48.410,246.361 59.917 C 247.321 64.315,248.163 66.033,250.846 69.066 C 254.604 73.314,257.363 78.120,258.657 82.669 C 259.221 84.655,259.363 88.429,259.616 108.200 C 259.981 136.689,259.902 136.196,265.384 144.384 C 269.141 149.995,273.638 154.822,283.653 163.994 C 299.567 178.568,305.796 184.974,312.635 193.800 C 314.681 196.440,317.159 199.270,318.142 200.090 C 319.590 201.298,320.097 202.092,320.820 204.290 C 321.311 205.780,322.422 208.420,323.288 210.155 C 324.738 213.058,327.222 219.215,330.032 226.870 C 330.800 228.965,331.808 233.855,333.205 242.270 C 336.477 261.984,336.340 261.693,340.571 257.991 C 345.614 253.579,353.952 251.974,362.466 253.779 C 375.671 256.578,375.817 271.846,362.676 275.809 C 354.972 278.133,347.209 276.519,340.800 271.262 C 339.150 269.908,337.620 268.856,337.400 268.922 C 336.134 269.306,334.634 275.757,332.233 291.139 C 331.634 294.977,330.731 299.026,330.048 300.939 C 326.658 310.438,324.794 315.260,323.608 317.598 C 321.142 322.458,320.067 326.800,321.330 326.800 C 321.622 326.800,323.197 326.322,324.830 325.739 C 338.312 320.921,355.840 334.278,350.653 345.416 C 347.361 352.486,337.661 353.195,328.981 347.001 C 321.658 341.775,319.522 338.211,319.212 330.700 C 319.136 328.836,316.153 331.674,312.018 337.546 C 304.369 348.408,294.213 358.603,282.000 367.679 C 280.350 368.905,277.949 370.985,276.665 372.301 L 274.331 374.693 277.496 374.876 C 284.531 375.284,289.874 379.985,294.455 389.800 C 300.629 403.028,287.265 413.372,277.179 403.172 C 268.299 394.191,266.443 384.927,272.056 377.600 C 274.279 374.698,274.285 374.675,272.750 375.001 C 272.008 375.159,267.710 376.828,263.200 378.710 C 258.690 380.593,253.954 382.564,252.676 383.092 C 248.666 384.747,228.379 389.784,224.015 390.209 C 219.642 390.634,214.113 391.566,213.027 392.061 C 212.083 392.491,211.574 393.600,212.320 393.600 C 214.433 393.600,218.903 400.001,219.824 404.348 C 222.601 417.447,218.066 427.217,209.221 427.191 C 201.240 427.168,198.012 422.505,198.012 411.000 C 198.012 402.312,199.449 398.666,204.440 394.692 C 207.513 392.246,206.064 391.592,194.468 390.190 C 191.535 389.835,186.855 388.917,184.068 388.149 C 181.281 387.382,176.755 386.217,174.011 385.562 C 171.267 384.906,167.487 383.730,165.611 382.948 C 156.293 379.063,148.431 375.885,146.941 375.401 C 144.371 374.567,143.134 373.807,141.400 371.992 C 140.520 371.072,137.370 368.465,134.400 366.198 C 122.564 357.167,113.564 347.948,106.284 337.400 C 103.553 333.442,99.852 329.397,99.283 329.748 C 99.084 329.872,98.812 331.374,98.679 333.086 C 98.245 338.691,97.081 340.812,92.298 344.719 C 81.996 353.133,72.036 353.614,67.765 345.902 C 61.709 334.967,80.078 320.530,93.400 325.754 C 98.095 327.596,97.764 327.641,97.474 325.193 C 97.313 323.840,96.418 321.365,95.027 318.430 C 92.987 314.126,91.478 310.254,88.186 300.871 C 87.462 298.806,86.572 295.057,86.193 292.471 C 85.121 285.165,82.511 271.740,81.924 270.516 C 81.119 268.836,80.391 268.973,77.385 271.368 C 63.909 282.108,42.210 275.467,46.177 261.819 C 47.985 255.602,53.949 252.842,64.561 253.310 C 71.515 253.618,73.216 254.283,78.991 258.954 C 81.575 261.044,81.822 260.482,84.166 247.200 C 84.923 242.910,85.748 237.960,86.000 236.200 C 86.706 231.265,87.434 228.711,90.044 222.000 C 93.321 213.572,93.887 212.224,95.457 209.095 C 96.204 207.608,97.183 205.407,97.633 204.204 C 98.105 202.941,99.049 201.463,99.864 200.708 C 100.641 199.989,102.817 197.420,104.699 195.000 C 111.515 186.236,118.439 178.908,129.200 169.071 C 144.289 155.278,148.268 151.110,152.787 144.361 C 158.313 136.110,158.419 135.448,158.781 106.800 C 159.096 81.872,159.007 82.742,161.802 77.201 C 163.076 74.673,164.884 72.121,168.603 67.600 C 170.460 65.343,170.949 64.102,172.387 58.000 C 175.035 46.767,182.472 39.181,192.000 37.995 C 197.174 37.351,226.720 37.787,229.370 38.547 M81.617 178.370 C 88.215 180.877,95.117 185.951,97.124 189.769 C 98.579 192.538,98.722 199.232,97.365 201.069 C 88.812 212.649,61.508 197.249,67.603 184.283 C 70.288 178.570,75.906 176.200,81.617 178.370 M345.009 178.348 C 348.879 180.107,351.910 185.281,351.484 189.404 C 350.926 194.811,347.289 198.729,338.807 203.062 L 335.014 205.000 330.967 205.000 C 323.894 205.000,320.160 202.461,319.732 197.362 C 319.130 190.177,322.604 185.565,332.533 180.371 C 338.316 177.345,341.621 176.809,345.009 178.348 M145.398 376.909 C 150.518 382.196,150.894 387.652,146.695 395.746 C 144.836 399.330,139.611 405.170,137.132 406.435 C 128.544 410.816,119.716 401.463,123.080 391.546 C 127.400 378.812,139.533 370.855,145.398 376.909 " stroke="none" fill="#fbfbfb" fill-rule="evenodd"></path><path id="path3" d="M192.500 42.607 C 184.755 44.289,179.632 50.249,177.731 59.789 C 176.492 66.007,175.556 67.950,171.833 72.031 C 164.995 79.525,164.785 80.534,164.403 107.600 C 164.152 125.447,163.979 129.906,163.450 132.192 C 160.409 145.323,155.419 152.246,136.808 169.153 C 101.887 200.876,90.314 221.957,88.459 257.220 C 83.824 345.352,169.828 408.412,252.387 377.416 C 312.115 354.992,344.184 287.571,324.121 226.600 C 317.537 206.590,307.289 192.703,282.200 169.797 C 255.495 145.414,253.961 142.011,253.803 106.800 C 253.687 81.101,253.476 80.093,246.572 72.225 C 242.465 67.547,241.882 66.353,240.548 59.905 C 238.493 49.966,233.130 43.930,225.027 42.437 C 221.456 41.779,195.691 41.914,192.500 42.607 M222.400 44.411 C 230.909 45.505,236.307 51.230,238.002 60.958 C 239.080 67.140,240.094 69.202,244.244 73.648 C 250.781 80.649,250.821 80.864,250.964 109.400 C 251.069 130.445,251.128 131.086,253.655 138.334 C 257.399 149.074,262.981 155.964,281.800 173.074 C 309.234 198.017,320.679 216.169,325.779 242.826 C 327.415 251.375,327.653 273.259,326.209 282.355 C 323.416 299.951,314.876 320.384,304.339 334.686 C 276.957 371.846,232.639 388.636,184.221 380.193 C 178.137 379.131,164.183 374.185,156.200 370.259 C 105.466 345.310,79.544 285.785,95.556 231.000 C 101.856 209.442,112.744 194.399,139.577 170.176 C 164.952 147.270,167.047 142.454,167.581 105.800 C 167.804 90.513,168.042 83.732,168.393 82.600 C 169.345 79.539,170.835 77.174,173.959 73.771 C 178.251 69.095,179.062 67.465,180.195 61.227 C 182.058 50.974,186.865 45.732,195.600 44.426 C 198.718 43.960,218.808 43.949,222.400 44.411 M199.742 59.477 C 197.996 59.818,197.265 61.162,198.348 62.038 C 199.435 62.919,218.062 63.223,219.626 62.386 C 220.887 61.711,220.587 60.437,219.013 59.780 C 217.691 59.227,202.257 58.985,199.742 59.477 M180.682 131.376 C 177.251 132.288,175.408 134.686,173.535 140.679 C 169.982 152.044,163.173 160.995,146.283 176.497 C 120.218 200.423,112.466 210.402,105.827 228.577 C 99.689 245.380,98.482 274.235,103.209 291.159 C 114.762 332.519,146.109 362.776,185.889 370.965 C 203.787 374.649,212.885 374.735,230.000 371.379 C 276.456 362.272,312.128 323.734,316.994 277.393 C 321.180 237.529,310.823 212.470,277.600 182.078 C 255.007 161.411,248.848 153.848,244.802 141.805 C 242.365 134.553,241.004 132.690,237.340 131.594 C 234.794 130.832,232.255 131.372,230.371 133.074 C 227.506 135.662,227.553 135.172,227.255 165.800 L 226.991 193.000 226.079 194.716 C 223.830 198.948,219.630 198.893,217.262 194.600 C 216.670 193.527,216.575 190.426,216.368 165.400 C 216.115 134.911,216.160 135.475,213.804 132.976 C 210.533 129.508,204.954 130.701,202.944 135.299 C 202.249 136.889,202.187 138.833,202.000 165.000 C 201.807 191.988,201.771 193.058,201.000 194.595 C 199.208 198.168,195.782 198.908,193.329 196.252 C 191.061 193.795,191.084 194.098,190.824 164.200 C 190.692 149.020,190.426 136.240,190.233 135.800 C 188.530 131.920,184.923 130.249,180.682 131.376 M185.641 134.915 C 187.894 136.431,187.885 136.329,188.155 165.090 C 188.306 181.166,188.570 192.353,188.826 193.548 C 190.752 202.530,199.767 204.067,203.507 196.052 C 204.117 194.745,204.205 191.786,204.392 166.400 C 204.632 133.862,204.613 134.000,208.870 134.000 C 213.520 134.000,213.365 132.977,213.622 165.400 C 213.842 193.060,213.906 194.325,215.205 196.844 C 217.874 202.020,223.955 202.753,227.346 198.307 C 229.776 195.120,229.721 195.759,230.016 167.600 C 230.311 139.502,230.431 137.907,232.413 135.925 C 235.605 132.733,238.829 135.096,241.793 142.800 C 247.020 156.382,251.367 161.747,274.600 183.301 C 302.221 208.924,311.841 225.847,314.428 253.367 C 320.334 316.184,271.383 370.794,209.164 370.800 C 137.976 370.806,86.753 301.642,107.258 233.200 C 112.543 215.558,121.705 202.738,142.800 183.470 C 156.369 171.076,157.806 169.686,162.104 164.800 C 169.160 156.779,173.241 150.117,176.030 142.068 C 178.527 134.860,181.866 132.375,185.641 134.915 M74.759 184.513 C 70.140 187.616,72.735 193.822,80.141 197.385 C 86.500 200.443,91.368 199.327,91.891 194.691 C 92.579 188.582,79.908 181.054,74.759 184.513 M335.823 184.596 C 326.931 188.252,323.543 194.821,328.759 198.295 C 331.315 199.997,336.171 198.988,341.070 195.736 C 349.668 190.029,345.278 180.709,335.823 184.596 M82.051 187.367 C 86.634 189.293,89.247 193.147,87.216 194.985 C 84.498 197.445,76.000 193.034,76.000 189.164 C 76.000 187.020,79.063 186.111,82.051 187.367 M341.600 187.600 C 343.899 189.899,340.730 193.861,335.332 195.435 C 330.762 196.768,328.725 193.856,331.826 190.424 C 334.698 187.245,339.777 185.777,341.600 187.600 M193.600 214.049 C 189.380 215.732,187.365 223.147,189.753 228.200 C 193.823 236.810,204.134 233.377,204.171 223.400 C 204.198 216.306,199.147 211.838,193.600 214.049 M218.496 214.444 C 214.686 216.330,213.021 221.757,214.610 227.108 C 216.945 234.973,226.651 234.985,228.985 227.127 C 231.583 218.378,225.473 210.990,218.496 214.444 M199.134 217.479 C 202.075 219.318,202.393 225.925,199.665 228.538 C 196.049 232.002,191.628 228.962,191.610 223.000 C 191.595 217.851,195.337 215.105,199.134 217.479 M224.997 218.169 C 228.640 222.032,226.499 229.800,221.790 229.800 C 217.914 229.800,215.477 224.340,217.352 219.854 C 218.733 216.548,222.653 215.683,224.997 218.169 M58.200 258.753 C 50.509 260.761,50.293 268.035,57.860 270.235 C 66.862 272.852,76.034 267.596,72.299 261.959 C 70.430 259.138,63.104 257.472,58.200 258.753 M350.797 258.753 C 340.961 261.951,344.489 270.800,355.600 270.800 C 369.418 270.800,369.808 258.823,356.000 258.519 C 353.690 258.468,351.349 258.573,350.797 258.753 M67.067 262.258 C 68.418 262.900,69.099 264.244,68.657 265.397 C 67.563 268.246,58.309 268.419,56.810 265.619 C 55.039 262.310,62.219 259.958,67.067 262.258 M360.046 262.224 C 361.279 262.861,361.785 264.008,361.440 265.381 C 360.683 268.401,350.745 268.411,349.597 265.393 C 348.352 262.116,355.592 259.920,360.046 262.224 M84.589 329.960 C 78.427 331.500,72.400 336.890,72.400 340.863 C 72.400 348.327,83.916 346.972,90.748 338.705 C 94.420 334.261,90.373 328.515,84.589 329.960 M330.165 330.090 C 322.899 331.564,325.789 339.856,335.192 344.516 C 344.372 349.065,350.321 340.667,342.258 334.540 C 337.724 331.093,333.278 329.458,330.165 330.090 M87.669 333.862 C 89.198 335.246,88.188 337.628,85.076 339.978 C 80.308 343.578,75.600 343.801,75.600 340.427 C 75.600 336.653,85.064 331.505,87.669 333.862 M337.176 334.670 C 341.970 337.136,343.913 340.087,342.000 342.000 C 338.651 345.349,327.507 337.418,330.662 333.931 C 331.725 332.757,333.947 333.009,337.176 334.670 M135.156 382.742 C 131.623 384.982,127.799 392.154,128.078 396.014 C 128.667 404.150,137.818 401.969,142.434 392.591 C 146.096 385.154,141.391 378.788,135.156 382.742 M276.457 382.613 C 270.305 387.790,280.547 404.238,287.575 400.469 C 290.204 399.059,291.080 395.723,289.719 392.308 C 286.221 383.533,280.412 379.286,276.457 382.613 M139.818 385.782 C 141.101 387.065,141.102 389.030,139.822 391.556 C 135.736 399.619,128.578 398.945,132.404 390.857 C 135.018 385.330,137.600 383.563,139.818 385.782 M282.795 386.243 C 284.728 387.990,286.887 392.203,286.943 394.341 C 287.068 399.109,281.706 397.661,278.708 392.115 C 275.805 386.746,278.719 382.560,282.795 386.243 M206.359 400.901 C 201.837 403.897,201.495 417.743,205.861 421.074 C 211.719 425.542,217.015 417.560,215.227 406.957 C 214.229 401.042,210.249 398.323,206.359 400.901 M211.365 404.431 C 215.217 409.009,212.528 420.852,208.120 418.722 C 204.613 417.027,204.143 405.587,207.500 403.632 C 208.847 402.848,210.282 403.144,211.365 404.431 " stroke="none" fill="#807c5c" fill-rule="evenodd"></path><path id="path4" d="M186.200 81.211 C 179.058 82.652,178.200 84.624,178.200 99.600 C 178.200 118.498,176.930 117.577,203.000 117.587 C 228.611 117.597,235.400 116.468,235.400 112.197 C 235.400 108.535,229.384 107.241,210.482 106.838 C 197.536 106.562,196.924 106.513,195.098 105.630 C 188.961 102.661,189.127 95.690,195.400 92.939 C 196.779 92.334,198.909 92.200,210.800 91.969 C 228.452 91.626,234.536 90.599,235.607 87.781 C 236.863 84.478,232.154 82.124,222.449 81.204 C 217.478 80.732,188.543 80.738,186.200 81.211 " stroke="none" fill="#04aef4" fill-rule="evenodd"></path><path id="path5" d="M192.400 40.843 C 184.034 42.279,177.917 49.149,175.766 59.525 C 174.562 65.330,173.576 67.328,169.863 71.484 C 162.867 79.314,162.723 79.997,162.373 107.000 C 161.912 142.531,160.991 144.560,134.200 169.016 C 101.016 199.307,90.534 217.852,86.842 252.800 C 85.059 269.681,87.285 287.860,93.211 304.804 C 121.301 385.118,219.778 413.349,286.200 360.129 C 318.417 334.316,335.875 292.098,331.210 251.284 C 327.349 217.506,316.694 198.731,285.000 169.861 C 257.118 144.462,256.474 143.089,256.008 108.000 C 255.679 83.297,255.722 83.709,252.820 77.800 C 251.821 75.764,250.206 73.436,248.382 71.400 C 244.742 67.338,243.799 65.446,242.533 59.670 C 240.394 49.911,235.776 43.955,228.462 41.524 C 225.508 40.541,197.262 40.008,192.400 40.843 M225.027 42.437 C 233.130 43.930,238.493 49.966,240.548 59.905 C 241.882 66.353,242.465 67.547,246.572 72.225 C 253.476 80.093,253.687 81.101,253.803 106.800 C 253.961 142.011,255.495 145.414,282.200 169.797 C 313.568 198.437,325.222 217.809,329.004 247.600 C 338.332 321.064,282.821 385.105,209.600 385.352 C 139.719 385.587,84.765 327.461,88.459 257.220 C 90.314 221.957,101.887 200.876,136.808 169.153 C 155.419 152.246,160.409 145.323,163.450 132.192 C 163.979 129.906,164.152 125.447,164.403 107.600 C 164.785 80.534,164.995 79.525,171.833 72.031 C 175.556 67.950,176.492 66.007,177.731 59.789 C 179.632 50.249,184.755 44.289,192.500 42.607 C 195.691 41.914,221.456 41.779,225.027 42.437 M75.615 181.670 C 69.518 183.419,68.709 191.165,74.135 195.829 C 83.108 203.540,94.415 202.696,94.396 194.316 C 94.386 189.621,86.910 183.187,79.680 181.650 C 77.277 181.140,77.465 181.139,75.615 181.670 M338.514 181.622 C 330.396 183.219,322.646 190.965,324.026 196.100 C 325.811 202.740,334.513 202.977,343.171 196.621 C 351.301 190.654,347.922 179.770,338.514 181.622 M82.410 184.528 C 90.147 187.712,94.137 193.848,90.788 197.413 C 85.681 202.849,70.395 194.051,72.825 187.075 C 74.008 183.682,77.863 182.657,82.410 184.528 M342.957 184.206 C 347.232 186.235,346.238 192.306,341.070 195.736 C 334.426 200.146,328.787 200.217,326.678 195.918 C 323.962 190.381,336.683 181.229,342.957 184.206 M57.707 256.822 C 52.638 257.822,49.115 261.656,49.738 265.494 C 51.462 276.121,76.289 274.990,75.517 264.320 C 75.080 258.287,67.166 254.955,57.707 256.822 M350.537 256.791 C 345.553 257.855,341.967 261.851,342.605 265.631 C 344.338 275.887,368.656 274.926,368.500 264.607 C 368.409 258.640,359.676 254.840,350.537 256.791 M69.399 259.608 C 76.696 263.229,73.124 270.321,63.799 270.729 C 54.680 271.128,49.273 266.046,53.727 261.262 C 56.525 258.257,64.897 257.373,69.399 259.608 M362.199 259.606 C 369.920 263.445,365.583 270.800,355.600 270.800 C 344.489 270.800,340.961 261.951,350.797 258.753 C 353.047 258.021,360.069 258.547,362.199 259.606 M84.497 328.023 C 77.551 329.393,70.231 336.058,70.229 341.014 C 70.226 350.784,86.232 349.241,93.248 338.795 C 96.135 334.497,93.950 329.221,88.792 328.032 C 86.768 327.566,86.816 327.566,84.497 328.023 M327.800 328.560 C 320.312 331.861,323.771 341.209,334.344 346.244 C 341.648 349.722,348.024 347.138,347.991 340.713 C 347.955 333.728,334.478 325.617,327.800 328.560 M89.800 330.741 C 94.774 333.564,91.799 339.982,83.489 344.353 C 74.327 349.173,67.756 340.882,75.839 334.701 C 81.727 330.198,86.472 328.853,89.800 330.741 M337.968 331.840 C 344.638 335.487,347.140 339.081,345.599 342.803 C 343.690 347.411,336.887 346.720,330.144 341.233 C 321.445 334.155,327.940 326.358,337.968 331.840 M136.327 379.832 C 129.798 381.841,123.617 395.146,126.930 400.061 C 131.157 406.334,139.089 403.377,143.890 393.740 C 148.287 384.912,144.207 377.407,136.327 379.832 M276.526 379.977 C 270.364 382.775,271.419 392.347,278.714 399.826 C 286.403 407.710,295.970 400.948,291.249 390.968 C 286.719 381.392,281.686 377.635,276.526 379.977 M141.184 382.254 C 145.384 384.735,144.365 391.736,138.951 397.583 C 132.369 404.693,125.030 399.786,129.133 391.017 C 132.789 383.205,137.273 379.944,141.184 382.254 M283.002 382.627 C 287.931 385.972,291.632 394.715,289.669 398.375 C 286.884 403.569,280.352 401.048,276.219 393.183 C 272.137 385.415,276.684 378.339,283.002 382.627 M205.800 398.748 C 199.364 402.746,199.319 420.298,205.738 423.344 C 210.769 425.731,215.613 422.742,216.819 416.507 C 219.173 404.336,212.950 394.308,205.800 398.748 M211.904 400.798 C 216.820 403.796,216.849 418.472,211.943 421.370 C 206.631 424.508,203.000 420.297,203.000 411.000 C 203.000 402.133,206.853 397.718,211.904 400.798 " stroke="none" fill="#989897" fill-rule="evenodd"></path><path id="path6" d="M194.600 39.573 C 183.465 40.644,177.156 46.984,174.354 59.920 C 173.245 65.037,172.567 66.365,168.820 70.752 C 161.767 79.010,161.200 81.472,161.199 103.883 C 161.197 141.596,160.218 143.804,132.200 169.294 C 105.387 193.688,92.591 213.126,88.024 236.400 C 84.345 255.152,84.078 265.680,86.827 283.569 C 88.560 294.843,88.978 296.578,92.041 305.200 C 107.508 348.736,141.226 377.183,188.984 386.988 C 229.595 395.326,278.948 376.354,305.962 342.019 C 313.026 333.041,324.000 314.440,324.000 311.444 C 324.000 311.304,325.083 308.200,326.407 304.547 C 330.931 292.063,334.215 270.008,333.229 258.732 C 329.806 219.599,319.532 199.854,287.200 170.267 C 271.321 155.736,268.281 152.546,263.590 145.489 C 257.791 136.766,257.603 135.639,257.217 107.400 C 256.961 88.653,256.806 84.641,256.268 82.800 C 255.109 78.832,252.576 74.320,249.636 70.988 C 246.124 67.007,245.059 65.048,244.208 61.000 C 241.701 49.074,236.333 42.305,227.633 40.097 C 225.059 39.444,200.067 39.047,194.600 39.573 M228.462 41.524 C 235.776 43.955,240.394 49.911,242.533 59.670 C 243.799 65.446,244.742 67.338,248.382 71.400 C 250.206 73.436,251.821 75.764,252.820 77.800 C 255.722 83.709,255.679 83.297,256.008 108.000 C 256.474 143.089,257.118 144.462,285.000 169.861 C 316.694 198.731,327.349 217.506,331.210 251.284 C 335.875 292.098,318.417 334.316,286.200 360.129 C 224.719 409.390,134.398 389.510,99.070 318.943 C 95.794 312.399,90.920 299.150,89.622 293.261 C 87.525 283.753,85.764 266.886,86.191 260.400 C 88.795 220.774,99.204 200.961,134.200 169.016 C 151.003 153.678,157.788 145.355,160.170 137.163 C 162.004 130.855,162.077 129.855,162.373 107.000 C 162.723 79.997,162.867 79.314,169.863 71.484 C 173.576 67.328,174.562 65.330,175.766 59.525 C 177.917 49.149,184.034 42.279,192.400 40.843 C 197.262 40.008,225.508 40.541,228.462 41.524 M73.800 180.970 C 67.865 184.029,67.470 191.134,72.947 196.315 C 82.424 205.277,95.958 204.270,95.987 194.600 C 96.011 186.842,80.680 177.424,73.800 180.970 M337.400 180.563 C 328.960 183.248,322.400 189.387,322.400 194.600 C 322.400 204.150,334.908 205.355,344.903 196.768 C 353.443 189.431,347.804 177.252,337.400 180.563 M79.680 181.650 C 86.910 183.187,94.386 189.621,94.396 194.316 C 94.415 202.696,83.108 203.540,74.135 195.829 C 68.709 191.165,69.518 183.419,75.615 181.670 C 77.465 181.139,77.277 181.140,79.680 181.650 M344.052 182.239 C 349.410 184.948,348.955 192.376,343.171 196.621 C 334.513 202.977,325.811 202.740,324.026 196.100 C 322.083 188.873,336.897 178.620,344.052 182.239 M57.218 255.612 C 49.621 257.209,45.944 263.646,49.616 268.921 C 54.362 275.738,68.491 276.320,74.872 269.960 C 82.770 262.088,71.188 252.674,57.218 255.612 M350.108 255.596 C 343.204 257.063,339.137 262.773,341.583 267.567 C 346.978 278.143,370.000 275.758,370.000 264.624 C 370.000 257.862,360.258 253.441,350.108 255.596 M68.055 256.943 C 72.704 258.037,75.244 260.549,75.517 264.320 C 76.289 274.990,51.462 276.121,49.738 265.494 C 48.693 259.056,58.193 254.622,68.055 256.943 M363.014 257.565 C 371.027 261.108,370.039 269.706,361.328 272.238 C 349.299 275.735,337.794 267.162,344.721 259.863 C 347.961 256.450,357.721 255.224,363.014 257.565 M84.142 326.797 C 74.802 328.752,67.038 337.672,69.368 343.772 C 72.522 352.031,86.760 349.815,94.108 339.922 C 99.278 332.961,93.163 324.909,84.142 326.797 M329.094 326.824 C 319.218 329.227,320.128 338.566,330.936 345.740 C 340.246 351.919,349.627 349.159,349.131 340.387 C 348.730 333.289,336.512 325.019,329.094 326.824 M88.792 328.032 C 93.950 329.221,96.135 334.497,93.248 338.795 C 86.232 349.241,70.226 350.784,70.229 341.014 C 70.231 335.449,78.990 328.301,86.600 327.654 C 86.820 327.635,87.806 327.805,88.792 328.032 M335.550 328.582 C 346.158 332.325,351.332 341.316,345.636 346.108 C 338.943 351.740,321.484 341.040,323.948 332.816 C 325.162 328.764,330.522 326.808,335.550 328.582 M277.091 378.132 C 268.686 380.741,269.576 393.133,278.788 401.750 C 287.448 409.851,297.637 400.836,292.168 389.911 C 287.553 380.694,282.232 376.536,277.091 378.132 M134.883 379.034 C 130.568 381.184,124.460 390.804,124.413 395.523 C 124.355 401.435,129.261 405.910,134.508 404.731 C 139.630 403.580,146.582 394.259,147.097 387.854 C 147.693 380.419,141.328 375.822,134.883 379.034 M140.868 379.668 C 147.941 381.787,147.203 392.041,139.416 399.862 C 132.478 406.830,123.484 402.274,126.143 393.139 C 128.660 384.491,135.644 378.103,140.868 379.668 M281.677 379.670 C 287.985 381.560,294.311 394.286,291.592 399.615 C 287.656 407.331,277.185 402.423,273.156 390.973 C 270.645 383.839,275.242 377.742,281.677 379.670 M206.470 396.833 C 198.054 399.398,197.461 421.652,205.726 424.775 C 211.219 426.850,216.480 423.635,217.795 417.400 C 220.536 404.410,214.942 394.251,206.470 396.833 M212.113 398.548 C 218.715 401.362,219.232 419.919,212.799 423.201 C 205.645 426.850,200.925 421.458,201.283 410.047 C 201.591 400.275,205.764 395.843,212.113 398.548 " stroke="none" fill="#bcbcbc" fill-rule="evenodd"></path><path id="path7" d="M192.000 37.995 C 182.472 39.181,175.035 46.767,172.387 58.000 C 170.949 64.102,170.460 65.343,168.603 67.600 C 164.884 72.121,163.076 74.673,161.802 77.201 C 159.007 82.742,159.096 81.872,158.781 106.800 C 158.419 135.448,158.313 136.110,152.787 144.361 C 148.268 151.110,144.289 155.278,129.200 169.071 C 118.439 178.908,111.515 186.236,104.699 195.000 C 102.817 197.420,100.641 199.989,99.864 200.708 C 99.049 201.463,98.105 202.941,97.633 204.204 C 97.183 205.407,96.204 207.608,95.457 209.095 C 93.887 212.224,93.321 213.572,90.044 222.000 C 87.434 228.711,86.706 231.265,86.000 236.200 C 85.748 237.960,84.923 242.910,84.166 247.200 C 81.822 260.482,81.575 261.044,78.991 258.954 C 73.216 254.283,71.515 253.618,64.561 253.310 C 53.949 252.842,47.985 255.602,46.177 261.819 C 42.210 275.467,63.909 282.108,77.385 271.368 C 80.391 268.973,81.119 268.836,81.924 270.516 C 82.511 271.740,85.121 285.165,86.193 292.471 C 86.572 295.057,87.462 298.806,88.186 300.871 C 91.478 310.254,92.987 314.126,95.027 318.430 C 96.418 321.365,97.313 323.840,97.474 325.193 C 97.764 327.641,98.095 327.596,93.400 325.754 C 82.687 321.553,66.752 330.629,66.633 341.000 C 66.523 350.605,77.396 354.432,87.400 348.310 C 95.279 343.489,98.176 339.578,98.679 333.086 C 98.812 331.374,99.084 329.872,99.283 329.748 C 99.852 329.397,103.553 333.442,106.284 337.400 C 113.564 347.948,122.564 357.167,134.400 366.198 C 137.370 368.465,140.520 371.072,141.400 371.992 C 143.134 373.807,144.371 374.567,146.941 375.401 C 148.431 375.885,156.293 379.063,165.611 382.948 C 167.487 383.730,171.267 384.906,174.011 385.562 C 176.755 386.217,181.281 387.382,184.068 388.149 C 186.855 388.917,191.535 389.835,194.468 390.190 C 206.064 391.592,207.513 392.246,204.440 394.692 C 199.449 398.666,198.012 402.312,198.012 411.000 C 198.012 422.505,201.240 427.168,209.221 427.191 C 218.066 427.217,222.601 417.447,219.824 404.348 C 218.903 400.001,214.433 393.600,212.320 393.600 C 211.574 393.600,212.083 392.491,213.027 392.061 C 214.113 391.566,219.642 390.634,224.015 390.209 C 228.379 389.784,248.666 384.747,252.676 383.092 C 253.954 382.564,258.690 380.593,263.200 378.710 C 267.710 376.828,272.008 375.159,272.750 375.001 C 274.285 374.675,274.279 374.698,272.056 377.600 C 266.443 384.927,268.299 394.191,277.179 403.172 C 287.265 413.372,300.629 403.028,294.455 389.800 C 289.874 379.985,284.531 375.284,277.496 374.876 L 274.331 374.693 276.665 372.301 C 277.949 370.985,280.350 368.905,282.000 367.679 C 294.213 358.603,304.369 348.408,312.018 337.546 C 316.153 331.674,319.136 328.836,319.212 330.700 C 319.522 338.211,321.658 341.775,328.981 347.001 C 337.661 353.195,347.361 352.486,350.653 345.416 C 355.840 334.278,338.312 320.921,324.830 325.739 C 323.197 326.322,321.622 326.800,321.330 326.800 C 320.067 326.800,321.142 322.458,323.608 317.598 C 324.794 315.260,326.658 310.438,330.048 300.939 C 330.731 299.026,331.634 294.977,332.233 291.139 C 334.634 275.757,336.134 269.306,337.400 268.922 C 337.620 268.856,339.150 269.908,340.800 271.262 C 354.819 282.761,378.061 274.374,371.459 260.197 C 367.472 251.633,349.318 250.337,340.571 257.991 C 336.340 261.693,336.477 261.984,333.205 242.270 C 331.808 233.855,330.800 228.965,330.032 226.870 C 327.222 219.215,324.738 213.058,323.288 210.155 C 322.422 208.420,321.311 205.780,320.820 204.290 C 320.097 202.092,319.590 201.298,318.142 200.090 C 317.159 199.270,314.681 196.440,312.635 193.800 C 305.796 184.974,299.567 178.568,283.653 163.994 C 273.638 154.822,269.141 149.995,265.384 144.384 C 259.902 136.196,259.981 136.689,259.616 108.200 C 259.363 88.429,259.221 84.655,258.657 82.669 C 257.363 78.120,254.604 73.314,250.846 69.066 C 248.163 66.033,247.321 64.315,246.361 59.917 C 243.849 48.410,237.967 41.011,229.370 38.547 C 226.720 37.787,197.174 37.351,192.000 37.995 M227.633 40.097 C 236.333 42.305,241.701 49.074,244.208 61.000 C 245.059 65.048,246.124 67.007,249.636 70.988 C 252.576 74.320,255.109 78.832,256.268 82.800 C 256.806 84.641,256.961 88.653,257.217 107.400 C 257.603 135.639,257.791 136.766,263.590 145.489 C 268.281 152.546,271.321 155.736,287.200 170.267 C 319.532 199.854,329.806 219.599,333.229 258.732 C 334.215 270.008,330.931 292.063,326.407 304.547 C 325.083 308.200,324.000 311.304,324.000 311.444 C 324.000 314.440,313.026 333.041,305.962 342.019 C 278.948 376.354,229.595 395.326,188.984 386.988 C 141.226 377.183,107.508 348.736,92.041 305.200 C 88.978 296.578,88.560 294.843,86.827 283.569 C 84.078 265.680,84.345 255.152,88.024 236.400 C 92.591 213.126,105.387 193.688,132.200 169.294 C 160.218 143.804,161.197 141.596,161.199 103.883 C 161.200 81.472,161.767 79.010,168.820 70.752 C 172.567 66.365,173.245 65.037,174.354 59.920 C 177.156 46.984,183.465 40.644,194.600 39.573 C 200.067 39.047,225.059 39.444,227.633 40.097 M72.878 178.636 C 65.482 182.322,64.725 191.837,71.347 197.879 C 80.125 205.888,92.669 207.427,97.365 201.069 C 99.964 197.551,98.092 189.618,93.707 185.569 C 86.869 179.255,77.736 176.215,72.878 178.636 M337.533 177.991 C 332.935 179.379,324.013 185.286,322.060 188.234 C 316.186 197.103,320.381 205.000,330.967 205.000 L 335.014 205.000 338.807 203.062 C 345.558 199.614,348.334 197.260,350.376 193.249 C 354.581 184.995,346.425 175.306,337.533 177.991 M83.793 181.733 C 95.311 187.203,99.359 195.348,93.157 200.577 C 85.394 207.123,67.067 196.491,69.263 186.716 C 70.651 180.538,76.822 178.422,83.793 181.733 M344.217 180.752 C 350.462 183.589,350.809 191.693,344.903 196.768 C 334.908 205.355,322.400 204.150,322.400 194.600 C 322.400 186.926,337.170 177.551,344.217 180.752 M70.597 256.231 C 77.246 258.595,79.385 265.462,74.872 269.960 C 64.381 280.415,41.726 271.086,49.970 259.705 C 52.897 255.664,63.822 253.824,70.597 256.231 M363.253 256.183 C 370.345 258.711,372.202 266.137,366.908 270.797 C 357.418 279.151,336.962 271.887,341.548 261.791 C 344.121 256.128,355.125 253.285,363.253 256.183 M91.167 327.444 C 99.594 330.964,96.715 340.843,85.524 346.808 C 71.029 354.534,61.793 340.378,75.359 331.229 C 82.285 326.558,86.583 325.529,91.167 327.444 M336.600 327.647 C 345.965 331.170,351.377 338.965,348.445 344.712 C 344.956 351.551,335.141 350.304,326.132 341.877 C 317.334 333.647,324.967 323.271,336.600 327.647 M137.575 375.346 C 129.970 377.397,122.016 388.711,122.492 396.800 C 122.888 403.525,127.947 408.264,133.862 407.454 C 140.915 406.487,150.056 393.647,149.529 385.449 C 149.057 378.098,143.810 373.665,137.575 375.346 M282.700 378.630 C 285.754 379.873,289.195 383.973,292.168 389.911 C 297.637 400.836,287.448 409.851,278.788 401.750 C 267.179 390.891,270.120 373.512,282.700 378.630 M142.113 378.539 C 149.990 381.836,147.794 395.592,138.239 402.806 C 130.700 408.498,121.951 401.362,125.143 392.125 C 128.551 382.262,136.261 376.089,142.113 378.539 M213.430 397.797 C 217.681 400.288,219.594 408.878,217.795 417.400 C 215.460 428.469,202.592 428.104,200.389 416.906 C 197.667 403.069,204.740 392.704,213.430 397.797 " stroke="none" fill="#c4c4c4" fill-rule="evenodd"></path></g></svg>